<?xml version="1.0" encoding="UTF-8"?> <!-- Generator: Adobe Illustrator 25.3.1, SVG Export Plug-In . SVG Version: 6.00 Build 0) --> <svg xmlns="http://www.w3.org/2000/svg" xmlns:xlink="http://www.w3.org/1999/xlink" id="Слой_1" x="0px" y="0px" viewBox="0 0 1608.1 367.1" style="enable-background:new 0 0 1608.1 367.1;" xml:space="preserve"> <style type="text/css"> .st0{fill:#FFFFFF;} </style> <g> <g> <path class="st0" d="M0,153.9l46.2-83.8L4.3,0h14.9L57,65.3h23V0h17.8v65.1h22L162.1,0H177l-45.7,67l52.8,86.9h-21.1l-45.4-77.4 H97.8v77.4H80V76.5H60.1l-39.3,77.4H0z"></path> <path class="st0" d="M240,153.9V0h82.8v11.4H258v59.2h59.4v10.9H258v61.1h70.1v11.4H240z"></path> <path class="st0" d="M383.7,153.9L384.4,0l0.5,0.7L384.6,0h22l54.2,131.8h0.2L515.3,0h20.8l0.7,153.9h-17.5L518.6,22h-0.2 l-53.3,131.8h-14.4L397.2,22l-0.5,131.8H383.7z"></path> <path class="st0" d="M676.2,88.8c0,0.3-1.7,1.4-5.2,3.2c-3.5,1.8-8.1,3.5-13.8,5.1c-5.8,1.6-12.4,2.4-20,2.4 c-25.4,0-38.1-14.1-38.1-42.4V0h17.7v54.4c0,11.8,2.1,20.2,6.4,25.2c4.3,5,11,7.5,20.4,7.5c7.7,0,14.5-1.1,20.4-3.2 c5.8-2.1,9.9-4.1,12.3-5.8V0H694v153.9h-17.8V88.8z"></path> <path class="st0" d="M768.7,154.9c-2.9-0.7-5.2-1.4-6.7-2.1c-1.6-0.7-2.5-1.2-2.8-1.5l2.6-12.5c0.3,0.3,1.2,0.8,2.6,1.5 c1.4,0.7,3.4,1.4,5.9,2c2.5,0.6,5.4,0.9,8.5,0.9c6,0,11.4-1.7,16.1-5.1c4.7-3.4,9.4-9.9,14-19.5L747.2,0h20.8l49.7,99.6L854,0 h14.2l-44,112.7c-6.3,15.9-13.1,27.1-20.4,33.6c-7.3,6.5-15.6,9.7-25.1,9.7C774.9,156,771.6,155.6,768.7,154.9z"></path> <path class="st0" d="M908.4,153.9l46.2-83.8L912.7,0h14.9l37.9,65.3h23V0h17.8v65.1h22L1070.6,0h14.9l-45.7,67l52.8,86.9h-21.1 l-45.4-77.4h-19.9v77.4h-17.8V76.5h-19.9l-39.3,77.4H908.4z"></path> <path class="st0" d="M1148.4,153.9V0h18v123.8l-1.2,7.8h0.2l74.8-129l1.2-2.6h16.8v153.9h-17.7V31.2l0.9-8.8h-0.2l-74.6,128.8 l-1.2,2.6H1148.4z"></path> <path class="st0" d="M1326.4,153.9V0h18v69.1h70.3V0h18v153.9h-18V80h-70.3v73.8H1326.4z"></path> <path class="st0" d="M1484.3,153.9L1536.1,0h21.1l50.9,153.9h-18.7l-16.1-47.3h-60.4l-16.1,47.3H1484.3z M1516.2,96.8h54 l-26.7-83.1L1516.2,96.8z"></path> </g> <g> <path class="st0" d="M0,351.7v-51.4h7.4v23.5l6.4-3.5l14.8-20.1h5.2l-15.2,21.1l18.3,30.3h-8.6l-15.2-25.8l-5.7,2.7v23.1H0z"></path> <path class="st0" d="M58.9,345.7c-3.7-4.7-5.6-11.2-5.6-19.7c0-8.5,1.9-15.1,5.6-19.7c3.7-4.7,9.2-7,16.3-7c7.1,0,12.6,2.3,16.3,7 c3.7,4.7,5.6,11.2,5.6,19.7c0,8.4-1.9,15-5.7,19.7c-3.8,4.7-9.2,7-16.2,7C68,352.7,62.6,350.4,58.9,345.7z M85.7,342.7 c2.3-3.7,3.4-9.2,3.4-16.7c0-7.4-1.1-13-3.4-16.7c-2.3-3.7-5.8-5.5-10.6-5.5c-4.8,0-8.3,1.8-10.6,5.5c-2.3,3.7-3.4,9.2-3.4,16.7 c0,7.5,1.1,13,3.4,16.7c2.3,3.7,5.8,5.5,10.6,5.5C79.9,348.2,83.5,346.3,85.7,342.7z"></path> <path class="st0" d="M128.6,351.7v-46.6H113v-4.8h38.7l-0.1,4.8H136v46.6H128.6z"></path> <path class="st0" d="M181,351.7v-46.6h-15.6v-4.8h38.7l-0.1,4.8h-15.5v46.6H181z"></path> <path class="st0" d="M225.8,346.3c-3.9-4.3-5.9-10.7-5.9-19.3c0-8.6,1.9-15.4,5.7-20.3c3.8-4.9,8.9-7.4,15.4-7.4 c5.9,0,10.4,2,13.6,6.1s4.8,9.8,4.8,17.3c0,1.3-0.1,2.4-0.2,3.2c-0.1,0.8-0.2,1.3-0.3,1.5h-31.2c0,13.8,5,20.8,15,20.8 c2.7,0,5.1-0.5,7-1.5s3.5-2.1,4.6-3.2c1.1-1.1,1.6-1.8,1.6-2l3,2.5c0,0.3-0.7,1.1-2,2.6c-1.3,1.5-3.2,2.9-5.8,4.2 c-2.5,1.3-5.6,2-9.4,2C235,352.7,229.7,350.6,225.8,346.3z M252.4,323.1l0.1-2c0-11.7-3.8-17.5-11.5-17.5c-4,0-7.2,1.6-9.4,4.8 c-2.2,3.2-3.5,8.1-3.8,14.6H252.4z"></path> <path class="st0" d="M273.5,346.9h6.5c2.4-5.8,4-12.2,4.9-19.4c0.9-7.2,1.3-16.3,1.3-27.3h29.6v46.7h7.2l-0.7,20.2H318l-1.2-15.4 h-37.1l-1.3,15.4H274L273.5,346.9z M308.2,346.9V305H291c-0.1,9.5-0.5,17.5-1.2,24c-0.8,6.5-2.2,12.5-4.2,17.9H308.2z"></path> <path class="st0" d="M337.5,351.7l15.9-27.7l-14.3-23.7h6l12.9,21.9l7.5,0.1v-22h7.5v22l7.3-0.1l14.1-21.9h5.9l-15.2,24l16,27.5 h-8.3l-13.8-24.9l-6,0.1v24.8h-7.5v-24.9l-5.8-0.1l-14,25H337.5z"></path> <path class="st0" d="M421.6,351.7v-51.4h7.4v22.6h22.9v-22.6h7.5v51.4h-7.5v-24.2H429v24.2H421.6z"></path> <path class="st0" d="M485,300.3h7.4v19.4h8c6.2,0,11.2,1.2,14.8,3.7c3.6,2.4,5.4,6.4,5.4,11.8c0,11-6.7,16.6-20.1,16.6H485V300.3z M500.5,347.6c4,0,7.1-1,9.3-2.9c2.1-1.9,3.2-5.1,3.2-9.6c0-4.2-1.2-7.1-3.5-8.8c-2.4-1.7-5.4-2.6-9.1-2.6h-7.8v23.8H500.5z M529.6,351.7v-51.4h7.5v51.4H529.6z"></path> <path class="st0" d="M564.6,346.3c-3.9-4.3-5.9-10.7-5.9-19.3c0-8.6,1.9-15.4,5.7-20.3c3.8-4.9,8.9-7.4,15.4-7.4 c5.9,0,10.4,2,13.6,6.1c3.2,4.1,4.8,9.8,4.8,17.3c0,1.3-0.1,2.4-0.2,3.2c-0.1,0.8-0.2,1.3-0.3,1.5h-31.2c0,13.8,5,20.8,15,20.8 c2.7,0,5.1-0.5,7-1.5s3.5-2.1,4.6-3.2c1.1-1.1,1.6-1.8,1.6-2l3,2.5c0,0.3-0.7,1.1-2,2.6s-3.2,2.9-5.8,4.2c-2.5,1.3-5.6,2-9.4,2 C573.9,352.7,568.5,350.6,564.6,346.3z M591.2,323.1l0.1-2c0-11.7-3.8-17.5-11.5-17.5c-4,0-7.2,1.6-9.4,4.8 c-2.2,3.2-3.5,8.1-3.8,14.6H591.2z"></path> <path class="st0" d="M646.6,346.9h6.5c2.4-5.8,4-12.2,4.9-19.4c0.9-7.2,1.3-16.3,1.3-27.3h29.6v46.7h7.2l-0.7,20.2h-4.2l-1.2-15.4 h-37.1l-1.3,15.4h-4.3L646.6,346.9z M681.3,346.9V305h-17.2c-0.1,9.5-0.5,17.5-1.2,24c-0.8,6.5-2.2,12.5-4.2,17.9H681.3z"></path> <path class="st0" d="M717.4,345.7c-3.7-4.7-5.6-11.2-5.6-19.7c0-8.5,1.9-15.1,5.6-19.7c3.7-4.7,9.2-7,16.3-7s12.6,2.3,16.3,7 c3.7,4.7,5.6,11.2,5.6,19.7c0,8.4-1.9,15-5.7,19.7c-3.8,4.7-9.2,7-16.2,7C726.6,352.7,721.2,350.4,717.4,345.7z M744.3,342.7 c2.3-3.7,3.4-9.2,3.4-16.7c0-7.4-1.1-13-3.4-16.7c-2.3-3.7-5.8-5.5-10.6-5.5s-8.3,1.8-10.6,5.5c-2.3,3.7-3.4,9.2-3.4,16.7 c0,7.5,1.1,13,3.4,16.7c2.3,3.7,5.8,5.5,10.6,5.5S742.1,346.3,744.3,342.7z"></path> <path class="st0" d="M777.2,351.7l1.4-51.4h9.2l15.3,43.8l16.1-43.8h9l0.7,51.4h-6.9l-0.4-40.8l-0.1-3L805,351.7h-5.8L783,307.9 l-0.1,1.1l-0.8,42.7H777.2z"></path> <path class="st0" d="M854.1,349.3c-2.7-2.2-4.1-5.3-4.1-9.3c0-10.1,9.7-16.1,29.1-18.2v-5.4c0-4.9-0.8-8.2-2.4-10 c-1.6-1.8-4.4-2.7-8.3-2.7c-1.8,0-3.6,0.3-5.4,1c-1.8,0.7-3.4,1.3-4.7,2.1c-1.3,0.7-2.1,1.2-2.4,1.4L855,304 c0.3-0.3,1.2-0.8,2.6-1.5c1.4-0.8,3.2-1.5,5.3-2.2c2.2-0.7,4.3-1,6.5-1c5.9,0,10.2,1.2,12.9,3.7c2.7,2.5,4.1,6.8,4.1,13.1v25.2 c0,2.7,0.3,4.6,0.8,5.5c0.5,1,1.1,1.4,1.9,1.4c0.6,0,1.4-0.1,2.3-0.4c0.9-0.2,1.5-0.4,1.7-0.6l0.3,3.5c-0.5,0.2-1.7,0.6-3.5,1.1 c-1.8,0.6-3.3,0.8-4.5,0.8c-1.8,0-3.2-0.6-4.1-1.7c-1-1.1-1.5-3.1-1.8-6h-0.1c0,0.3-0.6,1.1-1.6,2.4c-1.1,1.3-2.7,2.5-4.9,3.7 c-2.2,1.1-4.9,1.7-8.1,1.7C860.5,352.7,856.9,351.6,854.1,349.3z M873.6,346.5c1.8-1.1,3.1-2.3,4.1-3.6c0.9-1.3,1.4-2.1,1.4-2.3 v-15c-6.2,0.7-11.4,2-15.4,4c-4,2-6,5.1-6,9.5c0,2.9,0.9,5.2,2.6,6.7c1.7,1.5,4,2.3,7,2.3C869.7,348.2,871.9,347.6,873.6,346.5z"></path> </g> </g> </svg> 