<?xml version="1.0" encoding="UTF-8"?> <!-- Generator: Adobe Illustrator 25.3.1, SVG Export Plug-In . SVG Version: 6.00 Build 0) --> <svg xmlns="http://www.w3.org/2000/svg" xmlns:xlink="http://www.w3.org/1999/xlink" id="Слой_1" x="0px" y="0px" viewBox="0 0 512 512" style="enable-background:new 0 0 512 512;" xml:space="preserve"> <style type="text/css"> .st0{fill:#FFFFFF;} </style> <g> <path class="st0" d="M462,9H50C27.4,9,9,27.4,9,50v412c0,22.6,18.4,41,41,41h284.7c6.1,0,11-4.9,11-11s-4.9-11-11-11h-98.6h-9v-9 v-58.7c0-6.1-4.9-11-11-11c-6.1,0-11,4.9-11,11V472v9h-9H50c-10.5,0-19-8.5-19-19V276v-9h9h156.1h9v9v58.7c0,6.1,4.9,11,11,11 c6.1,0,11-4.9,11-11V177.3c0-6.1-4.9-11-11-11c-6.1,0-11,4.9-11,11V236v9h-9H40h-9v-9V50c0-10.5,8.5-19,19-19h146.1h9v9v58.7 c0,6.1,4.9,11,11,11c6.1,0,11-4.9,11-11V40v-9h9H462c10.5,0,19,8.5,19,19v187v9h-9H295.3c-6.1,0-11,4.9-11,11c0,6.1,4.9,11,11,11 H472h9v9v185c0,10.5-8.5,19-19,19h-48.7c-6.1,0-11,4.9-11,11s4.9,11,11,11H462c22.6,0,41-18.4,41-41V50C503,27.4,484.6,9,462,9z"></path> </g> </svg> 