<?xml version="1.0" encoding="UTF-8"?> <!-- Generator: Adobe Illustrator 25.3.1, SVG Export Plug-In . SVG Version: 6.00 Build 0) --> <svg xmlns="http://www.w3.org/2000/svg" xmlns:xlink="http://www.w3.org/1999/xlink" id="Capa_1" x="0px" y="0px" viewBox="0 0 512 512" style="enable-background:new 0 0 512 512;" xml:space="preserve"> <style type="text/css"> .st0{fill:#FFFFFF;} </style> <path class="st0" d="M337.1,415.6h104.1c4.2,0,7.6-3.4,7.6-7.6v-91.4c0-4.2-3.4-7.6-7.6-7.6H337.1c-4.2,0-7.6,3.4-7.6,7.6V408 C329.5,412.2,332.9,415.6,337.1,415.6z M344.7,400.5V352h88.9v48.5H344.7z M433.6,324.2v12.6h-88.9v-12.6H433.6z"></path> <path class="st0" d="M504.4,423.1H470v-64.9c0-4.2-3.4-7.6-7.6-7.6l0,0c-4.2,0-7.6,3.4-7.6,7.6v64.9H337.1c-4.2,0-7.6,3.4-7.6,7.6 v36.7h-11.4V316.6c0-4.2-3.4-7.6-7.6-7.6h-91.4c-4.2,0-7.6,3.4-7.6,7.6v150.7h-6.8v-36.7c0-4.2-3.4-7.6-7.6-7.6h-4.4V292.7 l131-125.1l131,125.1v30c0,4.2,3.4,7.6,7.6,7.6l0,0c4.2,0,7.6-3.4,7.6-7.6v-15.5l6.4,6.1c2.8,2.7,7.2,2.8,10.1,0.3l21.9-18.4 c1-0.9,1.9-1.9,2.3-3.1c1.2-3,0.4-6.2-1.8-8.3l-37.4-35.7V150c0-4.2-3.4-7.6-7.6-7.6h-69.3c-4.2,0-7.6,3.4-7.6,7.6v17.6l-47-44.8 l-11-10.2c-2.9-2.7-7.4-2.7-10.3,0L307.6,123l-81.3,77.4c-0.6-57.7-19.8-111.2-50.9-142.6c-3.1-3.1-8.2-2.9-11.1,0.4l0,0 c-2.6,3-2.5,7.5,0.3,10.4c28.8,29,46.5,79.7,46.5,134.5c0,4-0.1,8.1-0.3,12.1l-72.1,68.7c-2.2,2.1-3,5.3-1.8,8.3 c0.5,1.2,1.3,2.3,2.3,3.1l21.9,18.4c1.4,1.2,3.1,1.8,4.9,1.8c1.9,0,3.8-0.7,5.2-2.1l6.4-6.1v14.7c-18,25.5-40.8,39.5-64.5,39.5 c-25.5,0-49.7-16-68.2-45.1C25.7,286.1,15.2,245.9,15.2,203s10.6-83.1,29.7-113.3c18.5-29.1,42.7-45.1,68.2-45.1 c8.9,0,17.6,1.9,26.1,5.8c3.5,1.6,7.7,0.2,9.6-3.2v0c2.2-3.9,0.6-8.8-3.5-10.7c-10.4-4.7-21.2-7-32.2-7c-30.9,0-59.7,18.5-81,52.1 C11.4,114.1,0,157.3,0,203s11.4,88.9,32.1,121.4c14.4,22.7,32.2,38.4,51.7,46.3v52.3H60.7v-11.3c0-4.2-3.2-7.8-7.4-7.9 c-4.3-0.1-7.8,3.3-7.8,7.6v11.6h-9.2v-11.3c0-4.2-3.2-7.8-7.4-7.9c-4.3-0.1-7.8,3.3-7.8,7.6v11.6H7.6c-4.2,0-7.6,3.4-7.6,7.6v44.3 c0,4.2,3.4,7.6,7.6,7.6h189.6c0,0,0,0,0,0h21.9h91.4H337c0,0,0,0,0,0h167.3c4.2,0,7.6-3.4,7.6-7.6v-44.3 C512,426.5,508.6,423.1,504.4,423.1z M402.2,157.6h54.1v76l-54.1-51.5V157.6z M165.7,297.6l-10.4-8.7L318,134l5.8-5.4l5.8,5.4 l162.7,155l-10.4,8.7L329,151.6c-1.5-1.4-3.4-2.1-5.2-2.1c-1.9,0-3.8,0.7-5.2,2.1L165.7,297.6z M177.6,345.9v77.2h-10v-11.6 c0-4.2-3.4-7.6-7.6-7.6s-7.6,3.4-7.6,7.6v11.6h-10v-52.3C155.1,365.6,166.9,357.3,177.6,345.9z M99,375.2c4.7,0.9,9.4,1.3,14.2,1.3 c4.8,0,9.5-0.5,14.2-1.3v47.9H99V375.2z M15.2,438.2h76.1c0,0,0.1,0,0.1,0h43.5c0,0,0.1,0,0.1,0h54.6v29.1h-4.4v0h-170V438.2z M226.7,467.3V324.2h76.2v143.1L226.7,467.3L226.7,467.3z M496.8,467.3h-34.4v0H344.7v-29.1h152.2L496.8,467.3L496.8,467.3z"></path> <path class="st0" d="M292.5,387.7h-13.3c-4.2,0-7.6,3.4-7.6,7.6s3.4,7.6,7.6,7.6h13.3c4.2,0,7.6-3.4,7.6-7.6 S296.7,387.7,292.5,387.7z"></path> <path class="st0" d="M356.8,246c0-18.2-14.8-33-33-33c-18.2,0-33,14.8-33,33c0,18.2,14.8,33,33,33C342,279,356.8,264.2,356.8,246z M323.8,263.8c-9.8,0-17.8-8-17.8-17.8s8-17.8,17.8-17.8s17.8,8,17.8,17.8C341.6,255.8,333.6,263.8,323.8,263.8z"></path> </svg> 