<svg class="t-sociallinks__svg" version="1.1" id="Layer_1" xmlns="http://www.w3.org/2000/svg" xmlns:xlink="http://www.w3.org/1999/xlink" x="0px" y="0px" width="25px" height="25px" viewBox="0 0 25 25" enable-background="new 0 0 25 25" xml:space="preserve"><desc>Instagram</desc><path d="M16.396,3.312H8.604c-2.921,0-5.292,2.371-5.292,5.273v7.846c0,2.886,2.371,5.256,5.292,5.256h7.791c2.922,0,5.292-2.37,5.292-5.274V8.586C21.688,5.683,19.317,3.312,16.396,3.312L16.396,3.312z M7.722,12.5c0-2.64,2.142-4.778,4.778-4.778c2.636,0,4.777,2.138,4.777,4.778s-2.142,4.777-4.777,4.777C9.864,17.277,7.722,15.14,7.722,12.5zM17.756,8.182c-0.615,0-1.104-0.487-1.104-1.102s0.488-1.103,1.104-1.103c0.614,0,1.102,0.488,1.102,1.103S18.37,8.182,17.756,8.182L17.756,8.182z"></path><path d="M12.5,9.376c-1.731,0-3.124,1.398-3.124,3.124c0,1.725,1.393,3.124,3.124,3.124c1.732,0,3.124-1.399,3.124-3.124C15.624,10.775,14.211,9.376,12.5,9.376L12.5,9.376z"></path></svg>