<?xml version="1.0" encoding="UTF-8"?> <!-- Generator: Adobe Illustrator 25.4.1, SVG Export Plug-In . SVG Version: 6.00 Build 0) --> <svg xmlns="http://www.w3.org/2000/svg" xmlns:xlink="http://www.w3.org/1999/xlink" id="Слой_1" x="0px" y="0px" viewBox="0 0 751.13 135.46" style="enable-background:new 0 0 751.13 135.46;" xml:space="preserve"> <style type="text/css"> .st0{fill:#02352B;} .st1{fill:#FFFFFF;} </style> <g> <g> <rect y="1.7" class="st0" width="24.3" height="24.3"></rect> <g> <path class="st1" d="M9.2,18.05v-1.52h2.77V9.38h-0.09l-2.14,2.59l-1.16-0.98l2.5-2.95h2.86v8.4h2.14v1.52 C16.08,18.05,9.2,18.05,9.2,18.05z"></path> </g> </g> <g> <path class="st0" d="M40.88,8.04h5.45v1.07h-4.2v8.94h-1.16L40.88,8.04L40.88,8.04z"></path> <path class="st0" d="M49.28,18.23c-0.45,0-0.98-0.09-1.34-0.27c-0.45-0.18-0.71-0.45-1.07-0.8c-0.36-0.36-0.54-0.71-0.71-1.25 c-0.18-0.54-0.27-0.98-0.27-1.52c0-0.54,0.09-1.07,0.27-1.61c0.18-0.54,0.36-0.89,0.71-1.25c0.27-0.36,0.63-0.63,1.07-0.8 s0.89-0.27,1.34-0.27s0.98,0.09,1.34,0.27c0.45,0.18,0.71,0.45,1.07,0.8c0.36,0.36,0.54,0.71,0.71,1.25 c0.18,0.45,0.27,0.98,0.27,1.61c0,0.63-0.09,1.16-0.27,1.61c-0.18,0.45-0.36,0.89-0.71,1.25c-0.36,0.36-0.63,0.63-1.07,0.8 C50.17,18.14,49.73,18.23,49.28,18.23z M49.28,17.16c0.63,0,1.16-0.18,1.52-0.54s0.63-0.98,0.63-1.7v-1.07 c0-0.8-0.18-1.34-0.63-1.7s-0.89-0.54-1.52-0.54s-1.16,0.18-1.52,0.54c-0.36,0.36-0.63,0.98-0.63,1.7v1.07 c0,0.8,0.18,1.34,0.63,1.7C48.12,16.98,48.65,17.16,49.28,17.16z"></path> <path class="st0" d="M57.23,18.23c-0.54,0-0.98-0.09-1.43-0.27c-0.45-0.18-0.71-0.45-1.07-0.8c-0.36-0.36-0.45-0.71-0.63-1.25 c-0.18-0.54-0.18-0.98-0.18-1.52c0-0.54,0.09-1.16,0.18-1.61c0.09-0.45,0.36-0.89,0.63-1.25c0.27-0.36,0.63-0.63,1.07-0.8 c0.45-0.18,0.89-0.27,1.43-0.27c0.71,0,1.34,0.18,1.79,0.45s0.8,0.71,0.98,1.25l-0.98,0.45c-0.18-0.36-0.36-0.71-0.63-0.89 s-0.71-0.18-1.16-0.18c-0.36,0-0.63,0.09-0.89,0.18c-0.27,0.09-0.45,0.27-0.63,0.45s-0.27,0.45-0.36,0.71 c-0.09,0.27-0.09,0.54-0.09,0.89v1.25c0,0.63,0.18,1.16,0.54,1.61s0.89,0.63,1.52,0.63c0.89,0,1.61-0.45,1.97-1.25l0.8,0.54 c-0.27,0.54-0.63,0.98-1.07,1.25S57.95,18.23,57.23,18.23z"></path> <path class="st0" d="M63.31,11.71h-2.5v-1.07h6.17v0.98h-2.5v6.34h-1.16L63.31,11.71L63.31,11.71z"></path> <path class="st0" d="M71.08,18.23c-0.54,0-0.98-0.09-1.34-0.27c-0.36-0.18-0.71-0.45-1.07-0.8c-0.27-0.36-0.54-0.71-0.71-1.25 c-0.18-0.54-0.27-0.98-0.27-1.61c0-0.54,0.09-1.07,0.27-1.61c0.18-0.54,0.36-0.89,0.71-1.25c0.36-0.36,0.63-0.63,1.07-0.8 c0.36-0.18,0.89-0.27,1.34-0.27c0.54,0,0.98,0.09,1.34,0.27s0.71,0.45,0.98,0.71c0.27,0.27,0.54,0.71,0.63,1.16 c0.18,0.45,0.18,0.89,0.18,1.43v0.54h-5.27v0.36c0,0.36,0.09,0.63,0.18,0.89c0.09,0.27,0.27,0.54,0.45,0.71 c0.18,0.18,0.45,0.36,0.71,0.45c0.27,0.09,0.63,0.18,0.89,0.18c0.45,0,0.89-0.09,1.25-0.36s0.63-0.54,0.8-0.98l0.8,0.63 c-0.27,0.54-0.63,0.89-1.07,1.25C72.33,18.05,71.71,18.23,71.08,18.23z M71.08,11.44c-0.27,0-0.63,0.09-0.89,0.18 c-0.27,0.09-0.45,0.27-0.63,0.45s-0.36,0.45-0.45,0.71c-0.09,0.27-0.18,0.54-0.18,0.89v0.09h4.11v-0.18 c0-0.63-0.18-1.16-0.54-1.61C72.15,11.62,71.62,11.44,71.08,11.44z"></path> <path class="st0" d="M76.08,10.63h3.75c0.63,0,1.07,0.18,1.43,0.54c0.36,0.36,0.54,0.8,0.54,1.34c0,0.89-0.45,1.43-1.43,1.52v0.09 c0.54,0.09,0.98,0.18,1.25,0.54c0.27,0.36,0.45,0.71,0.45,1.16c0,0.27-0.09,0.54-0.18,0.8c-0.09,0.27-0.18,0.54-0.36,0.71 c-0.18,0.18-0.36,0.36-0.63,0.45c-0.27,0.09-0.54,0.18-0.8,0.18h-3.93C76.08,18.05,76.08,10.63,76.08,10.63z M79.57,13.76 c0.27,0,0.54-0.09,0.71-0.27c0.18-0.18,0.27-0.36,0.27-0.71v-0.36c0-0.27-0.09-0.54-0.27-0.71c-0.18-0.18-0.45-0.27-0.71-0.27 h-2.23v2.14L79.57,13.76L79.57,13.76z M79.66,17.07c0.36,0,0.63-0.09,0.8-0.27c0.18-0.18,0.27-0.45,0.27-0.8v-0.36 c0-0.36-0.09-0.63-0.27-0.8c-0.18-0.18-0.45-0.27-0.8-0.27h-2.41v2.41L79.66,17.07L79.66,17.07z"></path> <path class="st0" d="M89.4,18.05c-0.45,0-0.71-0.09-0.89-0.36s-0.27-0.54-0.36-0.89h-0.09c-0.18,0.45-0.45,0.8-0.8,0.98 c-0.36,0.27-0.8,0.36-1.34,0.36c-0.8,0-1.43-0.18-1.79-0.63c-0.36-0.45-0.71-0.89-0.71-1.52c0-0.71,0.27-1.25,0.8-1.61 s1.34-0.54,2.41-0.54h1.43v-0.71c0-0.54-0.18-0.89-0.45-1.16c-0.27-0.27-0.71-0.45-1.34-0.45c-0.45,0-0.8,0.09-1.16,0.27 c-0.27,0.18-0.54,0.45-0.71,0.8l-0.71-0.63c0.18-0.36,0.54-0.71,0.98-0.98c0.45-0.27,0.98-0.45,1.61-0.45 c0.89,0,1.61,0.18,2.06,0.63c0.54,0.45,0.71,1.07,0.71,1.79v4.02h0.8v0.98L89.4,18.05L89.4,18.05z M86.09,17.25 c0.27,0,0.54,0,0.8-0.09c0.27-0.09,0.45-0.18,0.63-0.27s0.27-0.27,0.36-0.45c0.09-0.18,0.18-0.36,0.18-0.54v-1.25h-1.52 c-0.63,0-1.16,0.09-1.43,0.27s-0.45,0.45-0.45,0.8v0.27c0,0.36,0.18,0.63,0.36,0.8S85.64,17.25,86.09,17.25z"></path> <path class="st0" d="M91.01,16.98h0.8l0.45-1.07c0.09-0.27,0.27-0.45,0.36-0.54c0.18-0.09,0.36-0.18,0.54-0.27l0,0 c-0.63-0.09-1.16-0.27-1.52-0.63c-0.36-0.36-0.54-0.89-0.54-1.52c0-0.71,0.18-1.25,0.63-1.7c0.45-0.45,0.98-0.63,1.79-0.63h3.31 v7.33h-1.16V15.1h-1.88l-0.8,1.79c-0.18,0.45-0.36,0.71-0.54,0.8s-0.45,0.18-0.71,0.18h-0.8L91.01,16.98L91.01,16.98z M95.74,14.21v-2.59h-1.97c-0.45,0-0.71,0.09-0.98,0.27c-0.27,0.18-0.36,0.45-0.36,0.8v0.45c0,0.36,0.09,0.63,0.36,0.8 c0.27,0.18,0.54,0.27,0.98,0.27H95.74z"></path> <path class="st0" d="M102.71,10.63h5.72v7.33h-1.16v-6.34h-3.48v6.34h-1.16v-7.33H102.71z"></path> <path class="st0" d="M116.2,18.05c-0.45,0-0.71-0.09-0.89-0.36s-0.27-0.54-0.36-0.89h-0.09c-0.18,0.45-0.45,0.8-0.8,0.98 c-0.36,0.27-0.8,0.36-1.34,0.36c-0.8,0-1.43-0.18-1.79-0.63c-0.36-0.45-0.63-0.98-0.63-1.61c0-0.71,0.27-1.25,0.8-1.61 c0.54-0.36,1.34-0.54,2.41-0.54h1.43v-0.71c0-0.54-0.18-0.89-0.45-1.16c-0.27-0.27-0.71-0.45-1.34-0.45 c-0.45,0-0.8,0.09-1.16,0.27c-0.27,0.18-0.54,0.45-0.71,0.8l-0.71-0.63c0.18-0.36,0.54-0.71,0.98-0.98 c0.45-0.27,0.98-0.45,1.61-0.45c0.89,0,1.61,0.18,2.06,0.63c0.54,0.45,0.71,1.07,0.71,1.79v4.02h0.8v0.98L116.2,18.05L116.2,18.05 z M112.99,17.25c0.27,0,0.54,0,0.8-0.09c0.27-0.09,0.45-0.18,0.63-0.27s0.27-0.27,0.36-0.45c0.09-0.18,0.18-0.36,0.18-0.54v-1.25 h-1.52c-0.63,0-1.16,0.09-1.43,0.27s-0.45,0.45-0.45,0.8v0.27c0,0.36,0.18,0.63,0.36,0.8C112.18,17.16,112.54,17.25,112.99,17.25z "></path> <path class="st0" d="M118.53,10.63h1.16v1.16h0.09c0.18-0.45,0.45-0.8,0.8-0.98c0.36-0.18,0.8-0.36,1.34-0.36 c0.45,0,0.89,0.09,1.25,0.27s0.71,0.45,0.98,0.8c0.27,0.36,0.45,0.71,0.63,1.25c0.18,0.54,0.18,0.98,0.18,1.61 c0,0.63-0.09,1.16-0.18,1.61c-0.09,0.45-0.36,0.89-0.63,1.25c-0.27,0.36-0.54,0.63-0.98,0.8c-0.36,0.18-0.8,0.27-1.25,0.27 c-0.98,0-1.7-0.45-2.14-1.34h-0.09V21h-1.16V10.63z M121.56,17.16c0.63,0,1.16-0.18,1.52-0.63s0.54-0.98,0.54-1.61v-1.25 c0-0.63-0.18-1.16-0.54-1.61c-0.36-0.45-0.89-0.63-1.52-0.63c-0.27,0-0.54,0-0.71,0.09c-0.18,0.09-0.45,0.18-0.63,0.27 s-0.27,0.27-0.45,0.45c-0.09,0.18-0.18,0.36-0.18,0.54v2.77c0,0.27,0.09,0.45,0.18,0.63c0.09,0.18,0.27,0.36,0.45,0.45 s0.36,0.18,0.63,0.27C121.03,17.16,121.3,17.16,121.56,17.16z"></path> <path class="st0" d="M126.84,10.63H128v3.04h1.43l1.43-2.23c0.09-0.18,0.18-0.36,0.27-0.45s0.18-0.18,0.27-0.27 c0.09-0.09,0.18-0.09,0.27-0.09s0.18,0,0.36,0h0.71v0.98h-0.89l-1.16,1.79c-0.09,0.09-0.18,0.18-0.18,0.27 c0,0.09-0.09,0.18-0.18,0.18c-0.09,0.09-0.09,0.09-0.18,0.09c-0.09,0-0.18,0.09-0.27,0.09v0.18c0.18,0,0.36,0.09,0.54,0.18 c0.18,0.09,0.27,0.27,0.45,0.54l1.16,1.97h0.8v0.98h-0.8c-0.27,0-0.45-0.09-0.71-0.18c-0.18-0.09-0.36-0.36-0.63-0.71l-1.34-2.41 h-1.43v3.31h-1.16L126.84,10.63L126.84,10.63z"></path> <path class="st0" d="M137.2,18.23c-0.54,0-0.98-0.09-1.34-0.27c-0.45-0.18-0.8-0.45-1.07-0.8c-0.27-0.36-0.54-0.71-0.71-1.25 c-0.18-0.54-0.27-0.98-0.27-1.61c0-0.54,0.09-1.07,0.27-1.61c0.18-0.54,0.36-0.89,0.71-1.25c0.36-0.36,0.63-0.63,1.07-0.8 s0.89-0.27,1.34-0.27c0.54,0,0.98,0.09,1.34,0.27s0.8,0.45,1.07,0.8c0.27,0.36,0.54,0.71,0.71,1.25c0.18,0.45,0.27,0.98,0.27,1.61 c0,0.63-0.09,1.16-0.27,1.61c-0.18,0.45-0.36,0.89-0.71,1.25c-0.36,0.36-0.63,0.63-1.07,0.8 C138.18,18.14,137.74,18.23,137.2,18.23z M137.2,17.16c0.63,0,1.16-0.18,1.52-0.54s0.63-0.98,0.63-1.7v-1.07 c0-0.8-0.18-1.34-0.63-1.7s-0.89-0.54-1.52-0.54c-0.63,0-1.16,0.18-1.52,0.54c-0.36,0.36-0.63,0.98-0.63,1.7v1.07 c0,0.8,0.18,1.34,0.63,1.7C136.04,16.98,136.58,17.16,137.2,17.16z"></path> <path class="st0" d="M142.47,10.63h3.75c0.63,0,1.07,0.18,1.43,0.54c0.36,0.36,0.54,0.8,0.54,1.34c0,0.89-0.45,1.43-1.43,1.52 v0.09c0.54,0.09,0.98,0.18,1.25,0.54c0.27,0.36,0.45,0.71,0.45,1.16c0,0.27-0.09,0.54-0.09,0.8c-0.09,0.27-0.18,0.54-0.36,0.71 c-0.18,0.18-0.36,0.36-0.63,0.45c-0.27,0.09-0.54,0.18-0.8,0.18h-3.93L142.47,10.63L142.47,10.63z M145.87,13.76 c0.36,0,0.54-0.09,0.71-0.27c0.18-0.18,0.27-0.36,0.27-0.71v-0.36c0-0.27-0.09-0.54-0.27-0.71c-0.18-0.18-0.45-0.27-0.71-0.27 h-2.23v2.14L145.87,13.76L145.87,13.76z M145.96,17.07c0.36,0,0.63-0.09,0.8-0.27c0.18-0.18,0.27-0.45,0.27-0.8v-0.36 c0-0.36-0.09-0.63-0.27-0.8c-0.18-0.18-0.45-0.27-0.8-0.27h-2.41v2.41L145.96,17.07L145.96,17.07z"></path> <path class="st0" d="M150.43,10.63h1.16v3.04h1.43l1.43-2.23c0.09-0.18,0.18-0.36,0.27-0.45c0.09-0.09,0.18-0.18,0.27-0.27 s0.18-0.09,0.27-0.09s0.18,0,0.36,0h0.71v0.98h-0.89l-1.16,1.79c-0.09,0.09-0.18,0.18-0.18,0.27c0,0.09-0.09,0.18-0.18,0.18 c-0.09,0.09-0.09,0.09-0.18,0.09c-0.09,0-0.18,0.09-0.27,0.09v0.18c0.18,0,0.36,0.09,0.54,0.18c0.18,0.09,0.27,0.27,0.45,0.54 l1.16,1.97h0.8v0.98h-0.8c-0.27,0-0.45-0.09-0.71-0.18c-0.18-0.09-0.36-0.36-0.63-0.71l-1.34-2.41h-1.43v3.31h-1.07V10.63 L150.43,10.63z"></path> <path class="st0" d="M163.47,18.05c-0.45,0-0.71-0.09-0.89-0.36c-0.18-0.27-0.27-0.54-0.36-0.89h-0.09 c-0.18,0.45-0.45,0.8-0.8,0.98c-0.36,0.27-0.8,0.36-1.34,0.36c-0.8,0-1.43-0.18-1.79-0.63c-0.45-0.45-0.63-0.98-0.63-1.61 c0-0.71,0.27-1.25,0.8-1.61c0.54-0.36,1.34-0.54,2.41-0.54h1.43v-0.71c0-0.54-0.18-0.89-0.45-1.16c-0.27-0.27-0.71-0.45-1.34-0.45 c-0.45,0-0.8,0.09-1.16,0.27c-0.27,0.18-0.54,0.45-0.71,0.8l-0.71-0.63c0.18-0.36,0.54-0.71,0.98-0.98s0.98-0.45,1.7-0.45 c0.89,0,1.61,0.18,2.06,0.63c0.54,0.45,0.71,1.07,0.71,1.79v4.02h0.8v0.98L163.47,18.05L163.47,18.05z M160.17,17.25 c0.27,0,0.54,0,0.8-0.09s0.45-0.18,0.63-0.27c0.18-0.09,0.27-0.27,0.36-0.45c0.09-0.18,0.18-0.36,0.18-0.54v-1.25h-1.52 c-0.63,0-1.16,0.09-1.43,0.27s-0.45,0.45-0.45,0.8v0.27c0,0.36,0.09,0.63,0.36,0.8C159.36,17.16,159.72,17.25,160.17,17.25z"></path> </g> <g> <rect y="34.67" class="st0" width="24.3" height="24.3"></rect> <g> <path class="st1" d="M15.64,51.02H8.76v-1.79l3.13-2.77c0.54-0.45,0.89-0.89,1.16-1.25c0.27-0.36,0.36-0.8,0.36-1.25v-0.18 c0-0.45-0.18-0.8-0.45-0.98c-0.27-0.27-0.63-0.36-1.07-0.36c-0.54,0-0.89,0.18-1.16,0.45c-0.27,0.27-0.45,0.63-0.54,1.07 l-1.61-0.63c0.09-0.36,0.27-0.63,0.45-0.98c0.18-0.27,0.45-0.54,0.71-0.8c0.27-0.27,0.63-0.45,0.98-0.54 c0.36-0.18,0.8-0.18,1.34-0.18c0.54,0,0.98,0.09,1.43,0.18c0.45,0.09,0.71,0.36,1.07,0.63c0.27,0.27,0.45,0.63,0.63,0.98 s0.18,0.71,0.18,1.16s-0.09,0.8-0.18,1.16s-0.36,0.71-0.54,0.98s-0.54,0.63-0.8,0.89c-0.27,0.27-0.63,0.54-0.98,0.89l-2.14,1.7 h4.91C15.73,49.5,15.73,51.02,15.64,51.02z"></path> </g> </g> <g> <path class="st0" d="M48.74,42.62L48.74,42.62l-0.89,1.7l-2.41,4.38l-2.41-4.38l-0.89-1.7h-0.09v8.4h-1.16V41.01h1.61l2.86,5.36 h0.09l2.86-5.36h1.52v10.01h-1.16C48.74,51.02,48.74,42.62,48.74,42.62z"></path> <path class="st0" d="M57.86,51.02c-0.45,0-0.71-0.09-0.89-0.36s-0.27-0.54-0.36-0.89h-0.09c-0.18,0.45-0.45,0.8-0.8,1.07 c-0.36,0.27-0.8,0.36-1.34,0.36c-0.8,0-1.34-0.18-1.79-0.63s-0.63-0.98-0.63-1.61c0-0.71,0.27-1.25,0.8-1.61 c0.54-0.36,1.34-0.54,2.41-0.54h1.43v-0.71c0-0.54-0.18-0.89-0.45-1.16c-0.27-0.27-0.71-0.45-1.34-0.45 c-0.45,0-0.8,0.09-1.16,0.27c-0.27,0.18-0.54,0.45-0.71,0.8l-0.71-0.63c0.18-0.45,0.54-0.71,0.98-0.98s0.98-0.45,1.61-0.45 c0.89,0,1.61,0.18,2.06,0.63c0.54,0.45,0.71,1.07,0.71,1.79v4.02h0.89v0.98L57.86,51.02L57.86,51.02z M54.55,50.22 c0.27,0,0.54,0,0.8-0.09c0.27-0.09,0.45-0.18,0.63-0.27s0.27-0.27,0.36-0.45s0.18-0.36,0.18-0.54v-1.25H55 c-0.63,0-1.16,0.09-1.43,0.27s-0.45,0.54-0.45,0.89v0.27c0,0.36,0.18,0.63,0.36,0.8C53.75,50.13,54.1,50.22,54.55,50.22z"></path> <path class="st0" d="M60.09,43.69h4.65v0.98h-3.48v6.34h-1.16C60.09,51.02,60.09,43.69,60.09,43.69z"></path> <path class="st0" d="M71.44,51.02c-0.45,0-0.71-0.09-0.89-0.36s-0.27-0.54-0.36-0.89H70.1c-0.18,0.45-0.45,0.8-0.8,1.07 s-0.8,0.36-1.34,0.36c-0.8,0-1.43-0.18-1.79-0.63c-0.45-0.45-0.63-0.98-0.63-1.61c0-0.71,0.27-1.25,0.8-1.61s1.34-0.54,2.41-0.54 h1.34v-0.71c0-0.54-0.18-0.89-0.45-1.16c-0.27-0.27-0.71-0.45-1.34-0.45c-0.45,0-0.8,0.09-1.16,0.27 c-0.27,0.18-0.54,0.45-0.71,0.8l-0.71-0.63c0.18-0.45,0.54-0.71,0.98-0.98c0.45-0.27,0.98-0.45,1.61-0.45 c0.89,0,1.61,0.18,2.06,0.63c0.54,0.45,0.71,1.07,0.71,1.79v4.02h0.8v0.98L71.44,51.02L71.44,51.02z M68.13,50.22 c0.27,0,0.54,0,0.8-0.09c0.27-0.09,0.45-0.18,0.63-0.27s0.27-0.27,0.36-0.45c0.09-0.18,0.18-0.36,0.18-0.54v-1.25h-1.52 c-0.63,0-1.16,0.09-1.43,0.27c-0.27,0.18-0.45,0.45-0.45,0.8v0.36c0,0.36,0.18,0.63,0.36,0.8C67.33,50.13,67.68,50.22,68.13,50.22 z"></path> <path class="st0" d="M75.82,51.2c-0.71,0-1.34-0.09-1.79-0.36c-0.45-0.27-0.8-0.63-1.07-1.07l0.89-0.71 c0.18,0.36,0.45,0.63,0.8,0.89s0.71,0.27,1.25,0.27c0.63,0,1.07-0.09,1.34-0.36c0.27-0.27,0.45-0.54,0.45-0.8v-0.18 c0-0.36-0.09-0.63-0.36-0.89c-0.27-0.27-0.63-0.27-1.07-0.27h-1.7v-0.98h1.43c0.45,0,0.8-0.09,1.07-0.27 c0.27-0.18,0.36-0.45,0.36-0.8v-0.18c0-0.27-0.09-0.54-0.36-0.71s-0.71-0.27-1.25-0.27c-0.45,0-0.89,0.09-1.16,0.27 c-0.27,0.18-0.54,0.45-0.71,0.8l-0.71-0.63c0.27-0.45,0.54-0.8,0.98-1.07c0.45-0.27,1.07-0.45,1.79-0.45 c0.98,0,1.7,0.18,2.14,0.54s0.71,0.8,0.71,1.43c0,0.45-0.09,0.8-0.36,1.07c-0.27,0.27-0.63,0.45-1.07,0.54v0.09 c0.54,0.09,0.89,0.27,1.16,0.54c0.27,0.27,0.36,0.71,0.36,1.16c0,0.71-0.27,1.25-0.8,1.7C77.51,51.02,76.71,51.2,75.82,51.2z"></path> <path class="st0" d="M80.91,43.69h1.07v4.11l-0.09,1.79h0.09l0.89-1.61l2.95-4.29h1.07v7.33h-1.07v-4.11l0.09-1.79h-0.09 l-0.89,1.61l-2.95,4.29h-1.07V43.69z"></path> <path class="st0" d="M89.31,43.69h1.16v3.04h3.66v-3.04h1.16v7.33h-1.16v-3.31h-3.66v3.31h-1.16V43.69z"></path> </g> <g> <rect y="67.73" class="st0" width="24.3" height="24.3"></rect> <g> <path class="st1" d="M11.62,78.09c0.54,0,0.98-0.09,1.25-0.36c0.27-0.27,0.45-0.54,0.45-0.89v-0.09c0-0.45-0.09-0.71-0.36-0.98 c-0.27-0.27-0.63-0.36-1.07-0.36c-0.45,0-0.8,0.09-1.16,0.27c-0.36,0.18-0.63,0.54-0.89,0.89L8.58,75.5 c0.18-0.27,0.36-0.45,0.54-0.63c0.18-0.18,0.45-0.36,0.71-0.54s0.54-0.27,0.89-0.36c0.36-0.09,0.71-0.09,1.16-0.09 c0.54,0,0.98,0.09,1.34,0.18c0.36,0.09,0.8,0.27,1.07,0.54c0.27,0.27,0.54,0.54,0.71,0.8c0.18,0.36,0.27,0.71,0.27,1.07 c0,0.36-0.09,0.63-0.18,0.89c-0.09,0.27-0.27,0.45-0.45,0.71c-0.18,0.27-0.36,0.36-0.63,0.45c-0.27,0.09-0.45,0.18-0.71,0.27 v0.09c0.27,0.09,0.54,0.18,0.8,0.27c0.27,0.09,0.45,0.27,0.63,0.54c0.18,0.18,0.36,0.45,0.45,0.71s0.18,0.63,0.18,0.98 c0,0.45-0.09,0.8-0.27,1.16s-0.45,0.71-0.71,0.89c-0.36,0.27-0.71,0.45-1.16,0.63c-0.45,0.18-0.98,0.18-1.52,0.18 c-0.45,0-0.89-0.09-1.25-0.18c-0.36-0.09-0.71-0.27-0.98-0.45c-0.27-0.18-0.54-0.36-0.71-0.63c-0.18-0.27-0.36-0.45-0.54-0.71 l1.43-1.07c0.09,0.18,0.27,0.36,0.36,0.54s0.27,0.27,0.45,0.45c0.18,0.18,0.36,0.18,0.63,0.27c0.27,0.09,0.45,0.09,0.71,0.09 c0.54,0,0.98-0.18,1.25-0.36c0.27-0.27,0.45-0.63,0.45-1.07v-0.09c0-0.45-0.18-0.8-0.45-1.07c-0.27-0.27-0.8-0.36-1.34-0.36 h-0.98v-1.61L11.62,78.09L11.62,78.09z"></path> </g> </g> <g> <path class="st0" d="M40.88,74.07h7.24v10.01h-1.16v-8.94h-4.83v8.94h-1.16L40.88,74.07L40.88,74.07z"></path> <path class="st0" d="M53.48,84.17c-0.45,0-0.98-0.09-1.34-0.27c-0.45-0.18-0.71-0.45-1.07-0.8s-0.54-0.71-0.71-1.25 s-0.27-0.98-0.27-1.61c0-0.63,0.09-1.07,0.27-1.61c0.18-0.54,0.36-0.89,0.71-1.25c0.27-0.36,0.63-0.63,1.07-0.8 c0.45-0.18,0.89-0.27,1.34-0.27s0.98,0.09,1.34,0.27c0.45,0.18,0.71,0.45,1.07,0.8c0.27,0.36,0.54,0.71,0.71,1.25 c0.18,0.45,0.27,0.98,0.27,1.61s-0.09,1.16-0.27,1.61c-0.18,0.45-0.36,0.89-0.71,1.25c-0.27,0.36-0.63,0.63-1.07,0.8 S53.92,84.17,53.48,84.17z M53.48,83.19c0.63,0,1.16-0.18,1.52-0.54s0.63-0.98,0.63-1.7v-1.07c0-0.8-0.18-1.34-0.63-1.7 s-0.89-0.54-1.52-0.54s-1.16,0.18-1.52,0.54c-0.36,0.36-0.63,0.98-0.63,1.7v1.07c0,0.8,0.18,1.34,0.63,1.7 C52.41,83.01,52.85,83.19,53.48,83.19z"></path> <path class="st0" d="M61.43,84.17c-0.54,0-0.98-0.09-1.43-0.27c-0.45-0.18-0.71-0.45-1.07-0.8c-0.27-0.36-0.54-0.71-0.63-1.25 s-0.18-0.98-0.18-1.61c0-0.63,0.09-1.16,0.18-1.61c0.09-0.45,0.36-0.89,0.63-1.25c0.27-0.36,0.63-0.63,1.07-0.8 c0.45-0.18,0.89-0.27,1.43-0.27c0.71,0,1.34,0.18,1.79,0.45c0.45,0.27,0.8,0.71,0.98,1.25l-0.98,0.45 c-0.18-0.36-0.36-0.71-0.63-0.89c-0.27-0.18-0.71-0.27-1.16-0.27c-0.36,0-0.63,0.09-0.89,0.18c-0.27,0.09-0.45,0.27-0.63,0.45 c-0.18,0.18-0.27,0.45-0.36,0.71c-0.09,0.27-0.09,0.54-0.09,0.89v1.25c0,0.63,0.18,1.16,0.54,1.61c0.36,0.45,0.89,0.63,1.52,0.63 c0.89,0,1.61-0.45,1.97-1.25l0.8,0.54c-0.27,0.54-0.63,0.98-1.07,1.25C62.77,83.81,62.15,84.17,61.43,84.17z"></path> <path class="st0" d="M67.51,77.65H65v-0.98h6.17v0.98h-2.5v6.34h-1.16L67.51,77.65L67.51,77.65z"></path> <path class="st0" d="M78.85,84.17c-0.54,0-0.98-0.09-1.34-0.27c-0.45-0.18-0.71-0.45-1.07-0.8s-0.54-0.71-0.71-1.25 s-0.27-0.98-0.27-1.61c0-0.63,0.09-1.07,0.27-1.61c0.18-0.54,0.36-0.89,0.71-1.25c0.27-0.36,0.63-0.63,1.07-0.8 c0.45-0.18,0.89-0.27,1.34-0.27c0.54,0,0.98,0.09,1.34,0.27c0.36,0.18,0.71,0.45,1.07,0.8c0.27,0.36,0.54,0.71,0.71,1.25 c0.18,0.45,0.27,0.98,0.27,1.61s-0.09,1.16-0.27,1.61c-0.18,0.45-0.36,0.89-0.71,1.25c-0.27,0.36-0.63,0.63-1.07,0.8 C79.75,84.08,79.3,84.17,78.85,84.17z M78.85,83.19c0.63,0,1.16-0.18,1.52-0.54S81,81.67,81,80.95v-1.07c0-0.8-0.18-1.34-0.63-1.7 c-0.45-0.36-0.89-0.54-1.52-0.54c-0.63,0-1.16,0.18-1.52,0.54c-0.36,0.36-0.63,0.98-0.63,1.7v1.07c0,0.8,0.18,1.34,0.63,1.7 C77.78,83.01,78.23,83.19,78.85,83.19z"></path> <path class="st0" d="M82.96,83.99l2.77-3.75l-2.59-3.66h1.34l1.88,2.77h0.09l1.97-2.77h1.25l-2.59,3.57l2.68,3.75h-1.34 l-1.88-2.86h-0.09l-2.06,2.86L82.96,83.99L82.96,83.99z"></path> <path class="st0" d="M91.1,76.66h1.16v1.16h0.09c0.18-0.45,0.45-0.8,0.8-1.07c0.36-0.18,0.8-0.36,1.34-0.36 c0.45,0,0.89,0.09,1.25,0.27c0.36,0.18,0.71,0.45,0.98,0.8c0.27,0.36,0.45,0.71,0.63,1.25s0.18,0.98,0.18,1.61 c0,0.63-0.09,1.16-0.18,1.61c-0.09,0.45-0.36,0.89-0.63,1.25c-0.27,0.36-0.63,0.63-0.98,0.8c-0.36,0.18-0.8,0.27-1.25,0.27 c-0.98,0-1.7-0.45-2.14-1.34h-0.09v4.02H91.1C91.1,86.85,91.1,76.66,91.1,76.66z M94.13,83.19c0.63,0,1.16-0.18,1.52-0.63 c0.36-0.45,0.54-0.98,0.54-1.61V79.7c0-0.63-0.18-1.16-0.54-1.61c-0.36-0.45-0.89-0.63-1.52-0.63c-0.27,0-0.54,0-0.71,0.09 c-0.18,0.09-0.45,0.18-0.63,0.27c-0.18,0.09-0.27,0.27-0.45,0.45c-0.09,0.18-0.18,0.36-0.18,0.54v2.77c0,0.27,0.09,0.45,0.18,0.63 c0.09,0.18,0.27,0.36,0.45,0.45c0.18,0.09,0.36,0.18,0.63,0.27C93.69,83.19,93.95,83.19,94.13,83.19z"></path> <path class="st0" d="M104.77,83.99c-0.45,0-0.71-0.09-0.89-0.36c-0.18-0.27-0.27-0.54-0.36-0.89h-0.09 c-0.18,0.45-0.45,0.8-0.8,1.07c-0.36,0.27-0.8,0.36-1.34,0.36c-0.8,0-1.43-0.18-1.79-0.63c-0.36-0.45-0.63-0.98-0.63-1.61 c0-0.71,0.27-1.25,0.8-1.61s1.34-0.54,2.41-0.54h1.43v-0.71c0-0.54-0.18-0.89-0.45-1.16c-0.27-0.27-0.71-0.45-1.34-0.45 c-0.45,0-0.8,0.09-1.16,0.27c-0.27,0.18-0.54,0.45-0.71,0.8l-0.71-0.63c0.18-0.36,0.54-0.71,0.98-0.98s0.98-0.45,1.61-0.45 c0.89,0,1.61,0.18,2.06,0.63c0.54,0.45,0.71,1.07,0.71,1.79v4.11h0.8v0.98H104.77z M101.46,83.19c0.27,0,0.54,0,0.8-0.09 c0.27-0.09,0.45-0.18,0.63-0.27c0.18-0.09,0.27-0.27,0.36-0.45c0.09-0.18,0.18-0.36,0.18-0.54V80.6h-1.52 c-0.63,0-1.16,0.09-1.43,0.27c-0.27,0.18-0.45,0.45-0.45,0.8v0.45c0,0.36,0.18,0.63,0.36,0.8 C100.66,83.1,101.01,83.19,101.46,83.19z"></path> <path class="st0" d="M107,76.66h1.16v3.04h3.66v-3.04h1.16v7.33h-1.16v-3.31h-3.66v3.31H107C107.09,83.99,107.09,76.66,107,76.66z "></path> <path class="st0" d="M115.49,76.66h1.16v2.68h1.97c0.71,0,1.34,0.18,1.79,0.63c0.45,0.45,0.63,0.98,0.63,1.7s-0.18,1.34-0.63,1.7 c-0.45,0.36-0.98,0.63-1.79,0.63h-3.13V76.66z M118.35,83.01c0.45,0,0.8-0.09,0.98-0.27c0.27-0.18,0.36-0.45,0.36-0.8v-0.63 c0-0.36-0.09-0.63-0.36-0.8c-0.27-0.18-0.54-0.27-0.98-0.27h-1.79v2.68h1.79V83.01z M122.19,76.66h1.16v7.33h-1.16V76.66z"></path> </g> <g> <rect y="100.7" class="st0" width="24.3" height="24.3"></rect> <g> <path class="st1" d="M12.87,117.05v-1.97H8.31v-1.61l3.93-6.43h2.32v6.61h1.34v1.52h-1.34v1.97h-1.7L12.87,117.05z M9.92,113.66 h2.95v-4.74h-0.09L9.92,113.66z"></path> </g> </g> <g> <path class="st0" d="M45.17,108.12v8.94h-1.16v-8.94h-3.13v-1.07h7.51v1.07C48.38,108.12,45.17,108.12,45.17,108.12z"></path> <path class="st0" d="M49.99,107.05h6.08v1.07h-4.91v2.95h2.95c0.89,0,1.61,0.27,2.06,0.8c0.45,0.54,0.71,1.25,0.71,2.23 c0,0.98-0.27,1.7-0.71,2.23c-0.45,0.54-1.16,0.8-2.06,0.8h-4.2C49.99,117.05,49.99,107.05,49.99,107.05z M54.1,115.98 c0.45,0,0.89-0.09,1.07-0.36c0.18-0.27,0.36-0.63,0.36-1.16v-0.71c0-0.54-0.18-0.89-0.36-1.16c-0.27-0.27-0.63-0.36-1.07-0.36 h-2.95v3.84L54.1,115.98L54.1,115.98z"></path> <path class="st0" d="M62.77,117.23c-0.63,0-1.25-0.09-1.79-0.36c-0.54-0.27-0.98-0.54-1.34-0.98s-0.63-0.98-0.8-1.61 c-0.18-0.63-0.27-1.43-0.27-2.23c0-0.8,0.09-1.61,0.27-2.23c0.18-0.63,0.45-1.16,0.8-1.61c0.36-0.45,0.8-0.8,1.34-0.98 s1.07-0.36,1.79-0.36c0.63,0,1.25,0.09,1.7,0.36c0.45,0.27,0.98,0.54,1.34,0.98c0.36,0.45,0.63,0.98,0.8,1.61 c0.18,0.63,0.27,1.34,0.27,2.23c0,0.89-0.09,1.61-0.27,2.23c-0.18,0.63-0.45,1.16-0.8,1.61c-0.36,0.45-0.8,0.71-1.34,0.98 C63.93,117.14,63.4,117.23,62.77,117.23z M62.77,116.16c0.45,0,0.8-0.09,1.16-0.27c0.36-0.18,0.71-0.36,0.98-0.63 s0.45-0.63,0.63-1.07c0.18-0.36,0.18-0.8,0.18-1.34v-1.7c0-0.54-0.09-0.98-0.18-1.34c-0.09-0.36-0.36-0.71-0.63-1.07 c-0.27-0.27-0.54-0.54-0.98-0.63c-0.45-0.09-0.71-0.27-1.16-0.27s-0.8,0.09-1.16,0.27c-0.36,0.18-0.71,0.36-0.98,0.63 c-0.27,0.27-0.45,0.63-0.63,1.07c-0.18,0.36-0.18,0.8-0.18,1.34v1.7c0,0.54,0.09,0.98,0.18,1.34c0.18,0.36,0.36,0.71,0.63,1.07 c0.27,0.27,0.54,0.54,0.98,0.63C61.97,116.07,62.32,116.16,62.77,116.16z"></path> </g> <g> <rect x="260.15" y="67.73" class="st0" width="24.3" height="24.21"></rect> <g> <path class="st1" d="M270.42,83.93l3.48-8.37h-3.48v1.87h-1.61v-3.38h6.88v1.6l-3.4,8.37L270.42,83.93L270.42,83.93z"></path> </g> </g> <g> <path class="st0" d="M301.13,82.92h1.07c0.45-0.63,0.8-1.43,0.98-2.32c0.27-0.98,0.36-2.14,0.36-3.66v-2.86h5.99v8.94h1.43v3.22 h-1.07v-2.14h-7.6v2.14h-1.07v-3.31H301.13z M308.28,82.92v-7.86h-3.66v1.97c0,1.52-0.09,2.77-0.27,3.66 c-0.18,0.89-0.45,1.61-0.8,2.14v0.09L308.28,82.92L308.28,82.92z"></path> <path class="st0" d="M315.25,84.17c-0.54,0-0.98-0.09-1.34-0.27c-0.45-0.18-0.71-0.45-1.07-0.8c-0.27-0.36-0.54-0.71-0.71-1.25 c-0.18-0.54-0.18-0.89-0.18-1.52c0-0.63,0.09-1.07,0.27-1.61c0.18-0.54,0.36-0.89,0.71-1.25c0.27-0.36,0.63-0.63,1.07-0.8 s0.89-0.27,1.34-0.27c0.45,0,0.89,0.09,1.34,0.27c0.36,0.18,0.71,0.45,0.98,0.71c0.27,0.27,0.45,0.71,0.63,1.16 c0.18,0.45,0.18,0.89,0.18,1.43v0.54h-5.27v0.36c0,0.27,0.09,0.63,0.18,0.89c0.09,0.27,0.27,0.54,0.45,0.71 c0.18,0.18,0.45,0.36,0.71,0.45c0.27,0.09,0.54,0.18,0.89,0.18c0.45,0,0.89-0.09,1.25-0.36c0.36-0.18,0.63-0.54,0.8-0.98l0.8,0.63 c-0.27,0.54-0.63,0.89-1.07,1.25C316.59,84.08,315.97,84.17,315.25,84.17z M315.25,77.47c-0.36,0-0.63,0.09-0.89,0.18 c-0.27,0.09-0.45,0.27-0.63,0.45c-0.18,0.18-0.36,0.45-0.45,0.71c-0.09,0.27-0.18,0.54-0.18,0.89v0.09h4.11v-0.18 c0-0.63-0.18-1.16-0.54-1.61C316.32,77.65,315.88,77.47,315.25,77.47z"></path> <path class="st0" d="M321.77,77.65h-2.5v-0.98h6.17v0.98h-2.5v6.34h-1.16V77.65L321.77,77.65z"></path> <path class="st0" d="M329.46,84.17c-0.54,0-0.98-0.09-1.34-0.27c-0.45-0.18-0.8-0.45-1.07-0.8s-0.45-0.71-0.63-1.25 s-0.18-0.98-0.18-1.61c0-0.63,0.09-1.16,0.18-1.61c0.09-0.45,0.36-0.89,0.63-1.25c0.27-0.36,0.63-0.63,1.07-0.8 c0.45-0.18,0.89-0.27,1.34-0.27c0.71,0,1.34,0.18,1.79,0.45c0.45,0.27,0.8,0.71,0.98,1.25l-0.98,0.45 c-0.09-0.36-0.36-0.71-0.63-0.89s-0.71-0.27-1.16-0.27c-0.36,0-0.63,0.09-0.89,0.18c-0.27,0.09-0.45,0.27-0.63,0.45 s-0.27,0.45-0.36,0.71c-0.09,0.27-0.09,0.54-0.09,0.89v1.25c0,0.63,0.18,1.16,0.54,1.61c0.36,0.45,0.89,0.63,1.52,0.63 c0.89,0,1.61-0.45,1.97-1.25l0.8,0.54c-0.27,0.54-0.63,0.98-1.07,1.25C330.8,83.81,330.17,84.17,329.46,84.17z"></path> <path class="st0" d="M333.93,76.66h1.16v3.04h1.43l1.43-2.23c0.09-0.18,0.18-0.27,0.27-0.45s0.18-0.18,0.27-0.27 c0.09-0.09,0.18-0.09,0.27-0.09s0.18,0,0.36,0h0.71v0.98h-0.89l-1.16,1.79c-0.09,0.09-0.18,0.18-0.18,0.27 c0,0.09-0.09,0.18-0.18,0.18c-0.09,0.09-0.09,0.09-0.18,0.09s-0.18,0.09-0.27,0.09v0.09c0.18,0,0.36,0.09,0.54,0.18 c0.18,0.09,0.27,0.27,0.45,0.54l1.16,1.97h0.8v0.98h-0.8c-0.27,0-0.45-0.09-0.71-0.18c-0.18-0.09-0.45-0.36-0.63-0.71l-1.34-2.41 H335v3.31h-1.16L333.93,76.66L333.93,76.66z"></path> <path class="st0" d="M346.97,83.99c-0.45,0-0.71-0.09-0.89-0.36c-0.18-0.27-0.27-0.54-0.36-0.89h-0.09 c-0.18,0.45-0.45,0.8-0.8,1.07c-0.36,0.27-0.8,0.36-1.34,0.36c-0.8,0-1.34-0.18-1.79-0.63c-0.45-0.36-0.63-0.98-0.63-1.61 c0-0.71,0.27-1.25,0.8-1.61s1.34-0.54,2.41-0.54h1.43v-0.71c0-0.54-0.18-0.89-0.45-1.16c-0.27-0.27-0.71-0.45-1.34-0.45 c-0.45,0-0.8,0.09-1.16,0.27c-0.27,0.18-0.54,0.45-0.71,0.8l-0.71-0.63c0.18-0.36,0.54-0.71,0.98-0.98 c0.45-0.27,0.98-0.45,1.7-0.45c0.89,0,1.61,0.18,2.06,0.63c0.45,0.45,0.71,1.07,0.71,1.79v4.11h0.8v0.98H346.97z M343.67,83.19 c0.27,0,0.54,0,0.8-0.09c0.27-0.09,0.45-0.18,0.63-0.27c0.18-0.09,0.27-0.27,0.45-0.45s0.18-0.36,0.18-0.54V80.6h-1.61 c-0.63,0-1.16,0.09-1.43,0.27c-0.27,0.18-0.45,0.45-0.45,0.8v0.45c0,0.36,0.09,0.63,0.36,0.8 C342.86,83.1,343.22,83.19,343.67,83.19z"></path> <path class="st0" d="M348.58,83.01h0.8l0.45-1.07c0.09-0.27,0.27-0.45,0.36-0.54c0.18-0.09,0.36-0.18,0.54-0.27v-0.09 c-0.63-0.09-1.16-0.27-1.52-0.63c-0.36-0.36-0.54-0.89-0.54-1.52c0-0.71,0.18-1.25,0.63-1.7c0.45-0.45,0.98-0.63,1.79-0.63h3.22 v7.33h-1.16v-2.68h-1.88l-0.8,1.79c-0.18,0.36-0.36,0.71-0.54,0.8c-0.18,0.09-0.45,0.18-0.71,0.18h-0.63V83.01z M353.32,80.24 v-2.59h-1.97c-0.45,0-0.8,0.09-0.98,0.27s-0.36,0.45-0.36,0.8v0.45c0,0.36,0.09,0.63,0.36,0.8c0.27,0.18,0.54,0.27,0.98,0.27 C351.35,80.24,353.32,80.24,353.32,80.24z"></path> <path class="st0" d="M360.29,76.66h5.81v7.33h-1.16v-6.34h-3.48v6.34h-1.16L360.29,76.66L360.29,76.66z"></path> <path class="st0" d="M367.34,83.01h0.98c0.09-0.18,0.27-0.36,0.36-0.63c0.09-0.27,0.18-0.54,0.27-0.89 c0.09-0.36,0.09-0.71,0.18-1.16c0-0.45,0.09-0.98,0.09-1.61v-2.06h5v7.33h-1.16v-6.34h-2.77v1.16c0,0.71,0,1.34-0.09,1.88 c-0.09,0.54-0.09,0.98-0.18,1.34s-0.18,0.71-0.36,0.98c-0.18,0.27-0.27,0.45-0.45,0.63c-0.18,0.18-0.36,0.27-0.63,0.36 c-0.18,0.09-0.45,0.09-0.8,0.09h-0.45V83.01z"></path> <path class="st0" d="M379.32,84.17c-0.45,0-0.98-0.09-1.34-0.27c-0.45-0.18-0.8-0.45-1.07-0.8c-0.27-0.36-0.54-0.71-0.71-1.25 c-0.18-0.54-0.27-0.98-0.27-1.61c0-0.63,0.09-1.07,0.27-1.61c0.18-0.54,0.36-0.89,0.71-1.25c0.27-0.36,0.63-0.63,1.07-0.8 c0.45-0.18,0.89-0.27,1.34-0.27c0.45,0,0.98,0.09,1.34,0.27c0.45,0.18,0.8,0.45,1.07,0.8c0.27,0.36,0.54,0.71,0.71,1.25 c0.18,0.45,0.27,0.98,0.27,1.61s-0.09,1.16-0.27,1.61c-0.18,0.45-0.36,0.89-0.71,1.25c-0.36,0.36-0.63,0.63-1.07,0.8 C380.3,84.08,379.85,84.17,379.32,84.17z M379.32,83.19c0.63,0,1.16-0.18,1.52-0.54c0.36-0.36,0.63-0.98,0.63-1.7v-1.07 c0-0.8-0.18-1.34-0.63-1.7c-0.45-0.36-0.89-0.54-1.52-0.54c-0.63,0-1.16,0.18-1.52,0.54c-0.36,0.36-0.63,0.98-0.63,1.7v1.07 c0,0.8,0.18,1.34,0.63,1.7C378.25,83.01,378.69,83.19,379.32,83.19z"></path> <path class="st0" d="M393.7,83.99h-9.11v-7.33h1.16v6.34h2.77v-6.34h1.16v6.34h2.77v-6.34h1.16v6.34h1.25v3.04h-1.07L393.7,83.99 L393.7,83.99z"></path> <path class="st0" d="M401.66,83.99c-0.45,0-0.71-0.09-0.89-0.36c-0.18-0.27-0.27-0.54-0.36-0.89h-0.09 c-0.18,0.45-0.45,0.8-0.8,1.07c-0.36,0.27-0.8,0.36-1.34,0.36c-0.8,0-1.34-0.18-1.79-0.63c-0.45-0.45-0.63-0.98-0.63-1.61 c0-0.71,0.27-1.25,0.8-1.61s1.34-0.54,2.41-0.54h1.43v-0.71c0-0.54-0.18-0.89-0.45-1.16c-0.27-0.27-0.71-0.45-1.34-0.45 c-0.45,0-0.8,0.09-1.07,0.27c-0.27,0.18-0.54,0.45-0.71,0.8l-0.71-0.63c0.18-0.36,0.54-0.71,0.98-0.98 c0.45-0.27,0.98-0.45,1.7-0.45c0.89,0,1.61,0.18,2.06,0.63s0.71,1.07,0.71,1.79v4.11h0.8v0.98H401.66z M398.35,83.19 c0.27,0,0.54,0,0.8-0.09c0.27-0.09,0.45-0.18,0.63-0.27c0.18-0.09,0.27-0.27,0.45-0.45c0.09-0.18,0.18-0.36,0.18-0.54V80.6h-1.52 c-0.63,0-1.16,0.09-1.43,0.27c-0.27,0.18-0.45,0.45-0.45,0.8v0.45c0,0.36,0.09,0.63,0.36,0.8 C397.55,83.1,397.9,83.19,398.35,83.19z"></path> <path class="st0" d="M403.18,83.01h0.8c0.27-0.45,0.54-1.07,0.71-1.79c0.18-0.71,0.27-1.52,0.27-2.41v-2.14h5v6.34h1.25v3.04 h-1.07v-1.97h-5.99v1.97h-1.07L403.18,83.01L403.18,83.01z M408.89,83.01v-5.36h-2.77v1.16c0,0.98-0.09,1.79-0.27,2.5 c-0.18,0.71-0.36,1.25-0.63,1.7C405.23,83.01,408.89,83.01,408.89,83.01z"></path> <path class="st0" d="M412.83,76.66h1.16v3.04h1.43l1.43-2.23c0.09-0.18,0.18-0.27,0.27-0.45c0.09-0.18,0.18-0.18,0.27-0.27 c0.09-0.09,0.18-0.09,0.27-0.09s0.18,0,0.36,0h0.71v0.98h-0.89l-1.16,1.79c-0.09,0.09-0.18,0.18-0.18,0.27 c0,0.09-0.09,0.18-0.18,0.18c-0.09,0.09-0.09,0.09-0.18,0.09s-0.18,0.09-0.27,0.09v0.09c0.18,0,0.36,0.09,0.54,0.18 c0.18,0.09,0.27,0.27,0.45,0.54l1.16,1.97h0.8v0.98h-0.8c-0.27,0-0.45-0.09-0.71-0.18c-0.27-0.09-0.45-0.36-0.63-0.71l-1.34-2.41 h-1.43v3.31h-1.16L412.83,76.66L412.83,76.66z"></path> <path class="st0" d="M425.87,83.99c-0.45,0-0.71-0.09-0.89-0.36c-0.18-0.27-0.27-0.54-0.36-0.89h-0.09 c-0.18,0.45-0.45,0.8-0.8,1.07c-0.36,0.27-0.8,0.36-1.34,0.36c-0.8,0-1.34-0.18-1.79-0.63c-0.45-0.45-0.63-0.98-0.63-1.61 c0-0.71,0.27-1.25,0.8-1.61c0.54-0.36,1.34-0.54,2.41-0.54h1.43v-0.71c0-0.54-0.18-0.89-0.45-1.16c-0.27-0.27-0.71-0.45-1.34-0.45 c-0.45,0-0.8,0.09-1.07,0.27c-0.27,0.18-0.54,0.45-0.71,0.8l-0.71-0.63c0.18-0.36,0.54-0.71,0.98-0.98s0.98-0.45,1.7-0.45 c0.89,0,1.61,0.18,2.06,0.63c0.45,0.45,0.71,1.07,0.71,1.79v4.11h0.8v0.98H425.87z M422.57,83.19c0.27,0,0.54,0,0.8-0.09 c0.27-0.09,0.45-0.18,0.63-0.27c0.18-0.09,0.27-0.27,0.45-0.45c0.09-0.18,0.18-0.36,0.18-0.54V80.6h-1.52 c-0.63,0-1.16,0.09-1.43,0.27c-0.27,0.18-0.45,0.45-0.45,0.8v0.45c0,0.36,0.09,0.63,0.36,0.8 C421.76,83.1,422.12,83.19,422.57,83.19z"></path> </g> <g> <rect x="260.15" y="100.7" class="st0" width="24.3" height="24.3"></rect> <g> <path class="st1" d="M272.3,117.23c-0.54,0-1.07-0.09-1.52-0.18c-0.45-0.18-0.8-0.36-1.16-0.63c-0.36-0.27-0.54-0.54-0.71-0.89 c-0.18-0.36-0.27-0.71-0.27-1.16c0-0.63,0.18-1.16,0.54-1.61c0.36-0.36,0.8-0.71,1.43-0.8v-0.09c-0.45-0.18-0.89-0.45-1.25-0.8 c-0.36-0.36-0.45-0.89-0.45-1.43c0-0.36,0.09-0.71,0.18-1.07c0.09-0.36,0.36-0.63,0.63-0.8c0.27-0.18,0.63-0.45,1.07-0.54 c0.45-0.09,0.89-0.18,1.43-0.18c0.54,0,0.98,0.09,1.43,0.18c0.45,0.09,0.8,0.27,1.07,0.54c0.27,0.27,0.54,0.54,0.63,0.8 c0.18,0.27,0.18,0.63,0.18,1.07c0,0.63-0.18,1.07-0.45,1.43c-0.36,0.36-0.71,0.63-1.25,0.8v0.09c0.63,0.18,1.07,0.45,1.43,0.8 c0.36,0.36,0.54,0.89,0.54,1.61c0,0.45-0.09,0.8-0.27,1.16c-0.18,0.36-0.45,0.63-0.71,0.89c-0.36,0.27-0.71,0.45-1.16,0.63 C273.37,117.14,272.93,117.23,272.3,117.23z M272.3,115.71c0.54,0,0.98-0.09,1.25-0.36c0.27-0.27,0.45-0.63,0.45-1.07v-0.27 c0-0.45-0.18-0.8-0.45-1.07c-0.27-0.27-0.71-0.36-1.25-0.36s-0.98,0.09-1.25,0.36c-0.27,0.27-0.45,0.63-0.45,1.07v0.27 c0,0.45,0.18,0.8,0.45,1.07C271.32,115.62,271.76,115.71,272.3,115.71z M272.3,111.16c0.54,0,0.89-0.09,1.16-0.36 c0.27-0.27,0.45-0.54,0.45-0.98v-0.27c0-0.45-0.09-0.71-0.45-0.98c-0.27-0.27-0.63-0.36-1.16-0.36c-0.54,0-0.89,0.09-1.16,0.36 c-0.27,0.27-0.45,0.54-0.45,0.98v0.27c0,0.45,0.09,0.71,0.45,0.98C271.41,111.07,271.76,111.16,272.3,111.16z"></path> </g> </g> <g> <path class="st0" d="M305.16,117.23c-1.25,0-2.23-0.45-2.95-1.25c-0.71-0.89-1.07-2.14-1.07-3.84s0.36-2.95,1.07-3.84 c0.71-0.89,1.7-1.34,2.95-1.34c0.8,0,1.52,0.18,2.14,0.54c0.54,0.36,0.98,0.89,1.34,1.61l-0.98,0.63 c-0.18-0.54-0.54-0.89-0.89-1.25c-0.36-0.36-0.89-0.45-1.52-0.45c-0.45,0-0.8,0.09-1.16,0.27c-0.36,0.18-0.63,0.36-0.89,0.71 c-0.27,0.27-0.45,0.63-0.54,1.07c-0.09,0.45-0.18,0.89-0.18,1.43v1.52c0,1.07,0.27,1.88,0.71,2.41c0.45,0.54,1.16,0.89,1.97,0.89 c0.63,0,1.16-0.18,1.61-0.54c0.45-0.36,0.71-0.8,0.98-1.34l0.98,0.63c-0.36,0.71-0.8,1.25-1.34,1.61 C306.76,116.96,306.05,117.23,305.16,117.23z"></path> <path class="st0" d="M310.43,109.64h5.81v7.33h-1.16v-6.34h-3.48v6.34h-1.16V109.64z"></path> <path class="st0" d="M321.42,117.23c-0.45,0-0.98-0.09-1.34-0.27c-0.36-0.18-0.8-0.45-1.07-0.8s-0.54-0.71-0.71-1.25 s-0.27-0.98-0.27-1.61c0-0.63,0.09-1.07,0.27-1.61c0.18-0.54,0.36-0.89,0.71-1.25c0.27-0.36,0.63-0.63,1.07-0.8 c0.45-0.18,0.89-0.27,1.34-0.27c0.45,0,0.98,0.09,1.34,0.27c0.45,0.18,0.8,0.45,1.07,0.8s0.54,0.71,0.71,1.25 c0.18,0.45,0.27,0.98,0.27,1.61s-0.09,1.16-0.27,1.61c-0.18,0.45-0.36,0.89-0.71,1.25c-0.27,0.36-0.63,0.63-1.07,0.8 C322.4,117.14,321.86,117.23,321.42,117.23z M321.42,116.16c0.63,0,1.16-0.18,1.52-0.54c0.36-0.36,0.63-0.98,0.63-1.7v-1.07 c0-0.8-0.18-1.34-0.63-1.7c-0.45-0.36-0.89-0.54-1.52-0.54s-1.16,0.18-1.52,0.54c-0.36,0.36-0.63,0.98-0.63,1.7v1.07 c0,0.8,0.18,1.34,0.63,1.7C320.26,115.98,320.79,116.16,321.42,116.16z"></path> <path class="st0" d="M326.6,109.64h1.16v1.16h0.09c0.18-0.45,0.45-0.8,0.8-1.07c0.36-0.18,0.8-0.36,1.34-0.36 c0.45,0,0.89,0.09,1.25,0.27c0.36,0.18,0.71,0.45,0.98,0.8c0.27,0.36,0.45,0.71,0.63,1.25c0.09,0.45,0.18,0.98,0.18,1.61 c0,0.63-0.09,1.16-0.18,1.61c-0.09,0.45-0.36,0.89-0.63,1.25c-0.27,0.36-0.54,0.63-0.98,0.8c-0.36,0.18-0.8,0.27-1.25,0.27 c-0.98,0-1.7-0.45-2.14-1.34h-0.09v4.02h-1.16V109.64z M329.64,116.16c0.63,0,1.16-0.18,1.52-0.63c0.36-0.45,0.54-0.98,0.54-1.61 v-1.25c0-0.63-0.18-1.16-0.54-1.61c-0.36-0.45-0.89-0.63-1.52-0.63c-0.27,0-0.54,0-0.71,0.09c-0.18,0.09-0.45,0.18-0.63,0.27 c-0.18,0.09-0.27,0.27-0.45,0.45c-0.09,0.18-0.18,0.36-0.18,0.54v2.77c0,0.27,0.09,0.45,0.18,0.63s0.27,0.36,0.45,0.45 c0.18,0.09,0.36,0.18,0.63,0.27C329.19,116.16,329.37,116.16,329.64,116.16z"></path> <path class="st0" d="M336.34,110.62h-2.5v-0.98H340v0.98h-2.5v6.34h-1.16V110.62L336.34,110.62z"></path> <path class="st0" d="M341.52,109.64h1.07v4.11l-0.09,1.79h0.09l0.89-1.61l2.95-4.29h1.07v7.33h-1.07v-4.11l0.09-1.79h-0.09 l-0.89,1.61l-2.95,4.29h-1.07V109.64z"></path> <path class="st0" d="M349.92,109.64h3.75c0.63,0,1.07,0.18,1.43,0.54c0.36,0.36,0.54,0.8,0.54,1.34c0,0.89-0.45,1.43-1.43,1.52 v0.09c0.54,0.09,0.98,0.18,1.25,0.54c0.27,0.36,0.45,0.71,0.45,1.16c0,0.27,0,0.63-0.09,0.8c-0.09,0.27-0.18,0.54-0.36,0.71 c-0.18,0.18-0.36,0.36-0.63,0.45c-0.27,0.09-0.54,0.18-0.8,0.18h-3.93L349.92,109.64L349.92,109.64z M353.32,112.76 c0.36,0,0.54-0.09,0.71-0.27c0.18-0.18,0.27-0.36,0.27-0.71v-0.27c0-0.27-0.09-0.54-0.27-0.71c-0.18-0.18-0.45-0.27-0.71-0.27 h-2.23v2.14L353.32,112.76L353.32,112.76z M353.41,116.07c0.36,0,0.63-0.09,0.8-0.27c0.18-0.18,0.27-0.45,0.27-0.8v-0.36 c0-0.36-0.09-0.63-0.27-0.8c-0.18-0.18-0.45-0.27-0.8-0.27h-2.41v2.41L353.41,116.07L353.41,116.07z"></path> <path class="st0" d="M357.87,109.64h1.16v3.04h3.66v-3.04h1.16v7.33h-1.16v-3.31h-3.66v3.31h-1.16V109.64z"></path> <path class="st0" d="M371.63,117.05c-0.45,0-0.71-0.09-0.89-0.36c-0.18-0.27-0.27-0.54-0.36-0.89h-0.09 c-0.18,0.45-0.45,0.8-0.8,1.07c-0.36,0.27-0.8,0.36-1.34,0.36c-0.8,0-1.34-0.18-1.79-0.63c-0.45-0.36-0.63-0.98-0.63-1.61 c0-0.71,0.27-1.25,0.8-1.61s1.34-0.54,2.41-0.54h1.43v-0.71c0-0.54-0.18-0.89-0.45-1.16c-0.27-0.27-0.71-0.45-1.34-0.45 c-0.45,0-0.8,0.09-1.16,0.27c-0.27,0.18-0.54,0.45-0.71,0.8l-0.71-0.63c0.18-0.36,0.54-0.71,0.98-0.98 c0.45-0.27,0.98-0.45,1.7-0.45c0.89,0,1.61,0.18,2.06,0.63c0.45,0.45,0.71,1.07,0.71,1.79v4.02h0.8v0.98L371.63,117.05 L371.63,117.05z M368.33,116.25c0.27,0,0.54,0,0.8-0.09c0.27-0.09,0.45-0.18,0.63-0.27c0.18-0.09,0.27-0.27,0.45-0.45 s0.18-0.36,0.18-0.54v-1.25h-1.52c-0.63,0-1.16,0.09-1.43,0.27c-0.27,0.18-0.45,0.45-0.45,0.8V115c0,0.36,0.09,0.63,0.36,0.8 C367.52,116.16,367.88,116.25,368.33,116.25z"></path> <path class="st0" d="M373.24,115.98h0.8l0.45-1.07c0.09-0.27,0.27-0.45,0.36-0.54c0.18-0.09,0.36-0.18,0.54-0.27v-0.09 c-0.63-0.09-1.16-0.27-1.52-0.63c-0.36-0.36-0.54-0.89-0.54-1.52c0-0.71,0.18-1.25,0.63-1.7c0.45-0.45,0.98-0.63,1.79-0.63h3.22 v7.33h-1.16v-2.86h-1.88l-0.8,1.79c-0.18,0.36-0.36,0.71-0.54,0.8c-0.18,0.09-0.45,0.18-0.71,0.18h-0.8L373.24,115.98 L373.24,115.98z M377.98,113.21v-2.59h-1.97c-0.45,0-0.8,0.09-0.98,0.27c-0.18,0.18-0.36,0.45-0.36,0.8v0.45 c0,0.36,0.09,0.63,0.36,0.8c0.27,0.18,0.54,0.27,0.98,0.27L377.98,113.21z"></path> <path class="st0" d="M384.95,109.64h5.81v7.33h-1.16v-6.34h-3.48v6.34h-1.16L384.95,109.64L384.95,109.64z"></path> <path class="st0" d="M392.01,115.98h0.98c0.09-0.18,0.27-0.36,0.36-0.63c0.09-0.27,0.18-0.54,0.27-0.89 c0.09-0.36,0.09-0.71,0.18-1.16c0.09-0.45,0.09-0.98,0.09-1.61v-2.06h5v7.33h-1.16v-6.34h-2.77v1.16c0,0.71,0,1.34-0.09,1.88 s-0.09,0.98-0.18,1.34s-0.18,0.71-0.36,0.98c-0.09,0.27-0.27,0.45-0.45,0.54c-0.18,0.18-0.36,0.27-0.63,0.36 c-0.18,0.09-0.45,0.09-0.8,0.09h-0.45V115.98L392.01,115.98z"></path> <path class="st0" d="M403.98,117.23c-0.45,0-0.98-0.09-1.34-0.27c-0.36-0.18-0.8-0.45-1.07-0.8s-0.54-0.71-0.71-1.25 s-0.27-0.98-0.27-1.61c0-0.63,0.09-1.07,0.27-1.61c0.18-0.54,0.36-0.89,0.71-1.25c0.27-0.36,0.63-0.63,1.07-0.8 c0.45-0.18,0.89-0.27,1.34-0.27c0.45,0,0.98,0.09,1.34,0.27c0.45,0.18,0.71,0.45,1.07,0.8c0.27,0.36,0.54,0.71,0.71,1.25 c0.18,0.45,0.27,0.98,0.27,1.61s-0.09,1.16-0.27,1.61c-0.18,0.45-0.36,0.89-0.71,1.25c-0.27,0.36-0.63,0.63-1.07,0.8 C404.87,117.14,404.43,117.23,403.98,117.23z M403.98,116.16c0.63,0,1.16-0.18,1.52-0.54c0.36-0.36,0.63-0.98,0.63-1.7v-1.07 c0-0.8-0.18-1.34-0.63-1.7c-0.45-0.36-0.89-0.54-1.52-0.54s-1.16,0.18-1.52,0.54c-0.36,0.36-0.63,0.98-0.63,1.7v1.07 c0,0.8,0.18,1.34,0.63,1.7C402.82,115.98,403.35,116.16,403.98,116.16z"></path> <path class="st0" d="M418.37,117.05h-9.11v-7.33h1.16v6.34h2.77v-6.34h1.16v6.34h2.77v-6.34h1.16v6.34h1.25v3.04h-1.07 L418.37,117.05L418.37,117.05z"></path> <path class="st0" d="M426.32,117.05c-0.45,0-0.71-0.09-0.89-0.36c-0.18-0.27-0.27-0.54-0.36-0.89h-0.09 c-0.18,0.45-0.45,0.8-0.8,1.07c-0.36,0.27-0.8,0.36-1.34,0.36c-0.8,0-1.34-0.18-1.79-0.63c-0.45-0.45-0.63-0.98-0.63-1.61 c0-0.71,0.27-1.25,0.8-1.61s1.34-0.54,2.41-0.54h1.43v-0.71c0-0.54-0.18-0.89-0.45-1.16c-0.27-0.27-0.71-0.45-1.34-0.45 c-0.45,0-0.8,0.09-1.07,0.27c-0.27,0.18-0.54,0.45-0.71,0.8l-0.71-0.63c0.18-0.36,0.54-0.71,0.98-0.98 c0.45-0.27,0.98-0.45,1.7-0.45c0.89,0,1.61,0.18,2.06,0.63c0.45,0.45,0.71,1.07,0.71,1.79v4.02h0.8v0.98L426.32,117.05 L426.32,117.05z M423.01,116.25c0.27,0,0.54,0,0.8-0.09c0.27-0.09,0.45-0.18,0.63-0.27c0.18-0.09,0.27-0.27,0.45-0.45 c0.09-0.18,0.18-0.36,0.18-0.54v-1.25h-1.52c-0.63,0-1.16,0.09-1.43,0.27s-0.45,0.45-0.45,0.8V115c0,0.36,0.09,0.63,0.36,0.8 C422.21,116.16,422.57,116.25,423.01,116.25z"></path> <path class="st0" d="M427.84,115.98h0.8c0.27-0.45,0.54-1.07,0.71-1.79c0.18-0.71,0.27-1.52,0.27-2.41v-2.14h5v6.34h1.25v3.04 h-1.07v-1.97h-5.99v1.97h-1.07L427.84,115.98L427.84,115.98z M433.47,115.98v-5.36h-2.77v1.16c0,0.98-0.09,1.79-0.27,2.5 c-0.18,0.71-0.36,1.25-0.63,1.7L433.47,115.98z"></path> <path class="st0" d="M437.49,109.64h1.16v3.04h1.43l1.43-2.23c0.09-0.18,0.18-0.27,0.27-0.45s0.18-0.18,0.27-0.27 s0.18-0.09,0.27-0.09s0.18,0,0.36,0h0.71v0.98h-0.89l-1.16,1.79c-0.09,0.09-0.18,0.18-0.18,0.27c0,0.09-0.09,0.18-0.18,0.18 c-0.09,0.09-0.09,0.09-0.18,0.09s-0.18,0.09-0.27,0.09v0.09c0.18,0,0.36,0.09,0.54,0.18c0.18,0.09,0.27,0.27,0.45,0.54l1.16,1.97 h0.8v0.98h-0.8c-0.27,0-0.45-0.09-0.71-0.18c-0.27-0.09-0.45-0.36-0.63-0.71l-1.34-2.41h-1.43v3.31h-1.16L437.49,109.64 L437.49,109.64z"></path> <path class="st0" d="M450.53,117.05c-0.45,0-0.71-0.09-0.89-0.36c-0.18-0.27-0.27-0.54-0.36-0.89h-0.09 c-0.18,0.45-0.45,0.8-0.8,1.07c-0.36,0.27-0.8,0.36-1.34,0.36c-0.8,0-1.34-0.18-1.79-0.63c-0.45-0.45-0.63-0.98-0.63-1.61 c0-0.71,0.27-1.25,0.8-1.61c0.54-0.36,1.34-0.54,2.41-0.54h1.43v-0.71c0-0.54-0.18-0.89-0.45-1.16c-0.27-0.27-0.71-0.45-1.34-0.45 c-0.45,0-0.8,0.09-1.07,0.27c-0.27,0.18-0.54,0.45-0.71,0.8l-0.71-0.63c0.18-0.36,0.54-0.71,0.98-0.98 c0.45-0.27,0.98-0.45,1.7-0.45c0.89,0,1.61,0.18,2.06,0.63c0.45,0.45,0.71,1.07,0.71,1.79v4.02h0.8v0.98L450.53,117.05 L450.53,117.05z M447.23,116.25c0.27,0,0.54,0,0.8-0.09c0.27-0.09,0.45-0.18,0.63-0.27c0.18-0.09,0.27-0.27,0.45-0.45 c0.09-0.18,0.18-0.36,0.18-0.54v-1.25h-1.52c-0.63,0-1.16,0.09-1.43,0.27c-0.27,0.18-0.45,0.45-0.45,0.8V115 c0,0.36,0.09,0.63,0.36,0.8C446.42,116.16,446.78,116.25,447.23,116.25z"></path> </g> <g> <rect x="532.75" class="st0" width="24.3" height="24.3"></rect> <g> <path class="st1" d="M548.47,10.1c0,0.71-0.09,1.43-0.36,2.06c-0.27,0.63-0.45,1.25-0.8,1.7c-0.36,0.45-0.71,0.98-1.16,1.43 c-0.45,0.45-0.89,0.8-1.25,1.07h-2.5c0.63-0.45,1.07-0.8,1.61-1.25c0.54-0.45,0.89-0.8,1.25-1.16c0.36-0.36,0.63-0.8,0.89-1.25 c0.18-0.45,0.36-0.89,0.54-1.43h-0.09c-0.09,0.18-0.18,0.36-0.36,0.54c-0.09,0.18-0.27,0.36-0.45,0.45s-0.36,0.27-0.63,0.36 c-0.27,0.09-0.54,0.09-0.8,0.09c-0.45,0-0.8-0.09-1.16-0.18c-0.36-0.18-0.63-0.36-0.89-0.63c-0.27-0.27-0.45-0.63-0.63-0.98 c-0.18-0.36-0.18-0.8-0.18-1.25c0-0.54,0.09-0.98,0.27-1.43c0.18-0.45,0.45-0.8,0.71-1.07c0.27-0.27,0.71-0.54,1.16-0.71 c0.45-0.18,0.89-0.27,1.52-0.27c0.54,0,1.07,0.09,1.52,0.27s0.8,0.45,1.16,0.8c0.27,0.36,0.54,0.71,0.71,1.25 C548.38,8.94,548.47,9.47,548.47,10.1z M544.9,11.26c0.54,0,0.98-0.18,1.25-0.45c0.27-0.27,0.45-0.71,0.45-1.25V9.38 c0-0.54-0.18-0.98-0.45-1.25c-0.27-0.27-0.71-0.45-1.25-0.45s-0.89,0.18-1.25,0.45c-0.27,0.27-0.45,0.71-0.45,1.25v0.18 c0,0.54,0.18,0.98,0.45,1.25S544.36,11.26,544.9,11.26z"></path> </g> </g> <g> <path class="st0" d="M581.71,7.95L581.71,7.95l-0.89,1.7l-2.41,4.38l-2.41-4.38l-0.8-1.7h-0.09v8.4h-1.16V6.34h1.61l2.86,5.36 h0.09l2.86-5.36h1.52v10.01h-1.16V7.95L581.71,7.95z"></path> <path class="st0" d="M588.24,16.53c-0.54,0-0.98-0.09-1.34-0.27c-0.45-0.18-0.71-0.45-1.07-0.8s-0.54-0.71-0.71-1.25 c-0.18-0.54-0.27-0.98-0.27-1.61c0-0.54,0.09-1.07,0.27-1.61c0.18-0.54,0.36-0.89,0.71-1.25c0.27-0.36,0.63-0.63,1.07-0.8 s0.89-0.27,1.34-0.27s0.89,0.09,1.34,0.27c0.45,0.18,0.71,0.45,0.98,0.71c0.27,0.27,0.45,0.71,0.63,1.16s0.18,0.89,0.18,1.43v0.54 h-5.27v0.36c0,0.36,0.09,0.63,0.18,0.89c0.09,0.27,0.27,0.54,0.45,0.71c0.18,0.18,0.45,0.36,0.71,0.45s0.63,0.18,0.89,0.18 c0.45,0,0.89-0.09,1.25-0.36c0.36-0.27,0.63-0.54,0.8-0.98l0.8,0.63c-0.27,0.54-0.63,0.89-1.07,1.25 C589.66,16.26,588.86,16.53,588.24,16.53z M588.24,9.74c-0.27,0-0.63,0.09-0.89,0.18c-0.27,0.09-0.45,0.27-0.63,0.45 s-0.36,0.45-0.45,0.71c-0.09,0.27-0.18,0.54-0.18,0.89v0.09h4.11v-0.18c0-0.63-0.18-1.16-0.54-1.61 C589.31,9.92,588.77,9.74,588.24,9.74z"></path> <path class="st0" d="M596.01,16.53c-0.54,0-0.98-0.09-1.34-0.27c-0.45-0.18-0.71-0.45-1.07-0.8c-0.27-0.36-0.45-0.71-0.63-1.25 c-0.18-0.54-0.18-0.98-0.18-1.61c0-0.63,0.09-1.16,0.18-1.61c0.09-0.45,0.36-0.89,0.63-1.25s0.63-0.63,1.07-0.8 c0.45-0.18,0.89-0.27,1.34-0.27c0.71,0,1.34,0.18,1.79,0.45c0.45,0.36,0.8,0.71,0.98,1.25l-0.98,0.45 c-0.18-0.36-0.36-0.71-0.63-0.89c-0.27-0.18-0.71-0.36-1.16-0.36c-0.36,0-0.63,0.09-0.89,0.18c-0.27,0.09-0.45,0.27-0.63,0.45 c-0.18,0.18-0.27,0.45-0.36,0.71c-0.09,0.27-0.09,0.54-0.09,0.89v1.25c0,0.63,0.18,1.16,0.54,1.61c0.36,0.45,0.89,0.63,1.52,0.63 c0.89,0,1.61-0.45,1.97-1.25l0.8,0.54c-0.27,0.54-0.63,0.98-1.07,1.25C597.35,16.35,596.72,16.53,596.01,16.53z"></path> <path class="st0" d="M602.08,10.01h-2.5V8.94h6.17v0.98h-2.5v6.34h-1.16L602.08,10.01L602.08,10.01z"></path> <path class="st0" d="M612.45,16.35c-0.45,0-0.71-0.09-0.89-0.36s-0.27-0.54-0.36-0.89h-0.09c-0.18,0.45-0.45,0.8-0.8,0.98 s-0.8,0.36-1.34,0.36c-0.8,0-1.34-0.18-1.79-0.63s-0.63-0.98-0.63-1.61c0-0.71,0.27-1.25,0.8-1.61s1.34-0.54,2.41-0.54h1.43v-0.71 c0-0.54-0.18-0.89-0.45-1.16c-0.27-0.27-0.71-0.45-1.34-0.45c-0.45,0-0.8,0.09-1.07,0.27c-0.27,0.18-0.54,0.45-0.71,0.8 l-0.71-0.63c0.18-0.36,0.54-0.71,0.98-0.98s0.98-0.45,1.7-0.45c0.89,0,1.61,0.18,2.06,0.63c0.45,0.45,0.71,1.07,0.71,1.79v4.02 h0.8v0.98L612.45,16.35L612.45,16.35z M609.14,15.55c0.27,0,0.54,0,0.8-0.09c0.27-0.09,0.45-0.18,0.63-0.27 c0.18-0.09,0.27-0.27,0.45-0.45s0.18-0.36,0.18-0.54v-1.25h-1.52c-0.63,0-1.16,0.09-1.43,0.27s-0.45,0.45-0.45,0.8v0.27 c0,0.36,0.18,0.63,0.36,0.8C608.34,15.28,608.7,15.55,609.14,15.55z"></path> <path class="st0" d="M617.01,15.28h0.8c0.27-0.45,0.54-1.07,0.71-1.79c0.18-0.71,0.27-1.52,0.27-2.41V8.94h5v6.34h1.25v3.04h-1.07 v-1.97h-5.99v1.97h-1.07L617.01,15.28L617.01,15.28z M622.64,15.28V9.92h-2.77v1.16c0,0.98-0.09,1.79-0.27,2.5 c-0.18,0.71-0.36,1.25-0.63,1.7H622.64z"></path> <path class="st0" d="M625.58,15.28h0.98c0.09-0.18,0.27-0.36,0.36-0.63c0.09-0.27,0.18-0.54,0.27-0.89 c0.09-0.36,0.09-0.71,0.18-1.16c0.09-0.45,0.09-0.98,0.09-1.61V8.94h5v7.33h-1.25V9.92h-2.77v1.16c0,0.71,0,1.34-0.09,1.88 c-0.09,0.54-0.09,0.98-0.18,1.34c-0.09,0.36-0.18,0.71-0.36,0.89c-0.18,0.18-0.27,0.45-0.45,0.54c-0.18,0.18-0.36,0.27-0.63,0.36 c-0.18,0.09-0.45,0.09-0.8,0.09h-0.45L625.58,15.28L625.58,15.28z"></path> <path class="st0" d="M634.07,15.28h0.8l0.45-1.07c0.09-0.27,0.27-0.45,0.36-0.54c0.18-0.09,0.36-0.18,0.54-0.27l0,0 c-0.63-0.09-1.16-0.27-1.52-0.63c-0.36-0.36-0.54-0.89-0.54-1.52c0-0.71,0.18-1.25,0.63-1.7c0.45-0.45,0.98-0.63,1.79-0.63h3.31 v7.33h-1.16V13.4h-1.88l-0.8,1.79c-0.18,0.45-0.36,0.71-0.54,0.8s-0.45,0.18-0.71,0.18h-0.8L634.07,15.28L634.07,15.28z M638.81,12.51V9.92h-1.97c-0.45,0-0.71,0.09-0.98,0.27c-0.27,0.18-0.36,0.45-0.36,0.8v0.45c0,0.36,0.09,0.63,0.36,0.8 s0.54,0.27,0.98,0.27H638.81z"></path> <path class="st0" d="M648.55,16.53c-0.45,0-0.98-0.09-1.34-0.27c-0.45-0.18-0.71-0.45-1.07-0.8s-0.54-0.71-0.71-1.25 c-0.18-0.54-0.27-0.98-0.27-1.61c0-0.54,0.09-1.07,0.27-1.61s0.36-0.89,0.71-1.25s0.63-0.63,1.07-0.8 c0.45-0.18,0.89-0.27,1.34-0.27s0.98,0.09,1.34,0.27c0.36,0.18,0.71,0.45,1.07,0.8c0.27,0.36,0.54,0.71,0.71,1.25 c0.18,0.45,0.27,0.98,0.27,1.61c0,0.63-0.09,1.16-0.27,1.61s-0.36,0.89-0.71,1.25s-0.63,0.63-1.07,0.8 C649.44,16.44,649.08,16.53,648.55,16.53z M648.55,15.46c0.63,0,1.16-0.18,1.52-0.54c0.36-0.36,0.63-0.98,0.63-1.7v-1.07 c0-0.8-0.18-1.34-0.63-1.7c-0.45-0.36-0.89-0.54-1.52-0.54s-1.16,0.18-1.52,0.54c-0.36,0.36-0.63,0.98-0.63,1.7v1.07 c0,0.8,0.18,1.34,0.63,1.7C647.48,15.28,648.01,15.46,648.55,15.46z"></path> <path class="st0" d="M655.16,10.01h-2.5V8.94h6.17v0.98h-2.5v6.34h-1.16V10.01L655.16,10.01z"></path> <path class="st0" d="M658.91,15.28h0.8c0.27-0.45,0.54-1.07,0.71-1.79s0.27-1.52,0.27-2.41V8.94h5v6.34h1.25v3.04h-1.07v-1.97 h-5.99v1.97h-0.98V15.28L658.91,15.28z M664.54,15.28V9.92h-2.77v1.16c0,0.98-0.09,1.79-0.27,2.5c-0.18,0.71-0.36,1.25-0.63,1.7 H664.54z"></path> <path class="st0" d="M668.56,8.94h1.16v2.68h1.97c0.71,0,1.34,0.18,1.79,0.63c0.45,0.45,0.63,0.98,0.63,1.7s-0.18,1.34-0.63,1.7 c-0.45,0.45-0.98,0.63-1.79,0.63h-3.13V8.94L668.56,8.94z M671.42,15.28c0.45,0,0.71-0.09,0.98-0.27s0.36-0.45,0.36-0.8v-0.63 c0-0.36-0.09-0.63-0.36-0.8s-0.54-0.27-0.98-0.27h-1.79v2.68L671.42,15.28L671.42,15.28z M675.27,8.94h1.16v7.33h-1.16V8.94z"></path> <path class="st0" d="M677.95,16.35l2.68-3.75l-2.59-3.66h1.34l1.88,2.77l0,0l1.97-2.77h1.25l-2.59,3.57l2.68,3.75h-1.34 l-1.88-2.86l0,0l-2.06,2.86L677.95,16.35L677.95,16.35z"></path> <path class="st0" d="M691.44,16.35c-0.45,0-0.71-0.09-0.89-0.36s-0.27-0.54-0.36-0.89h-0.09c-0.18,0.45-0.45,0.8-0.8,0.98 s-0.8,0.36-1.34,0.36c-0.8,0-1.34-0.18-1.79-0.63c-0.45-0.45-0.63-0.98-0.63-1.61c0-0.71,0.27-1.25,0.8-1.61s1.34-0.54,2.41-0.54 h1.43v-0.71c0-0.54-0.18-0.89-0.45-1.16c-0.27-0.27-0.71-0.45-1.34-0.45c-0.45,0-0.8,0.09-1.07,0.27 c-0.27,0.18-0.54,0.45-0.71,0.8l-0.71-0.63c0.18-0.36,0.54-0.71,0.98-0.98s0.98-0.45,1.7-0.45c0.89,0,1.61,0.18,2.06,0.63 c0.45,0.45,0.71,1.07,0.71,1.79v4.02h0.8v0.98L691.44,16.35L691.44,16.35z M688.13,15.55c0.27,0,0.54,0,0.8-0.09 c0.27-0.09,0.45-0.18,0.63-0.27c0.18-0.09,0.27-0.27,0.45-0.45s0.18-0.36,0.18-0.54v-1.25h-1.52c-0.63,0-1.16,0.09-1.43,0.27 s-0.45,0.45-0.45,0.8v0.27c0,0.36,0.18,0.63,0.36,0.8C687.33,15.28,687.69,15.55,688.13,15.55z"></path> </g> <g> <rect x="532.75" y="32.97" class="st0" width="24.3" height="24.3"></rect> <g> <path class="st1" d="M537.66,49.32V47.8h2.77v-7.06h-0.09l-2.14,2.59l-1.16-0.98l2.5-2.95h2.86v8.49h2.32v1.52L537.66,49.32 L537.66,49.32z"></path> <path class="st1" d="M549.19,49.5c-0.63,0-1.16-0.09-1.61-0.36c-0.45-0.27-0.89-0.54-1.16-0.98s-0.54-0.98-0.71-1.61 c-0.18-0.63-0.18-1.34-0.18-2.23c0-0.8,0.09-1.52,0.18-2.14c0.09-0.63,0.36-1.16,0.71-1.61c0.27-0.45,0.71-0.8,1.16-0.98 c0.45-0.27,0.98-0.36,1.61-0.36c1.25,0,2.23,0.45,2.77,1.34c0.63,0.89,0.89,2.14,0.89,3.75s-0.27,2.86-0.89,3.75 C551.42,49.05,550.44,49.5,549.19,49.5z M549.19,47.89c0.63,0,1.07-0.27,1.34-0.71c0.27-0.45,0.36-1.16,0.36-1.97v-1.79 c0-0.8-0.09-1.52-0.36-1.97c-0.27-0.45-0.71-0.71-1.34-0.71c-0.63,0-1.07,0.27-1.34,0.71s-0.36,1.16-0.36,1.97v1.79 c0,0.8,0.09,1.52,0.36,1.97C548.12,47.71,548.56,47.89,549.19,47.89z"></path> </g> </g> <g> <rect x="532.75" y="66.03" class="st0" width="24.3" height="24.3"></rect> <g> <path class="st1" d="M537.66,82.29v-1.52h2.77v-7.06h-0.09l-2.14,2.59l-1.16-0.98l2.5-2.95h2.86v8.4h2.32v1.52H537.66 L537.66,82.29z"></path> <path class="st1" d="M546.24,82.29v-1.52h2.77v-7.06h-0.09l-2.14,2.59l-1.16-0.98l2.5-2.95h2.86v8.4h2.32v1.52H546.24 L546.24,82.29z"></path> </g> </g> <g> <path class="st0" d="M581.71,73.9L581.71,73.9l-0.89,1.7l-2.41,4.38l-2.41-4.38l-0.8-1.7h-0.09v8.4h-1.16v-9.92h1.61l2.86,5.36 h0.09l2.86-5.36h1.52v10.01h-1.16V73.9L581.71,73.9z"></path> <path class="st0" d="M588.24,82.47c-0.54,0-0.98-0.09-1.34-0.27c-0.45-0.18-0.71-0.45-1.07-0.8s-0.54-0.71-0.71-1.25 c-0.18-0.54-0.27-0.98-0.27-1.61s0.09-1.07,0.27-1.61c0.18-0.54,0.36-0.89,0.71-1.25c0.27-0.36,0.63-0.63,1.07-0.8 c0.45-0.18,0.89-0.27,1.34-0.27s0.89,0.09,1.34,0.27c0.36,0.18,0.71,0.45,0.98,0.71c0.27,0.27,0.45,0.71,0.63,1.16 s0.18,0.89,0.18,1.43v0.54h-5.27v0.36c0,0.27,0.09,0.63,0.18,0.89c0.09,0.27,0.27,0.54,0.45,0.71c0.18,0.18,0.45,0.36,0.71,0.45 c0.27,0.09,0.63,0.18,0.89,0.18c0.45,0,0.89-0.09,1.25-0.36c0.36-0.27,0.63-0.54,0.8-0.98l0.8,0.63 c-0.27,0.54-0.63,0.89-1.07,1.25S588.86,82.47,588.24,82.47z M588.24,75.77c-0.27,0-0.63,0.09-0.89,0.18 c-0.27,0.09-0.45,0.27-0.63,0.45s-0.36,0.45-0.45,0.71c-0.09,0.27-0.18,0.54-0.18,0.89v0.09h4.11v-0.18 c0-0.63-0.18-1.16-0.54-1.61C589.31,75.95,588.77,75.77,588.24,75.77z"></path> <path class="st0" d="M596.01,82.47c-0.54,0-0.98-0.09-1.34-0.27c-0.45-0.18-0.71-0.45-1.07-0.8c-0.27-0.36-0.45-0.71-0.63-1.25 s-0.18-0.98-0.18-1.61c0-0.63,0.09-1.16,0.18-1.61c0.09-0.45,0.36-0.89,0.63-1.25s0.63-0.63,1.07-0.8 c0.45-0.18,0.89-0.27,1.34-0.27c0.71,0,1.34,0.18,1.79,0.45c0.45,0.36,0.8,0.71,0.98,1.25l-0.98,0.45 c-0.18-0.36-0.36-0.71-0.63-0.89c-0.27-0.18-0.71-0.27-1.16-0.27c-0.36,0-0.63,0.09-0.89,0.18c-0.27,0.09-0.45,0.27-0.63,0.45 c-0.18,0.18-0.27,0.45-0.36,0.71c-0.09,0.27-0.09,0.54-0.09,0.89v1.25c0,0.63,0.18,1.16,0.54,1.61c0.36,0.45,0.89,0.63,1.52,0.63 c0.89,0,1.61-0.45,1.97-1.25l0.8,0.54c-0.27,0.54-0.63,0.98-1.07,1.25C597.35,82.38,596.72,82.47,596.01,82.47z"></path> <path class="st0" d="M602.08,75.95h-2.5v-0.98h6.17v0.98h-2.5v6.34h-1.16L602.08,75.95L602.08,75.95z"></path> <path class="st0" d="M609.86,82.47c-0.45,0-0.98-0.09-1.34-0.27c-0.45-0.18-0.71-0.45-1.07-0.8s-0.54-0.71-0.71-1.25 c-0.18-0.54-0.27-0.98-0.27-1.61s0.09-1.07,0.27-1.61c0.18-0.54,0.36-0.89,0.71-1.25c0.27-0.36,0.63-0.63,1.07-0.8 c0.45-0.18,0.89-0.27,1.34-0.27s0.98,0.09,1.34,0.27c0.45,0.18,0.71,0.45,1.07,0.8c0.27,0.36,0.54,0.71,0.71,1.25 c0.18,0.45,0.27,0.98,0.27,1.61c0,0.63-0.09,1.16-0.27,1.61c-0.18,0.45-0.36,0.89-0.71,1.25s-0.63,0.63-1.07,0.8 C610.75,82.38,610.39,82.47,609.86,82.47z M609.86,81.49c0.63,0,1.16-0.18,1.52-0.54c0.36-0.36,0.63-0.98,0.63-1.7v-1.07 c0-0.8-0.18-1.34-0.63-1.7c-0.45-0.36-0.89-0.54-1.52-0.54s-1.16,0.18-1.52,0.54c-0.36,0.36-0.63,0.98-0.63,1.7v1.07 c0,0.8,0.18,1.34,0.63,1.7C608.79,81.31,609.23,81.49,609.86,81.49z"></path> <path class="st0" d="M617.36,81.31h0.8c0.27-0.45,0.54-1.07,0.71-1.79s0.27-1.52,0.27-2.41v-2.14h5v6.34h1.25v3.04h-1.07v-1.97 h-5.99v1.97h-1.07L617.36,81.31L617.36,81.31z M622.99,81.31v-5.36h-2.77v1.16c0,0.98-0.09,1.79-0.27,2.5 c-0.18,0.71-0.36,1.25-0.63,1.7L622.99,81.31z"></path> <path class="st0" d="M625.94,81.31h0.98c0.09-0.18,0.27-0.36,0.36-0.63c0.09-0.27,0.18-0.54,0.27-0.89 c0.09-0.36,0.09-0.71,0.18-1.16c0.09-0.45,0.09-0.98,0.09-1.61v-2.06h5v7.33h-1.16v-6.34h-2.77v1.16c0,0.71,0,1.34-0.09,1.88 s-0.09,0.98-0.18,1.34c-0.09,0.36-0.18,0.71-0.36,0.98c-0.18,0.27-0.27,0.45-0.45,0.63s-0.36,0.27-0.63,0.36 c-0.18,0.09-0.45,0.09-0.8,0.09h-0.45L625.94,81.31L625.94,81.31z"></path> <path class="st0" d="M634.52,81.31h0.8l0.45-1.07c0.09-0.27,0.27-0.45,0.36-0.54c0.18-0.09,0.36-0.18,0.54-0.27v-0.09 c-0.63-0.09-1.16-0.27-1.52-0.63s-0.54-0.89-0.54-1.52c0-0.71,0.18-1.25,0.63-1.7c0.45-0.45,0.98-0.63,1.79-0.63h3.31v7.33h-1.07 v-2.68h-1.88l-0.8,1.79c-0.18,0.36-0.36,0.71-0.54,0.8c-0.18,0.09-0.45,0.18-0.71,0.18h-0.8V81.31z M639.26,78.54v-2.59h-1.97 c-0.45,0-0.71,0.09-0.98,0.27s-0.36,0.45-0.36,0.8v0.45c0,0.36,0.09,0.63,0.36,0.8c0.27,0.18,0.54,0.27,0.98,0.27 C637.29,78.54,639.26,78.54,639.26,78.54z"></path> <path class="st0" d="M646.14,74.97h1.16v1.16h0.09c0.18-0.45,0.45-0.8,0.8-1.07c0.36-0.27,0.8-0.36,1.34-0.36 c0.45,0,0.89,0.09,1.25,0.27c0.36,0.18,0.71,0.45,0.98,0.8c0.27,0.36,0.45,0.71,0.63,1.25c0.18,0.45,0.18,0.98,0.18,1.61 s-0.09,1.16-0.18,1.61c-0.18,0.45-0.36,0.89-0.63,1.25c-0.27,0.36-0.63,0.63-0.98,0.8c-0.36,0.18-0.8,0.27-1.25,0.27 c-0.98,0-1.7-0.45-2.14-1.34h-0.09v4.02h-1.16V74.97z M649.17,81.49c0.63,0,1.16-0.18,1.52-0.63c0.36-0.45,0.54-0.98,0.54-1.61 v-1.25c0-0.63-0.18-1.16-0.54-1.61c-0.36-0.45-0.89-0.63-1.52-0.63c-0.27,0-0.54,0-0.71,0.09c-0.18,0.09-0.45,0.18-0.63,0.27 c-0.18,0.09-0.27,0.27-0.45,0.45c-0.09,0.18-0.18,0.36-0.18,0.54v2.77c0,0.27,0.09,0.45,0.18,0.63c0.09,0.18,0.27,0.36,0.45,0.45 c0.18,0.09,0.36,0.18,0.63,0.27C648.73,81.49,649,81.49,649.17,81.49z"></path> <path class="st0" d="M654.45,74.97h1.16v2.68h1.97c0.71,0,1.34,0.18,1.79,0.63c0.45,0.45,0.63,0.98,0.63,1.7 c0,0.71-0.18,1.34-0.63,1.7s-0.98,0.63-1.79,0.63h-3.13V74.97L654.45,74.97z M657.39,81.31c0.45,0,0.71-0.09,0.98-0.27 c0.27-0.18,0.36-0.45,0.36-0.8v-0.63c0-0.36-0.09-0.63-0.36-0.8c-0.27-0.18-0.54-0.27-0.98-0.27h-1.79v2.68h1.79V81.31z M661.24,74.97h1.16v7.33h-1.16V74.97z"></path> <path class="st0" d="M667.67,82.47c-0.54,0-0.98-0.09-1.34-0.27c-0.45-0.18-0.71-0.45-1.07-0.8s-0.54-0.8-0.63-1.43 c-0.18-0.63-0.27-1.25-0.27-2.06c0-1.07,0.09-1.97,0.18-2.68c0.18-0.71,0.36-1.34,0.63-1.88c0.27-0.45,0.71-0.8,1.16-1.07 s1.07-0.36,1.7-0.45l2.32-0.18v1.16l-2.5,0.18c-0.45,0-0.8,0.09-1.07,0.27c-0.27,0.18-0.54,0.27-0.71,0.63s-0.36,0.63-0.45,1.07 c-0.09,0.45-0.18,0.98-0.18,1.61h0.09c0.18-0.54,0.54-0.89,0.89-1.16c0.36-0.27,0.8-0.36,1.34-0.36c0.45,0,0.89,0.09,1.25,0.27 c0.36,0.18,0.71,0.45,0.98,0.71c0.27,0.36,0.45,0.71,0.63,1.16c0.18,0.45,0.27,0.98,0.27,1.61c0,0.54-0.09,1.07-0.27,1.52 c-0.18,0.45-0.36,0.8-0.71,1.16c-0.27,0.36-0.63,0.63-1.07,0.8C668.56,82.38,668.12,82.47,667.67,82.47z M667.67,81.49 c0.27,0,0.54-0.09,0.8-0.18c0.27-0.09,0.45-0.27,0.63-0.45s0.36-0.45,0.45-0.71c0.09-0.27,0.18-0.63,0.18-0.98v-0.89 c0-0.8-0.18-1.43-0.63-1.79s-0.89-0.63-1.61-0.63c-0.71,0-1.16,0.18-1.52,0.54c-0.36,0.36-0.54,0.8-0.54,1.34v1.34 c0,0.8,0.18,1.43,0.63,1.79C666.51,81.31,667.04,81.49,667.67,81.49z"></path> <path class="st0" d="M678.21,82.29c-0.45,0-0.71-0.09-0.89-0.36c-0.18-0.27-0.27-0.54-0.36-0.89h-0.09 c-0.18,0.45-0.45,0.8-0.8,1.07c-0.36,0.27-0.8,0.36-1.34,0.36c-0.8,0-1.34-0.18-1.79-0.63c-0.45-0.45-0.63-0.98-0.63-1.61 c0-0.71,0.27-1.25,0.8-1.61s1.34-0.54,2.41-0.54h1.43v-0.71c0-0.54-0.18-0.89-0.45-1.16c-0.27-0.27-0.71-0.45-1.34-0.45 c-0.45,0-0.8,0.09-1.07,0.27c-0.27,0.18-0.54,0.45-0.71,0.8l-0.71-0.63c0.18-0.36,0.54-0.71,0.98-0.98 c0.45-0.27,0.98-0.45,1.7-0.45c0.89,0,1.61,0.18,2.06,0.63c0.45,0.45,0.71,1.07,0.71,1.79v4.11h0.8v0.98H678.21z M674.91,81.49 c0.27,0,0.54,0,0.8-0.09c0.27-0.09,0.45-0.18,0.63-0.27c0.18-0.09,0.27-0.27,0.45-0.45c0.18-0.18,0.18-0.36,0.18-0.54V78.9h-1.52 c-0.63,0-1.16,0.09-1.43,0.27c-0.27,0.18-0.45,0.45-0.45,0.8v0.45c0,0.36,0.18,0.63,0.36,0.8 C674.1,81.4,674.46,81.49,674.91,81.49z"></path> <path class="st0" d="M679.55,81.31h0.98c0.09-0.18,0.27-0.36,0.36-0.63s0.18-0.54,0.27-0.89c0.09-0.36,0.09-0.71,0.18-1.16 c0.09-0.45,0.09-0.98,0.09-1.61v-2.06h5v7.33h-1.16v-6.34h-2.77v1.16c0,0.71,0,1.34-0.09,1.88c-0.09,0.54-0.09,0.98-0.18,1.34 c-0.09,0.36-0.18,0.71-0.36,0.98c-0.18,0.27-0.27,0.45-0.45,0.63s-0.36,0.27-0.63,0.36c-0.18,0.09-0.45,0.09-0.8,0.09h-0.45 L679.55,81.31L679.55,81.31z"></path> <path class="st0" d="M688.67,74.97h1.16v3.04h1.52l1.43-2.23c0.09-0.18,0.18-0.27,0.27-0.45c0.09-0.09,0.18-0.18,0.27-0.27 c0.09-0.09,0.18-0.09,0.27-0.09s0.18,0,0.36,0h0.71v0.98h-0.89l-1.16,1.79c-0.09,0.09-0.18,0.18-0.18,0.27 c0,0.09-0.09,0.18-0.18,0.18c-0.09,0.09-0.09,0.09-0.18,0.09s-0.18,0.09-0.27,0.09v0.09c0.18,0,0.36,0.09,0.54,0.18 c0.18,0.09,0.27,0.27,0.45,0.54l1.07,2.06h0.8v0.98h-0.8c-0.27,0-0.45-0.09-0.71-0.18c-0.27-0.09-0.45-0.36-0.63-0.71l-1.34-2.41 h-1.52v3.31h-1.16L688.67,74.97L688.67,74.97z"></path> <path class="st0" d="M696.62,74.97h1.07v4.11l-0.09,1.79h0.09l0.89-1.61l2.95-4.29h1.07v7.33h-1.07v-4.11l0.09-1.79h-0.09 l-0.89,1.61l-2.95,4.29h-1.07V74.97z"></path> </g> <g> <rect x="532.75" y="99" class="st0" width="24.3" height="24.3"></rect> <g> <path class="st1" d="M537.66,115.35v-1.52h2.77v-7.06h-0.09l-2.14,2.59l-1.16-0.98l2.5-2.95h2.86v8.4h2.32v1.52H537.66 L537.66,115.35z"></path> <path class="st1" d="M552.67,115.35h-6.88v-1.7l3.13-2.77c0.54-0.45,0.89-0.89,1.16-1.25c0.27-0.36,0.36-0.8,0.36-1.25v-0.18 c0-0.45-0.18-0.8-0.45-0.98c-0.27-0.27-0.63-0.36-1.07-0.36c-0.54,0-0.89,0.18-1.16,0.45c-0.27,0.27-0.45,0.63-0.54,1.07 l-1.61-0.63c0.09-0.36,0.27-0.63,0.45-0.98c0.18-0.27,0.45-0.54,0.71-0.8c0.27-0.27,0.63-0.45,0.98-0.54 c0.36-0.18,0.8-0.18,1.34-0.18s0.98,0.09,1.43,0.18c0.45,0.09,0.71,0.36,1.07,0.63c0.36,0.27,0.45,0.63,0.63,0.98 s0.18,0.71,0.18,1.16c0,0.45-0.09,0.8-0.18,1.16c-0.09,0.36-0.27,0.71-0.54,0.98c-0.27,0.27-0.45,0.63-0.8,0.89 c-0.27,0.27-0.63,0.54-0.98,0.8l-2.06,1.7h4.91v1.61H552.67z"></path> </g> </g> <g> <rect x="260.15" y="1.7" class="st0" width="24.3" height="24.3"></rect> <g> <path class="st1" d="M275.34,9.65h-4.47l-0.27,3.31h0.09c0.09-0.18,0.18-0.36,0.36-0.63c0.09-0.18,0.27-0.36,0.45-0.45 s0.36-0.18,0.54-0.27c0.18-0.09,0.45-0.09,0.8-0.09c0.45,0,0.8,0.09,1.16,0.18c0.36,0.18,0.71,0.36,0.98,0.63 c0.27,0.27,0.45,0.63,0.63,0.98c0.18,0.36,0.27,0.8,0.27,1.34c0,0.54-0.09,0.98-0.27,1.34c-0.18,0.36-0.45,0.8-0.71,1.07 c-0.36,0.36-0.71,0.54-1.16,0.71c-0.45,0.18-0.98,0.27-1.61,0.27c-0.45,0-0.89-0.09-1.25-0.18c-0.36-0.09-0.71-0.27-0.98-0.45 c-0.27-0.18-0.54-0.36-0.71-0.63c-0.18-0.27-0.36-0.45-0.54-0.71l1.34-1.07c0.09,0.18,0.27,0.36,0.36,0.54 c0.09,0.18,0.27,0.36,0.45,0.45c0.18,0.09,0.36,0.18,0.54,0.27c0.18,0.09,0.45,0.09,0.71,0.09c0.54,0,0.98-0.18,1.25-0.45 c0.27-0.36,0.45-0.71,0.45-1.25v-0.09c0-0.54-0.18-0.89-0.45-1.25c-0.27-0.36-0.71-0.45-1.25-0.45c-0.45,0-0.71,0.09-0.98,0.27 c-0.27,0.18-0.45,0.36-0.63,0.54l-1.52-0.18l0.36-5.63h5.9L275.34,9.65L275.34,9.65z"></path> </g> </g> <rect x="260.15" y="34.67" class="st0" width="24.3" height="24.3"></rect> <g> <path class="st1" d="M272.43,51.2c-0.54,0-1.07-0.09-1.52-0.27c-0.45-0.18-0.8-0.45-1.16-0.8c-0.36-0.36-0.54-0.71-0.71-1.25 s-0.27-0.98-0.27-1.61c0-0.71,0.09-1.34,0.36-2.06s0.45-1.25,0.8-1.79c0.36-0.54,0.71-0.98,1.16-1.43 c0.45-0.45,0.89-0.8,1.25-1.07h2.59c-0.63,0.45-1.07,0.8-1.61,1.25c-0.45,0.36-0.89,0.8-1.25,1.16c-0.36,0.45-0.63,0.8-0.89,1.25 c-0.18,0.45-0.36,0.89-0.54,1.43h0.09c0.09-0.18,0.18-0.36,0.36-0.54c0.09-0.18,0.27-0.36,0.45-0.45 c0.18-0.09,0.36-0.27,0.63-0.36s0.54-0.09,0.8-0.09c0.45,0,0.8,0.09,1.16,0.18c0.36,0.09,0.71,0.36,0.89,0.63 c0.27,0.27,0.45,0.63,0.63,0.98s0.18,0.8,0.18,1.25c0,0.54-0.09,0.98-0.27,1.34c-0.18,0.45-0.45,0.8-0.71,1.07 c-0.36,0.27-0.71,0.54-1.16,0.71C273.42,51.11,272.97,51.2,272.43,51.2z M272.43,49.77c0.54,0,0.89-0.18,1.25-0.45 c0.27-0.27,0.45-0.71,0.45-1.25v-0.18c0-0.54-0.18-0.98-0.45-1.25c-0.27-0.27-0.71-0.45-1.25-0.45c-0.54,0-0.98,0.18-1.25,0.45 c-0.27,0.27-0.45,0.71-0.45,1.25v0.18c0,0.54,0.18,0.98,0.45,1.25C271.45,49.59,271.9,49.77,272.43,49.77z"></path> </g> <g> <path class="st0" d="M305.42,42.09v8.94h-1.16v-8.94h-3.13v-1.07h7.51v1.07H305.42z"></path> <path class="st0" d="M309.44,43.69h1.16v1.16h0.09c0.18-0.45,0.45-0.8,0.8-1.07c0.36-0.18,0.8-0.36,1.34-0.36 c0.45,0,0.89,0.09,1.25,0.27c0.36,0.18,0.71,0.45,0.98,0.8c0.27,0.36,0.45,0.71,0.63,1.25c0.09,0.45,0.18,0.98,0.18,1.61 c0,0.63-0.09,1.16-0.18,1.61s-0.36,0.89-0.63,1.25c-0.27,0.36-0.54,0.63-0.98,0.8c-0.36,0.18-0.8,0.27-1.25,0.27 c-0.98,0-1.7-0.45-2.14-1.34h-0.09v4.02h-1.16V43.69z M312.48,50.22c0.63,0,1.16-0.18,1.52-0.63c0.36-0.45,0.54-0.89,0.54-1.61 v-1.25c0-0.63-0.18-1.16-0.54-1.61c-0.36-0.45-0.89-0.63-1.52-0.63c-0.27,0-0.54,0-0.71,0.09s-0.45,0.18-0.63,0.27 s-0.27,0.27-0.45,0.45c-0.09,0.18-0.18,0.36-0.18,0.54v2.77c0,0.27,0.09,0.45,0.18,0.63c0.09,0.18,0.27,0.36,0.45,0.45 s0.36,0.18,0.63,0.27C311.95,50.13,312.21,50.22,312.48,50.22z"></path> <path class="st0" d="M320.52,51.2c-0.45,0-0.98-0.09-1.34-0.27c-0.36-0.18-0.8-0.45-1.07-0.8c-0.27-0.36-0.54-0.71-0.71-1.25 c-0.18-0.54-0.27-0.98-0.27-1.61c0-0.63,0.09-1.07,0.27-1.61c0.18-0.54,0.36-0.89,0.71-1.25c0.27-0.36,0.63-0.63,1.07-0.8 c0.45-0.18,0.89-0.27,1.34-0.27s0.98,0.09,1.34,0.27c0.36,0.18,0.8,0.45,1.07,0.8s0.54,0.71,0.71,1.25 c0.18,0.45,0.27,0.98,0.27,1.61c0,0.63-0.09,1.16-0.27,1.61s-0.36,0.89-0.71,1.25c-0.36,0.36-0.63,0.63-1.07,0.8 C321.51,51.11,321.06,51.2,320.52,51.2z M320.52,50.22c0.63,0,1.16-0.18,1.52-0.54s0.63-0.98,0.63-1.79v-1.07 c0-0.8-0.18-1.34-0.63-1.79s-0.89-0.54-1.52-0.54s-1.16,0.18-1.52,0.54s-0.63,0.98-0.63,1.79v1.07c0,0.8,0.18,1.34,0.63,1.79 C319.36,49.95,319.9,50.22,320.52,50.22z"></path> <path class="st0" d="M325.71,43.69h5.81v7.33h-1.16v-6.34h-3.48v6.34h-1.16V43.69z"></path> <path class="st0" d="M339.29,51.02c-0.45,0-0.71-0.09-0.89-0.36c-0.18-0.27-0.27-0.54-0.36-0.89h-0.09 c-0.18,0.45-0.45,0.8-0.8,1.07c-0.36,0.27-0.8,0.36-1.34,0.36c-0.8,0-1.34-0.18-1.79-0.63c-0.45-0.45-0.63-0.98-0.63-1.61 c0-0.71,0.27-1.25,0.8-1.61c0.54-0.36,1.34-0.54,2.41-0.54h1.43v-0.71c0-0.54-0.18-0.89-0.45-1.16c-0.27-0.27-0.71-0.45-1.34-0.45 c-0.45,0-0.8,0.09-1.16,0.27c-0.27,0.18-0.54,0.45-0.71,0.8l-0.71-0.63c0.18-0.45,0.54-0.71,0.98-0.98 c0.45-0.27,0.98-0.45,1.7-0.45c0.89,0,1.61,0.18,2.06,0.63c0.45,0.45,0.71,1.07,0.71,1.79v4.02h0.8v0.98L339.29,51.02 L339.29,51.02z M335.98,50.22c0.27,0,0.54,0,0.8-0.09c0.27-0.09,0.45-0.18,0.63-0.27s0.27-0.27,0.45-0.45 c0.18-0.18,0.18-0.36,0.18-0.54v-1.25h-1.52c-0.63,0-1.16,0.09-1.43,0.27s-0.45,0.45-0.45,0.8v0.36c0,0.36,0.09,0.63,0.36,0.8 C335.18,50.13,335.54,50.22,335.98,50.22z"></path> <path class="st0" d="M346.97,51.2c-0.71,0-1.34-0.09-1.79-0.36c-0.45-0.27-0.8-0.63-1.07-1.07l0.89-0.71 c0.18,0.36,0.45,0.63,0.8,0.89c0.36,0.27,0.8,0.27,1.25,0.27c0.63,0,1.07-0.09,1.34-0.36c0.27-0.27,0.45-0.54,0.45-0.8v-0.18 c0-0.36-0.09-0.63-0.36-0.89c-0.27-0.27-0.63-0.27-1.07-0.27h-1.61v-0.98h1.43c0.45,0,0.8-0.09,1.07-0.27s0.36-0.45,0.36-0.8 v-0.18c0-0.27-0.09-0.54-0.36-0.71s-0.71-0.27-1.25-0.27c-0.45,0-0.89,0.09-1.16,0.27c-0.27,0.18-0.54,0.45-0.8,0.8l-0.8-0.63 c0.27-0.45,0.54-0.8,0.98-1.07c0.45-0.27,0.98-0.45,1.79-0.45c0.98,0,1.7,0.18,2.14,0.54c0.45,0.36,0.71,0.8,0.71,1.43 c0,0.45-0.09,0.8-0.36,1.07c-0.27,0.27-0.63,0.45-1.07,0.54v0.09c0.54,0.09,0.89,0.27,1.16,0.54c0.27,0.27,0.36,0.71,0.36,1.16 c0,0.71-0.27,1.25-0.8,1.7C348.67,51.02,347.96,51.2,346.97,51.2z"></path> <path class="st0" d="M350.99,50.04h0.8c0.27-0.45,0.54-1.07,0.71-1.79c0.18-0.71,0.27-1.52,0.27-2.41v-2.14h5v6.34h1.25v3.04 h-1.07v-1.97h-5.99v1.97h-0.98V50.04L350.99,50.04z M356.62,50.04v-5.36h-2.77v1.16c0,0.98-0.09,1.79-0.27,2.5 c-0.18,0.71-0.36,1.25-0.63,1.7H356.62z"></path> <path class="st0" d="M363.41,51.2c-0.45,0-0.98-0.09-1.34-0.27c-0.36-0.18-0.8-0.45-1.07-0.8c-0.27-0.36-0.54-0.71-0.71-1.25 c-0.18-0.54-0.27-0.98-0.27-1.61c0-0.63,0.09-1.07,0.27-1.61c0.18-0.54,0.36-0.89,0.71-1.25c0.27-0.36,0.63-0.63,1.07-0.8 c0.45-0.18,0.89-0.27,1.34-0.27c0.45,0,0.98,0.09,1.34,0.27c0.36,0.18,0.8,0.45,1.07,0.8c0.27,0.36,0.54,0.71,0.71,1.25 c0.18,0.45,0.27,0.98,0.27,1.61c0,0.63-0.09,1.16-0.27,1.61c-0.18,0.45-0.36,0.89-0.71,1.25c-0.36,0.36-0.63,0.63-1.07,0.8 C364.4,51.11,363.95,51.2,363.41,51.2z M363.41,50.22c0.63,0,1.16-0.18,1.52-0.54c0.36-0.36,0.63-0.98,0.63-1.79v-1.07 c0-0.8-0.18-1.34-0.63-1.79c-0.45-0.45-0.89-0.54-1.52-0.54s-1.16,0.18-1.52,0.54c-0.36,0.36-0.63,0.98-0.63,1.79v1.07 c0,0.8,0.18,1.34,0.63,1.79C362.25,49.95,362.79,50.22,363.41,50.22z"></path> <path class="st0" d="M368.6,43.69h1.16v1.16h0.09c0.18-0.45,0.45-0.8,0.8-1.07c0.36-0.18,0.8-0.36,1.34-0.36 c0.45,0,0.89,0.09,1.25,0.27c0.36,0.18,0.71,0.45,0.98,0.8c0.27,0.36,0.45,0.71,0.63,1.25c0.09,0.45,0.18,0.98,0.18,1.61 c0,0.63-0.09,1.16-0.18,1.61s-0.36,0.89-0.63,1.25c-0.27,0.36-0.54,0.63-0.98,0.8c-0.36,0.18-0.8,0.27-1.25,0.27 c-0.98,0-1.7-0.45-2.14-1.34h-0.09v4.02h-1.16V43.69z M371.63,50.22c0.63,0,1.16-0.18,1.52-0.63s0.54-0.89,0.54-1.61v-1.25 c0-0.63-0.18-1.16-0.54-1.61c-0.36-0.45-0.89-0.63-1.52-0.63c-0.27,0-0.54,0-0.71,0.09s-0.45,0.18-0.63,0.27s-0.27,0.27-0.45,0.45 c-0.09,0.18-0.18,0.36-0.18,0.54v2.77c0,0.27,0.09,0.45,0.18,0.63c0.09,0.18,0.27,0.36,0.45,0.45s0.36,0.18,0.63,0.27 C371.19,50.13,371.46,50.22,371.63,50.22z"></path> <path class="st0" d="M379.68,51.2c-0.45,0-0.98-0.09-1.34-0.27c-0.36-0.18-0.8-0.45-1.07-0.8c-0.27-0.36-0.54-0.71-0.71-1.25 c-0.18-0.54-0.27-0.98-0.27-1.61c0-0.63,0.09-1.07,0.27-1.61c0.18-0.54,0.36-0.89,0.71-1.25c0.27-0.36,0.63-0.63,1.07-0.8 c0.45-0.18,0.89-0.27,1.34-0.27s0.98,0.09,1.34,0.27c0.36,0.18,0.8,0.45,1.07,0.8s0.54,0.71,0.71,1.25 c0.18,0.45,0.27,0.98,0.27,1.61c0,0.63-0.09,1.16-0.27,1.61s-0.36,0.89-0.71,1.25c-0.36,0.36-0.63,0.63-1.07,0.8 C380.66,51.11,380.21,51.2,379.68,51.2z M379.68,50.22c0.63,0,1.16-0.18,1.52-0.54s0.63-0.98,0.63-1.79v-1.07 c0-0.8-0.18-1.34-0.63-1.79s-0.89-0.54-1.52-0.54s-1.16,0.18-1.52,0.54s-0.63,0.98-0.63,1.79v1.07c0,0.8,0.18,1.34,0.63,1.79 S379.05,50.22,379.68,50.22z"></path> <path class="st0" d="M384.95,43.69h3.75c0.63,0,1.07,0.18,1.43,0.54c0.36,0.36,0.54,0.8,0.54,1.34c0,0.89-0.45,1.43-1.43,1.52 v0.09c0.54,0,0.98,0.18,1.25,0.54c0.27,0.36,0.45,0.71,0.45,1.16c0,0.27,0,0.63-0.09,0.8c-0.09,0.27-0.18,0.54-0.36,0.71 c-0.18,0.18-0.36,0.36-0.63,0.45c-0.27,0.09-0.54,0.18-0.8,0.18h-4.11V43.69L384.95,43.69z M388.34,46.73 c0.36,0,0.54-0.09,0.71-0.27c0.18-0.18,0.27-0.36,0.27-0.71v-0.27c0-0.27-0.09-0.54-0.27-0.71c-0.18-0.18-0.45-0.27-0.71-0.27 h-2.23v2.14L388.34,46.73L388.34,46.73z M388.52,50.13c0.36,0,0.63-0.09,0.8-0.27c0.18-0.18,0.27-0.45,0.27-0.8V48.7 c0-0.36-0.09-0.63-0.27-0.8c-0.18-0.18-0.45-0.27-0.8-0.27h-2.41v2.41L388.52,50.13L388.52,50.13z"></path> <path class="st0" d="M392.9,43.69h1.16v2.68h2.14c0.71,0,1.34,0.18,1.79,0.63c0.45,0.45,0.63,0.98,0.63,1.7 c0,0.71-0.18,1.34-0.63,1.7c-0.45,0.36-0.98,0.63-1.79,0.63h-3.22L392.9,43.69L392.9,43.69z M395.94,50.04 c0.45,0,0.8-0.09,0.98-0.27c0.18-0.18,0.36-0.45,0.36-0.8v-0.63c0-0.36-0.09-0.63-0.36-0.8c-0.27-0.18-0.54-0.27-0.98-0.27h-1.97 v2.68h1.97V50.04z"></path> <path class="st0" d="M399.69,50.04h0.8l0.45-1.07c0.09-0.27,0.27-0.45,0.36-0.54c0.18-0.09,0.36-0.18,0.54-0.27v-0.09 c-0.63-0.09-1.16-0.27-1.52-0.63c-0.36-0.36-0.54-0.89-0.54-1.52c0-0.71,0.18-1.25,0.63-1.7c0.45-0.45,0.98-0.63,1.79-0.63h3.22 v7.33h-1.16v-2.77h-1.88l-0.8,1.79c-0.18,0.45-0.36,0.71-0.54,0.8s-0.45,0.18-0.71,0.18h-0.8L399.69,50.04L399.69,50.04z M404.43,47.27v-2.59h-1.97c-0.45,0-0.8,0.09-0.98,0.27s-0.36,0.45-0.36,0.8v0.45c0,0.36,0.09,0.63,0.36,0.8s0.54,0.27,0.98,0.27 H404.43z"></path> </g> <g> <path class="st0" d="M301.13,8.04h4.02c0.8,0,1.43,0.27,1.88,0.71c0.45,0.45,0.71,1.07,0.71,1.88c0,0.36-0.09,0.71-0.18,0.89 c-0.09,0.27-0.27,0.45-0.36,0.63c-0.18,0.18-0.36,0.27-0.54,0.36s-0.36,0.09-0.54,0.18v0.09c0.18,0,0.36,0.09,0.63,0.18 c0.18,0.09,0.45,0.18,0.63,0.36s0.36,0.45,0.54,0.71c0.18,0.27,0.18,0.63,0.18,1.07c0,0.45-0.09,0.8-0.18,1.16 c-0.09,0.36-0.27,0.63-0.54,0.89s-0.54,0.45-0.8,0.63c-0.27,0.18-0.63,0.18-0.98,0.18h-4.47V8.04z M302.3,12.33h2.68 c0.45,0,0.8-0.09,1.07-0.36c0.27-0.27,0.36-0.54,0.36-0.98v-0.54c0-0.45-0.09-0.8-0.36-0.98c-0.27-0.27-0.63-0.36-1.07-0.36h-2.68 V12.33z M302.3,16.8h2.95c0.54,0,0.89-0.09,1.16-0.36c0.27-0.27,0.45-0.63,0.45-1.16v-0.45c0-0.54-0.18-0.89-0.45-1.16 c-0.27-0.27-0.71-0.36-1.16-0.36h-2.95V16.8z"></path> <path class="st0" d="M311.14,11.62h-1.88v-0.98h3.04v2.59h2.06c0.71,0,1.34,0.18,1.7,0.63c0.45,0.45,0.63,0.98,0.63,1.7 s-0.18,1.34-0.63,1.7c-0.45,0.36-0.98,0.63-1.7,0.63h-3.22L311.14,11.62L311.14,11.62z M314.18,16.89c0.45,0,0.71-0.09,0.98-0.27 c0.27-0.18,0.36-0.45,0.36-0.8v-0.63c0-0.36-0.09-0.63-0.36-0.8c-0.27-0.18-0.54-0.27-0.98-0.27h-1.88v2.68L314.18,16.89 L314.18,16.89z"></path> <path class="st0" d="M321.24,18.05c-0.54,0-0.98-0.09-1.34-0.27c-0.36-0.18-0.71-0.45-0.98-0.8s-0.54-0.71-0.63-1.16 c-0.18-0.45-0.27-0.98-0.27-1.61c0-0.54,0.09-1.07,0.27-1.52c0.18-0.45,0.36-0.89,0.63-1.16c0.27-0.36,0.63-0.63,0.98-0.8 c0.36-0.18,0.8-0.27,1.34-0.27c0.45,0,0.89,0.09,1.34,0.27c0.36,0.18,0.71,0.45,0.98,0.71c0.27,0.27,0.45,0.71,0.63,1.07 c0.18,0.45,0.18,0.89,0.18,1.43v0.54h-5.18v0.36c0,0.27,0.09,0.63,0.18,0.89s0.27,0.54,0.45,0.71c0.18,0.18,0.45,0.36,0.71,0.45 c0.27,0.09,0.54,0.18,0.89,0.18c0.45,0,0.89-0.09,1.16-0.36c0.36-0.18,0.63-0.54,0.8-0.89l0.8,0.54 c-0.27,0.54-0.63,0.89-1.07,1.25C322.49,17.87,321.86,18.05,321.24,18.05z M321.24,11.35c-0.27,0-0.63,0.09-0.8,0.18 c-0.27,0.09-0.45,0.27-0.63,0.45s-0.36,0.45-0.45,0.71c-0.09,0.27-0.18,0.54-0.18,0.89v0.09h4.02v-0.18 c0-0.63-0.18-1.16-0.54-1.52C322.22,11.62,321.77,11.35,321.24,11.35z"></path> <path class="st0" d="M328.21,18.05c-0.71,0-1.34-0.09-1.79-0.36s-0.8-0.63-1.07-1.07l0.8-0.71c0.18,0.36,0.45,0.63,0.8,0.8 c0.36,0.18,0.71,0.27,1.25,0.27c0.63,0,1.07-0.09,1.34-0.36c0.27-0.18,0.45-0.54,0.45-0.8v-0.18c0-0.36-0.09-0.63-0.36-0.8 c-0.27-0.18-0.63-0.27-1.07-0.27h-1.52v-0.98h1.43c0.45,0,0.8-0.09,1.07-0.27s0.36-0.45,0.36-0.71v-0.18 c0-0.27-0.09-0.54-0.36-0.71c-0.27-0.18-0.63-0.27-1.25-0.27c-0.45,0-0.89,0.09-1.16,0.27s-0.54,0.45-0.71,0.8l-0.71-0.63 c0.27-0.45,0.54-0.8,0.98-1.07c0.45-0.27,0.98-0.36,1.7-0.36c0.98,0,1.61,0.18,2.06,0.54c0.45,0.36,0.71,0.8,0.71,1.43 c0,0.45-0.09,0.8-0.36,1.07c-0.27,0.27-0.63,0.45-1.07,0.54v0.09c0.54,0.09,0.89,0.27,1.16,0.54c0.27,0.27,0.36,0.71,0.36,1.16 c0,0.71-0.27,1.25-0.8,1.7C329.91,17.78,329.19,18.05,328.21,18.05z"></path> <path class="st0" d="M332.14,16.89h0.8c0.27-0.45,0.54-1.07,0.71-1.79c0.18-0.71,0.27-1.52,0.27-2.41v-2.06h4.91v6.25h1.25v2.95 h-0.98v-1.97h-5.9v1.97h-0.98L332.14,16.89L332.14,16.89z M337.77,16.89v-5.27h-2.68v1.16c0,0.98-0.09,1.79-0.27,2.41 c-0.18,0.71-0.36,1.25-0.63,1.61h3.57V16.89z"></path> <path class="st0" d="M341.61,10.63h1.16v3.04h3.66v-3.04h1.16v7.24h-1.16v-3.22h-3.66v3.22h-1.16V10.63z"></path> <path class="st0" d="M355.1,17.87c-0.45,0-0.71-0.09-0.89-0.36c-0.18-0.27-0.27-0.54-0.36-0.8h-0.09c-0.18,0.45-0.45,0.8-0.8,0.98 c-0.36,0.27-0.8,0.36-1.34,0.36c-0.8,0-1.34-0.18-1.79-0.63c-0.45-0.36-0.63-0.89-0.63-1.61c0-0.71,0.27-1.25,0.71-1.61 c0.54-0.36,1.25-0.54,2.32-0.54h1.43v-0.71c0-0.54-0.18-0.89-0.45-1.16c-0.27-0.27-0.71-0.45-1.25-0.45 c-0.45,0-0.8,0.09-1.07,0.27s-0.54,0.45-0.71,0.8l-0.71-0.63c0.18-0.36,0.54-0.71,0.98-0.98c0.45-0.27,0.98-0.45,1.61-0.45 c0.89,0,1.61,0.18,2.06,0.63s0.71,1.07,0.71,1.79v4.11h0.8v0.98H355.1z M351.89,17.07c0.27,0,0.54,0,0.8-0.09s0.45-0.18,0.63-0.27 c0.18-0.09,0.27-0.27,0.36-0.45s0.18-0.36,0.18-0.54v-1.16h-1.52c-0.63,0-1.16,0.09-1.43,0.27s-0.45,0.45-0.45,0.8v0.27 c0,0.36,0.09,0.63,0.36,0.8C351.08,16.98,351.44,17.07,351.89,17.07z"></path> <path class="st0" d="M356.71,16.89h0.8l0.45-1.07c0.09-0.27,0.27-0.45,0.36-0.54c0.18-0.09,0.36-0.18,0.54-0.27v-0.09 c-0.63-0.09-1.16-0.27-1.43-0.63c-0.36-0.36-0.54-0.89-0.54-1.52c0-0.71,0.18-1.25,0.63-1.61c0.45-0.36,0.98-0.63,1.79-0.63h3.22 v7.24h-1.16V15.1h-1.88l-0.71,1.79c-0.18,0.36-0.36,0.63-0.54,0.8c-0.18,0.18-0.45,0.18-0.71,0.18h-0.8V16.89L356.71,16.89z M361.36,14.12v-2.5h-1.88c-0.45,0-0.71,0.09-0.98,0.27c-0.27,0.18-0.36,0.45-0.36,0.8v0.45c0,0.36,0.09,0.63,0.36,0.8 s0.54,0.27,0.98,0.27L361.36,14.12L361.36,14.12z"></path> <path class="st0" d="M368.24,10.63h4.56v0.98h-3.48v6.25h-1.16L368.24,10.63L368.24,10.63z"></path> <path class="st0" d="M374.31,10.63h1.16v1.16h0.09c0.18-0.45,0.45-0.8,0.8-0.98c0.36-0.18,0.8-0.36,1.34-0.36 c0.45,0,0.89,0.09,1.25,0.27c0.36,0.18,0.71,0.45,0.89,0.71c0.27,0.36,0.45,0.71,0.63,1.16c0.18,0.45,0.18,0.98,0.18,1.61 c0,0.63-0.09,1.07-0.18,1.61c-0.18,0.45-0.36,0.89-0.63,1.16c-0.27,0.36-0.54,0.63-0.89,0.71c-0.36,0.18-0.8,0.27-1.25,0.27 c-0.98,0-1.7-0.45-2.14-1.34h-0.09v4.02h-1.16V10.63z M377.35,17.07c0.63,0,1.16-0.18,1.52-0.63c0.36-0.36,0.54-0.89,0.54-1.61 v-1.25c0-0.63-0.18-1.16-0.54-1.61c-0.36-0.36-0.89-0.63-1.52-0.63c-0.27,0-0.54,0-0.71,0.09c-0.27,0.09-0.45,0.18-0.63,0.27 s-0.27,0.27-0.36,0.45c-0.09,0.18-0.18,0.36-0.18,0.54v2.68c0,0.27,0.09,0.45,0.18,0.63c0.09,0.18,0.27,0.36,0.36,0.45 c0.18,0.09,0.36,0.27,0.63,0.27C376.82,16.98,377.08,17.07,377.35,17.07z"></path> <path class="st0" d="M386.91,10.63h1.07l-3.22,8.94c-0.09,0.18-0.18,0.36-0.27,0.54c-0.09,0.18-0.18,0.27-0.27,0.36 c-0.09,0.09-0.27,0.18-0.45,0.18c-0.18,0-0.45,0.09-0.63,0.09h-0.54v-0.98h1.16l0.54-1.52l-2.68-7.51h1.16l1.79,4.91l0.36,1.16 h0.09l0.36-1.16L386.91,10.63z"></path> <path class="st0" d="M389.42,10.63h5.63v7.24h-1.16v-6.25h-3.4v6.25h-1.07V10.63z"></path> <path class="st0" d="M397.46,10.63h5.63v7.24h-1.16v-6.25h-3.4v6.25h-1.07V10.63z"></path> <path class="st0" d="M410.77,17.87c-0.45,0-0.71-0.09-0.89-0.36c-0.18-0.27-0.27-0.54-0.36-0.8h-0.09 c-0.18,0.45-0.45,0.8-0.8,0.98c-0.36,0.27-0.8,0.36-1.34,0.36c-0.8,0-1.34-0.18-1.79-0.63c-0.45-0.36-0.63-0.89-0.63-1.61 c0-0.71,0.27-1.25,0.71-1.61c0.45-0.36,1.25-0.54,2.32-0.54h1.43v-0.71c0-0.54-0.18-0.89-0.45-1.16 c-0.27-0.27-0.71-0.45-1.25-0.45c-0.45,0-0.8,0.09-1.07,0.27c-0.27,0.18-0.54,0.45-0.71,0.8l-0.71-0.63 c0.18-0.36,0.54-0.71,0.98-0.98c0.45-0.27,0.98-0.45,1.61-0.45c0.89,0,1.61,0.18,2.06,0.63c0.45,0.45,0.71,1.07,0.71,1.79v4.11 h0.8v0.98H410.77z M407.55,17.07c0.27,0,0.54,0,0.8-0.09c0.27-0.09,0.45-0.18,0.63-0.27c0.18-0.09,0.27-0.27,0.36-0.45 s0.18-0.36,0.18-0.54v-1.16H408c-0.63,0-1.16,0.09-1.43,0.27c-0.27,0.18-0.45,0.45-0.45,0.8v0.27c0,0.36,0.09,0.63,0.36,0.8 C406.75,16.98,407.11,17.07,407.55,17.07z"></path> </g> <g> <path class="st0" d="M581.53,41.01L581.53,41.01l-0.89,1.7L578.32,47l-2.32-4.29l-0.8-1.7h-0.09v8.31h-1.16V39.4h1.61l2.86,5.36 h0.09l2.86-5.36h1.52v9.92h-1.16v-8.31H581.53z"></path> <path class="st0" d="M587.97,49.5c-0.45,0-0.98-0.09-1.34-0.27c-0.45-0.18-0.71-0.45-1.07-0.8c-0.27-0.36-0.54-0.71-0.71-1.16 s-0.27-0.98-0.27-1.61c0-0.54,0.09-1.07,0.27-1.61s0.36-0.89,0.71-1.25c0.27-0.36,0.63-0.63,1.07-0.8s0.89-0.27,1.34-0.27 c0.45,0,0.89,0.09,1.34,0.27c0.36,0.18,0.71,0.45,1.07,0.8c0.27,0.36,0.54,0.71,0.71,1.25s0.27,0.98,0.27,1.61 s-0.09,1.07-0.27,1.61s-0.36,0.89-0.71,1.16c-0.27,0.36-0.63,0.63-1.07,0.8C588.95,49.41,588.5,49.5,587.97,49.5z M587.97,48.52 c0.63,0,1.07-0.18,1.52-0.54c0.36-0.36,0.63-0.98,0.63-1.7v-1.07c0-0.8-0.18-1.34-0.63-1.7c-0.36-0.36-0.89-0.54-1.52-0.54 s-1.07,0.18-1.52,0.54c-0.36,0.36-0.63,0.98-0.63,1.7v1.07c0,0.8,0.18,1.34,0.63,1.7C586.89,48.34,587.34,48.52,587.97,48.52z"></path> <path class="st0" d="M595.92,49.5c-0.54,0-0.98-0.09-1.34-0.27c-0.45-0.18-0.71-0.45-1.07-0.8c-0.27-0.36-0.45-0.71-0.63-1.16 c-0.18-0.45-0.18-0.98-0.18-1.61s0.09-1.07,0.18-1.61c0.09-0.54,0.36-0.89,0.63-1.16c0.27-0.36,0.63-0.63,1.07-0.8 c0.45-0.18,0.89-0.27,1.34-0.27c0.71,0,1.34,0.18,1.79,0.45c0.45,0.36,0.8,0.71,0.98,1.25l-0.98,0.45 c-0.09-0.36-0.36-0.71-0.63-0.89s-0.71-0.27-1.16-0.27c-0.36,0-0.63,0.09-0.89,0.18c-0.27,0.09-0.45,0.27-0.63,0.45 s-0.27,0.45-0.36,0.71s-0.09,0.54-0.09,0.89v1.25c0,0.63,0.18,1.16,0.54,1.61c0.36,0.45,0.89,0.63,1.52,0.63 c0.89,0,1.61-0.45,1.97-1.25l0.8,0.54c-0.27,0.54-0.63,0.98-1.07,1.25C597.17,49.32,596.54,49.5,595.92,49.5z"></path> <path class="st0" d="M601.91,43.07h-2.5V42h6.17v0.98h-2.5v6.34h-1.16L601.91,43.07L601.91,43.07z"></path> <path class="st0" d="M607,42h1.07v4.02l-0.09,1.79h0.09l0.89-1.52l2.95-4.29h1.07v7.33h-1.16V45.3l0.09-1.79h-0.09l-0.89,1.52 l-2.95,4.29h-1.07V42H607z"></path> <path class="st0" d="M615.4,42h1.16v3.04h1.43l1.43-2.23c0.09-0.18,0.18-0.27,0.27-0.45c0.09-0.09,0.18-0.18,0.27-0.27 c0.09-0.09,0.18-0.09,0.27-0.09c0.09,0,0.18,0,0.36,0h0.63v0.98h-0.89l-1.16,1.79c-0.09,0.09-0.18,0.18-0.18,0.27 s-0.09,0.18-0.18,0.18c-0.09,0.09-0.09,0.09-0.18,0.09c-0.09,0-0.18,0.09-0.27,0.09v0.18c0.18,0,0.36,0.09,0.54,0.18 c0.18,0.09,0.27,0.27,0.45,0.54l1.16,1.97h0.8v0.98h-0.8c-0.27,0-0.45-0.09-0.71-0.18c-0.18-0.09-0.36-0.36-0.63-0.71l-1.34-2.41 h-1.43v3.31h-0.98V42z"></path> <path class="st0" d="M630.59,46.02L630.59,46.02c-0.27,0.27-0.54,0.45-0.89,0.63c-0.36,0.18-0.8,0.27-1.34,0.27 c-0.71,0-1.34-0.18-1.79-0.54c-0.45-0.36-0.63-0.89-0.63-1.7V42h1.16v2.5c0,0.89,0.54,1.34,1.61,1.34c0.54,0,0.98-0.09,1.34-0.18 c0.36-0.18,0.54-0.36,0.54-0.71V42h1.16v7.33h-1.16V46.02z"></path> <path class="st0" d="M636.84,49.5c-0.54,0-0.98-0.09-1.34-0.27s-0.71-0.45-1.07-0.8c-0.27-0.36-0.54-0.71-0.63-1.16 c-0.18-0.45-0.27-0.98-0.27-1.61c0-0.54,0.09-1.07,0.27-1.61c0.18-0.45,0.36-0.89,0.63-1.25c0.27-0.36,0.63-0.63,1.07-0.8 s0.89-0.27,1.34-0.27c0.45,0,0.89,0.09,1.34,0.27s0.71,0.45,0.98,0.71c0.27,0.36,0.45,0.71,0.63,1.16s0.18,0.89,0.18,1.43v0.54 h-5.27v0.36c0,0.27,0.09,0.63,0.18,0.89c0.09,0.27,0.27,0.54,0.45,0.71s0.45,0.36,0.71,0.45c0.27,0.09,0.54,0.18,0.89,0.18 c0.45,0,0.89-0.09,1.25-0.36c0.36-0.18,0.63-0.54,0.8-0.89l0.8,0.63c-0.27,0.54-0.63,0.89-1.07,1.25 C638.18,49.32,637.56,49.5,636.84,49.5z M636.84,42.8c-0.27,0-0.63,0.09-0.89,0.18c-0.27,0.09-0.45,0.27-0.63,0.45 s-0.36,0.45-0.45,0.71c-0.09,0.27-0.18,0.54-0.18,0.89v0.09h4.02v-0.18c0-0.63-0.18-1.16-0.54-1.52 C637.92,42.98,637.47,42.8,636.84,42.8z"></path> <path class="st0" d="M641.94,42h1.16v1.16h0.09c0.18-0.45,0.45-0.8,0.8-0.98c0.36-0.18,0.8-0.36,1.34-0.36 c0.45,0,0.89,0.09,1.25,0.27s0.71,0.45,0.98,0.8s0.45,0.71,0.63,1.16s0.18,0.98,0.18,1.61s-0.09,1.07-0.18,1.61 c-0.18,0.45-0.36,0.89-0.63,1.16c-0.27,0.36-0.54,0.63-0.98,0.8c-0.36,0.18-0.8,0.27-1.25,0.27c-0.98,0-1.7-0.45-2.14-1.34h-0.09 v4.02h-1.16V42z M644.97,48.52c0.63,0,1.16-0.18,1.52-0.63s0.54-0.89,0.54-1.61v-1.25c0-0.63-0.18-1.16-0.54-1.61 s-0.89-0.63-1.52-0.63c-0.27,0-0.54,0-0.71,0.09c-0.27,0.09-0.45,0.18-0.63,0.27s-0.27,0.27-0.45,0.45 c-0.09,0.18-0.18,0.36-0.18,0.54v2.77c0,0.27,0.09,0.45,0.18,0.63c0.09,0.18,0.27,0.36,0.45,0.45s0.36,0.27,0.63,0.27 C644.44,48.43,644.71,48.52,644.97,48.52z"></path> <path class="st0" d="M652.84,49.5c-0.54,0-0.98-0.09-1.34-0.27c-0.36-0.18-0.71-0.45-1.07-0.8c-0.27-0.36-0.54-0.71-0.63-1.16 c-0.18-0.45-0.27-0.98-0.27-1.61c0-0.54,0.09-1.07,0.27-1.61c0.18-0.45,0.36-0.89,0.63-1.25s0.63-0.63,1.07-0.8 c0.45-0.18,0.89-0.27,1.34-0.27s0.89,0.09,1.34,0.27c0.45,0.18,0.71,0.45,0.98,0.71c0.27,0.36,0.45,0.71,0.63,1.16 s0.18,0.89,0.18,1.43v0.54h-5.27v0.36c0,0.27,0.09,0.63,0.18,0.89c0.09,0.27,0.27,0.54,0.45,0.71c0.18,0.18,0.45,0.36,0.71,0.45 s0.54,0.18,0.89,0.18c0.45,0,0.89-0.09,1.25-0.36c0.36-0.18,0.63-0.54,0.8-0.89l0.8,0.63c-0.27,0.54-0.63,0.89-1.07,1.25 C654.18,49.32,653.55,49.5,652.84,49.5z M652.84,42.8c-0.27,0-0.63,0.09-0.89,0.18c-0.27,0.09-0.45,0.27-0.63,0.45 c-0.18,0.18-0.36,0.45-0.45,0.71c-0.09,0.27-0.18,0.54-0.18,0.89v0.09h4.02v-0.18c0-0.63-0.18-1.16-0.54-1.52 C653.91,42.98,653.46,42.8,652.84,42.8z"></path> <path class="st0" d="M659.99,49.5c-0.71,0-1.34-0.09-1.79-0.36c-0.45-0.27-0.8-0.63-1.07-1.07l0.89-0.71 c0.18,0.36,0.45,0.63,0.8,0.8c0.36,0.18,0.71,0.27,1.25,0.27c0.63,0,1.07-0.09,1.34-0.36c0.27-0.18,0.45-0.54,0.45-0.8v-0.18 c0-0.36-0.09-0.63-0.36-0.8c-0.27-0.18-0.63-0.27-1.07-0.27h-1.52v-0.98h1.43c0.45,0,0.8-0.09,1.07-0.27s0.36-0.45,0.36-0.8v-0.18 c0-0.27-0.09-0.54-0.36-0.71c-0.27-0.18-0.63-0.27-1.25-0.27c-0.45,0-0.89,0.09-1.16,0.27s-0.54,0.45-0.71,0.8l-0.71-0.63 c0.27-0.45,0.54-0.8,0.98-1.07s0.98-0.45,1.79-0.45c0.98,0,1.7,0.18,2.14,0.54c0.45,0.36,0.71,0.8,0.71,1.43 c0,0.45-0.09,0.8-0.36,1.07s-0.63,0.45-1.07,0.54v0.09c0.54,0.09,0.89,0.27,1.16,0.54c0.27,0.27,0.36,0.71,0.36,1.16 c0,0.71-0.27,1.25-0.8,1.7C661.95,49.23,660.88,49.5,659.99,49.5z"></path> <path class="st0" d="M668.38,42h1.16v1.16h0.09c0.18-0.45,0.45-0.8,0.8-0.98c0.36-0.18,0.8-0.36,1.34-0.36 c0.45,0,0.89,0.09,1.25,0.27s0.71,0.45,0.98,0.8s0.45,0.71,0.63,1.16s0.18,0.98,0.18,1.61s-0.09,1.07-0.18,1.61 c-0.18,0.45-0.36,0.89-0.63,1.16c-0.27,0.36-0.54,0.63-0.98,0.8c-0.36,0.18-0.8,0.27-1.25,0.27c-0.98,0-1.7-0.45-2.14-1.34h-0.09 v4.02h-1.16V42z M671.33,48.52c0.63,0,1.16-0.18,1.52-0.63s0.54-0.89,0.54-1.61v-1.25c0-0.63-0.18-1.16-0.54-1.61 c-0.36-0.45-0.89-0.63-1.52-0.63c-0.27,0-0.54,0-0.71,0.09c-0.27,0.09-0.45,0.18-0.63,0.27s-0.27,0.27-0.45,0.45 c-0.09,0.18-0.18,0.36-0.18,0.54v2.77c0,0.27,0.09,0.45,0.18,0.63c0.09,0.18,0.27,0.36,0.45,0.45s0.36,0.27,0.63,0.27 C670.89,48.43,671.15,48.52,671.33,48.52z"></path> <path class="st0" d="M677.05,49.5c-0.27,0-0.54-0.09-0.63-0.27c-0.18-0.18-0.18-0.36-0.18-0.63v-0.18c0-0.27,0.09-0.45,0.18-0.63 c0.18-0.18,0.36-0.27,0.63-0.27s0.54,0.09,0.63,0.27c0.18,0.18,0.18,0.36,0.18,0.63v0.18c0,0.27-0.09,0.45-0.18,0.63 C677.59,49.41,677.32,49.5,677.05,49.5z"></path> <path class="st0" d="M687.06,49.5c-1.25,0-2.23-0.45-2.95-1.25c-0.71-0.89-1.07-2.14-1.07-3.75c0-1.7,0.36-2.95,1.07-3.84 c0.71-0.89,1.7-1.34,2.95-1.34c0.8,0,1.52,0.18,2.06,0.54c0.54,0.36,0.98,0.89,1.34,1.61L689.56,42 c-0.18-0.54-0.54-0.89-0.89-1.25c-0.45-0.27-0.89-0.45-1.52-0.45c-0.45,0-0.8,0.09-1.16,0.27s-0.63,0.36-0.89,0.71 c-0.27,0.36-0.45,0.63-0.54,1.07c-0.09,0.45-0.18,0.89-0.18,1.43v1.52c0,0.98,0.27,1.79,0.71,2.41c0.45,0.54,1.16,0.89,1.97,0.89 c0.63,0,1.16-0.18,1.61-0.45s0.71-0.71,0.89-1.34l0.98,0.63c-0.27,0.71-0.8,1.25-1.34,1.61C688.67,49.32,687.95,49.5,687.06,49.5z "></path> <path class="st0" d="M696.8,42h1.16l-3.31,9.02c-0.09,0.18-0.18,0.36-0.27,0.54c-0.09,0.18-0.18,0.27-0.27,0.36 c-0.09,0.09-0.27,0.18-0.45,0.18s-0.45,0.09-0.71,0.09h-0.63V51.2h1.16l0.54-1.52L691.35,42h1.16l1.79,5l0.36,1.16h0.09L695.1,47 L696.8,42z"></path> <path class="st0" d="M699.39,42h1.52l2.23,3.84h0.09l2.23-3.84h1.43v7.33h-1.07v-5.99h-0.18l-0.45,0.8l-2.14,3.66l-2.14-3.66 l-0.45-0.8h-0.09v5.99h-0.98V42z"></path> <path class="st0" d="M709.22,42h1.16v3.04h1.43l1.43-2.23c0.09-0.18,0.18-0.27,0.27-0.45c0.09-0.09,0.18-0.18,0.27-0.27 c0.09-0.09,0.18-0.09,0.27-0.09c0.09,0,0.18,0,0.36,0h0.63v0.98h-0.89l-1.16,1.79c-0.09,0.09-0.18,0.18-0.18,0.27 s-0.09,0.18-0.18,0.18c-0.09,0.09-0.09,0.09-0.18,0.09s-0.18,0.09-0.27,0.09v0.18c0.18,0,0.36,0.09,0.54,0.18 c0.18,0.09,0.27,0.27,0.45,0.54l1.16,1.97h0.8v0.98h-0.8c-0.27,0-0.45-0.09-0.71-0.18c-0.18-0.09-0.36-0.36-0.63-0.71l-1.34-2.41 h-1.43v3.31h-0.98V42z"></path> <path class="st0" d="M721.55,42h1.16l-3.31,9.02c-0.09,0.18-0.18,0.36-0.27,0.54c-0.09,0.18-0.18,0.27-0.27,0.36 c-0.09,0.09-0.27,0.18-0.45,0.18s-0.45,0.09-0.71,0.09h-0.63V51.2h1.16l0.54-1.52l-2.77-7.6h1.16l1.79,5l0.36,1.16h0.09l0.36-1.16 L721.55,42z"></path> </g> <g> <g> <g> <path class="st0" d="M581.8,106.96L581.8,106.96l-0.89,1.7l-2.41,4.38l-2.41-4.38l-0.8-1.7h-0.09v8.4h-1.16v-10.01h1.61 l2.86,5.36h0.09l2.86-5.36h1.52v10.01h-1.16V106.96L581.8,106.96z"></path> <path class="st0" d="M588.32,115.53c-0.54,0-0.98-0.09-1.34-0.27c-0.45-0.18-0.71-0.45-1.07-0.8c-0.36-0.36-0.54-0.71-0.71-1.25 s-0.27-0.98-0.27-1.61s0.09-1.07,0.27-1.61s0.36-0.89,0.71-1.25c0.27-0.36,0.63-0.63,1.07-0.8c0.45-0.18,0.89-0.27,1.34-0.27 s0.89,0.09,1.34,0.27c0.36,0.18,0.71,0.45,0.98,0.71c0.27,0.27,0.45,0.71,0.63,1.16c0.18,0.45,0.18,0.89,0.18,1.43v0.54h-5.27 v0.36c0,0.27,0.09,0.63,0.18,0.89c0.09,0.27,0.27,0.54,0.45,0.71c0.18,0.18,0.45,0.36,0.71,0.45c0.27,0.09,0.63,0.18,0.89,0.18 c0.45,0,0.89-0.09,1.25-0.36c0.36-0.18,0.63-0.54,0.8-0.98l0.8,0.63c-0.27,0.54-0.63,0.89-1.07,1.25 C589.75,115.27,588.95,115.53,588.32,115.53z M588.32,108.74c-0.27,0-0.63,0.09-0.89,0.18c-0.27,0.09-0.45,0.27-0.63,0.45 s-0.36,0.45-0.45,0.71c-0.09,0.27-0.18,0.54-0.18,0.89v0.09h4.11v-0.18c0-0.63-0.18-1.16-0.54-1.61 C589.4,108.92,588.86,108.74,588.32,108.74z"></path> <path class="st0" d="M596.1,115.53c-0.54,0-0.98-0.09-1.34-0.27c-0.45-0.18-0.71-0.45-1.07-0.8c-0.27-0.36-0.45-0.71-0.63-1.25 s-0.18-0.98-0.18-1.61s0.09-1.16,0.18-1.61c0.09-0.45,0.36-0.89,0.63-1.25c0.27-0.36,0.63-0.63,1.07-0.8 c0.45-0.18,0.89-0.27,1.34-0.27c0.71,0,1.34,0.18,1.79,0.45c0.45,0.36,0.8,0.71,0.98,1.25l-0.98,0.45 c-0.18-0.36-0.36-0.71-0.63-0.89s-0.71-0.27-1.16-0.27c-0.36,0-0.63,0.09-0.89,0.18c-0.27,0.09-0.45,0.27-0.63,0.45 s-0.27,0.45-0.36,0.71c-0.09,0.27-0.09,0.54-0.09,0.89v1.25c0,0.63,0.18,1.16,0.54,1.61c0.36,0.45,0.89,0.63,1.52,0.63 c0.89,0,1.61-0.45,1.97-1.25l0.8,0.54c-0.27,0.54-0.63,0.98-1.07,1.25C597.44,115.35,596.81,115.53,596.1,115.53z"></path> <path class="st0" d="M602.17,108.92h-2.5v-0.98h6.17v0.98h-2.5v6.34h-1.16L602.17,108.92L602.17,108.92z"></path> <path class="st0" d="M609.95,115.53c-0.45,0-0.98-0.09-1.34-0.27s-0.71-0.45-1.07-0.8c-0.36-0.36-0.54-0.71-0.71-1.25 s-0.27-0.98-0.27-1.61s0.09-1.07,0.27-1.61s0.36-0.89,0.71-1.25c0.27-0.36,0.63-0.63,1.07-0.8c0.45-0.18,0.89-0.27,1.34-0.27 c0.45,0,0.98,0.09,1.34,0.27c0.45,0.18,0.71,0.45,1.07,0.8c0.27,0.36,0.54,0.71,0.71,1.25c0.18,0.45,0.27,0.98,0.27,1.61 c0,0.63-0.09,1.16-0.27,1.61c-0.18,0.45-0.36,0.89-0.71,1.25c-0.27,0.36-0.63,0.63-1.07,0.8 C610.93,115.44,610.48,115.53,609.95,115.53z M609.95,114.46c0.63,0,1.16-0.18,1.52-0.54s0.63-0.98,0.63-1.7v-1.07 c0-0.8-0.18-1.34-0.63-1.7s-0.89-0.54-1.52-0.54s-1.16,0.18-1.52,0.54s-0.63,0.98-0.63,1.7v1.07c0,0.8,0.18,1.34,0.63,1.7 C608.79,114.28,609.32,114.46,609.95,114.46z"></path> <path class="st0" d="M617.45,114.28h0.8c0.27-0.45,0.54-1.07,0.71-1.79s0.27-1.52,0.27-2.41v-2.14h5v6.34h1.25v3.04h-1.07v-1.97 h-5.99v1.97h-1.07L617.45,114.28L617.45,114.28z M623.08,114.28v-5.36h-2.77v1.16c0,0.98-0.09,1.79-0.27,2.5 s-0.36,1.25-0.63,1.7C619.42,114.28,623.08,114.28,623.08,114.28z"></path> <path class="st0" d="M626.03,114.28h0.98c0.09-0.18,0.27-0.36,0.36-0.63s0.18-0.54,0.27-0.89c0.09-0.36,0.09-0.71,0.18-1.16 c0.09-0.45,0.09-0.98,0.09-1.61v-2.06h5v7.33h-1.16v-6.34h-2.77v1.16c0,0.71,0,1.34-0.09,1.88c-0.09,0.54-0.09,0.98-0.18,1.34 s-0.18,0.71-0.36,0.98c-0.09,0.27-0.27,0.45-0.45,0.54c-0.18,0.18-0.36,0.27-0.63,0.36c-0.18,0.09-0.45,0.09-0.8,0.09h-0.45 L626.03,114.28L626.03,114.28z"></path> <path class="st0" d="M634.61,114.28h0.8l0.45-1.07c0.09-0.27,0.27-0.45,0.36-0.54c0.18-0.09,0.36-0.18,0.54-0.27v-0.09 c-0.63-0.09-1.16-0.27-1.52-0.63c-0.36-0.36-0.54-0.89-0.54-1.52c0-0.71,0.18-1.25,0.63-1.7c0.45-0.45,0.98-0.63,1.79-0.63h3.31 v7.33h-1.07v-2.86h-1.88l-0.8,1.79c-0.18,0.36-0.36,0.71-0.54,0.8s-0.45,0.18-0.71,0.18h-0.8V114.28L634.61,114.28z M639.35,111.51v-2.59h-1.97c-0.45,0-0.71,0.09-0.98,0.27c-0.27,0.18-0.36,0.45-0.36,0.8v0.45c0,0.36,0.09,0.63,0.36,0.8 c0.27,0.18,0.54,0.27,0.98,0.27L639.35,111.51z"></path> <path class="st0" d="M646.23,107.94h3.75c0.63,0,1.07,0.18,1.43,0.54s0.54,0.8,0.54,1.34c0,0.89-0.45,1.43-1.43,1.52v0.09 c0.54,0.09,0.98,0.18,1.25,0.54c0.27,0.36,0.45,0.71,0.45,1.16c0,0.27,0,0.63-0.18,0.8c-0.09,0.27-0.18,0.54-0.36,0.71 s-0.36,0.36-0.63,0.45s-0.54,0.18-0.8,0.18h-3.93L646.23,107.94L646.23,107.94z M649.71,111.07c0.27,0,0.54-0.09,0.71-0.27 s0.27-0.36,0.27-0.71v-0.27c0-0.27-0.09-0.54-0.27-0.71s-0.45-0.27-0.71-0.27h-2.32v2.14L649.71,111.07L649.71,111.07z M649.8,114.37c0.36,0,0.63-0.09,0.8-0.27c0.18-0.18,0.27-0.45,0.27-0.8v-0.36c0-0.36-0.09-0.63-0.27-0.8 c-0.18-0.18-0.45-0.27-0.8-0.27h-2.41v2.41L649.8,114.37L649.8,114.37z"></path> <path class="st0" d="M657.04,115.53c-0.54,0-0.98-0.09-1.34-0.27c-0.45-0.18-0.71-0.45-1.07-0.8s-0.54-0.71-0.71-1.25 s-0.27-0.98-0.27-1.61s0.09-1.07,0.27-1.61s0.36-0.89,0.71-1.25c0.27-0.36,0.63-0.63,1.07-0.8c0.45-0.18,0.89-0.27,1.34-0.27 c0.45,0,0.89,0.09,1.34,0.27c0.36,0.18,0.71,0.45,0.98,0.71c0.27,0.27,0.45,0.71,0.63,1.16c0.18,0.45,0.18,0.89,0.18,1.43v0.54 h-5.27v0.36c0,0.27,0.09,0.63,0.18,0.89c0.09,0.27,0.27,0.54,0.45,0.71c0.18,0.18,0.45,0.36,0.71,0.45 c0.27,0.09,0.63,0.18,0.89,0.18c0.45,0,0.89-0.09,1.25-0.36c0.36-0.18,0.63-0.54,0.8-0.98l0.8,0.63 c-0.27,0.54-0.63,0.89-1.07,1.25S657.66,115.53,657.04,115.53z M657.04,108.74c-0.27,0-0.63,0.09-0.89,0.18 c-0.27,0.09-0.45,0.27-0.63,0.45s-0.36,0.45-0.45,0.71c-0.09,0.27-0.18,0.54-0.18,0.89v0.09H659v-0.18 c0-0.63-0.18-1.16-0.54-1.61C658.11,108.92,657.57,108.74,657.04,108.74z"></path> <path class="st0" d="M660.97,114.28h0.98c0.09-0.18,0.27-0.36,0.36-0.63s0.18-0.54,0.27-0.89c0.09-0.36,0.09-0.71,0.18-1.16 c0.09-0.45,0.09-0.98,0.09-1.61v-2.06h5v7.33h-1.16v-6.34h-2.77v1.16c0,0.71,0,1.34-0.09,1.88s-0.09,0.98-0.18,1.34 s-0.18,0.71-0.36,0.98c-0.09,0.27-0.27,0.45-0.45,0.54c-0.18,0.18-0.36,0.27-0.63,0.36c-0.18,0.09-0.45,0.09-0.8,0.09h-0.45 L660.97,114.28L660.97,114.28z"></path> <path class="st0" d="M672.94,115.53c-0.45,0-0.98-0.09-1.34-0.27s-0.71-0.45-1.07-0.8s-0.54-0.71-0.71-1.25 s-0.27-0.98-0.27-1.61s0.09-1.07,0.27-1.61s0.36-0.89,0.71-1.25c0.27-0.36,0.63-0.63,1.07-0.8c0.45-0.18,0.89-0.27,1.34-0.27 c0.45,0,0.98,0.09,1.34,0.27c0.45,0.18,0.71,0.45,1.07,0.8c0.27,0.36,0.54,0.71,0.71,1.25c0.18,0.45,0.27,0.98,0.27,1.61 c0,0.63-0.09,1.16-0.27,1.61c-0.18,0.45-0.36,0.89-0.71,1.25c-0.27,0.36-0.63,0.63-1.07,0.8 C673.92,115.44,673.48,115.53,672.94,115.53z M672.94,114.46c0.63,0,1.16-0.18,1.52-0.54s0.63-0.98,0.63-1.7v-1.07 c0-0.8-0.18-1.34-0.63-1.7s-0.89-0.54-1.52-0.54s-1.16,0.18-1.52,0.54s-0.63,0.98-0.63,1.7v1.07c0,0.8,0.18,1.34,0.63,1.7 C671.78,114.28,672.32,114.46,672.94,114.46z"></path> <path class="st0" d="M678.03,111.6v-1.25h3.75v1.25H678.03z"></path> <path class="st0" d="M687.42,107.94h1.07v4.11l-0.09,1.79h0.09l0.89-1.61l2.95-4.29h1.07v7.33h-1.07v-4.11l0.09-1.79h-0.09 l-0.89,1.61l-2.95,4.29h-1.07V107.94z"></path> <path class="st0" d="M698.05,114.28h0.98c0.09-0.18,0.27-0.36,0.36-0.63s0.18-0.54,0.27-0.89c0.09-0.36,0.09-0.71,0.18-1.16 c0.09-0.45,0.09-0.98,0.09-1.61v-2.06h5v7.33h-1.25v-6.34h-2.77v1.16c0,0.71,0,1.34-0.09,1.88c-0.09,0.54-0.09,0.98-0.18,1.34 c-0.09,0.36-0.18,0.71-0.36,0.98c-0.09,0.27-0.27,0.45-0.45,0.54c-0.18,0.18-0.36,0.27-0.63,0.36c-0.18,0.09-0.45,0.09-0.8,0.09 h-0.45L698.05,114.28L698.05,114.28z"></path> <path class="st0" d="M715.03,114.28h0.89l0.8-1.97c0.09-0.27,0.27-0.45,0.36-0.54c0.09-0.09,0.36-0.18,0.54-0.18v-0.09 c-0.18-0.09-0.36-0.18-0.54-0.27c-0.18-0.09-0.27-0.27-0.36-0.54l-0.71-1.7h-0.89v-0.98h0.71c0.27,0,0.54,0.09,0.71,0.18 c0.18,0.18,0.36,0.36,0.54,0.71l0.98,2.14h1.34v-3.04h1.16v3.04h1.34l0.98-2.14c0.18-0.27,0.36-0.54,0.54-0.71 c0.18-0.18,0.45-0.18,0.71-0.18h0.71v0.98h-0.89l-0.71,1.7c-0.09,0.27-0.27,0.45-0.36,0.54c-0.09,0.09-0.27,0.18-0.54,0.27v0.09 c0.18,0,0.36,0.09,0.54,0.18c0.18,0.09,0.27,0.27,0.36,0.54l0.8,1.97h0.89v0.98h-0.8c-0.27,0-0.45-0.09-0.71-0.18 c-0.18-0.09-0.36-0.36-0.54-0.8l-0.98-2.32h-1.34v3.31h-1.16v-3.31h-1.34l-0.98,2.41c-0.18,0.36-0.36,0.63-0.54,0.8 c-0.18,0.09-0.45,0.18-0.71,0.18h-0.8V114.28z"></path> <path class="st0" d="M726.64,107.94h1.16v3.04h3.66v-3.04h1.16v7.33h-1.16v-3.31h-3.66v3.31h-1.16V107.94z"></path> <path class="st0" d="M735.04,107.94h1.16v2.68h1.97c0.71,0,1.34,0.18,1.79,0.63s0.63,0.98,0.63,1.7s-0.18,1.34-0.63,1.7 c-0.45,0.45-0.98,0.63-1.79,0.63h-3.13V107.94L735.04,107.94z M737.99,114.28c0.45,0,0.71-0.09,0.98-0.27s0.36-0.45,0.36-0.8 v-0.63c0-0.36-0.09-0.63-0.36-0.8s-0.54-0.27-0.98-0.27h-1.79v2.68h1.79V114.28z M741.83,107.94h1.16v7.33h-1.16V107.94z"></path> <path class="st0" d="M744.51,115.35l2.68-3.75l-2.59-3.66h1.34l1.88,2.77l0,0l1.97-2.77h1.25l-2.59,3.57l2.68,3.75h-1.34 l-1.88-2.86l0,0l-2.06,2.86L744.51,115.35L744.51,115.35z"></path> <path class="st0" d="M573.94,125.09h5.81v7.33h-1.16v-6.34h-3.48v6.34h-1.16V125.09L573.94,125.09z"></path> <path class="st0" d="M582.07,125.09h1.16v1.16h0.09c0.18-0.45,0.45-0.8,0.8-0.98c0.36-0.18,0.8-0.36,1.34-0.36 c0.45,0,0.89,0.09,1.25,0.27c0.36,0.18,0.71,0.45,0.98,0.8s0.45,0.71,0.63,1.25c0.18,0.45,0.18,0.98,0.18,1.61 c0,0.63-0.09,1.16-0.18,1.61c-0.18,0.45-0.36,0.89-0.63,1.25s-0.63,0.63-0.98,0.8c-0.36,0.18-0.8,0.27-1.25,0.27 c-0.98,0-1.7-0.45-2.14-1.34h-0.09v4.02h-1.16V125.09z M585.11,131.62c0.63,0,1.16-0.18,1.52-0.63s0.54-0.98,0.54-1.61v-1.25 c0-0.63-0.18-1.16-0.54-1.61c-0.36-0.45-0.89-0.63-1.52-0.63c-0.27,0-0.54,0-0.71,0.09c-0.18,0.09-0.45,0.18-0.63,0.27 s-0.27,0.27-0.45,0.45c-0.09,0.18-0.18,0.36-0.18,0.54v2.77c0,0.27,0.09,0.45,0.18,0.63c0.09,0.18,0.27,0.36,0.45,0.45 s0.36,0.18,0.63,0.27C584.66,131.62,584.93,131.62,585.11,131.62z"></path> <path class="st0" d="M593.15,132.6c-0.45,0-0.98-0.09-1.34-0.27c-0.36-0.18-0.71-0.45-1.07-0.8s-0.54-0.71-0.71-1.25 c-0.18-0.54-0.27-0.98-0.27-1.61c0-0.54,0.09-1.07,0.27-1.61c0.18-0.54,0.36-0.89,0.71-1.25c0.27-0.36,0.63-0.63,1.07-0.8 s0.89-0.27,1.34-0.27s0.98,0.09,1.34,0.27c0.36,0.18,0.71,0.45,1.07,0.8c0.27,0.36,0.54,0.71,0.71,1.25 c0.18,0.45,0.27,0.98,0.27,1.61s-0.09,1.16-0.27,1.61s-0.36,0.89-0.71,1.25c-0.36,0.36-0.63,0.63-1.07,0.8 C594.13,132.6,593.69,132.6,593.15,132.6z M593.15,131.62c0.63,0,1.16-0.18,1.52-0.54c0.36-0.36,0.63-0.98,0.63-1.7v-1.07 c0-0.8-0.18-1.34-0.63-1.7c-0.45-0.36-0.89-0.54-1.52-0.54s-1.16,0.18-1.52,0.54c-0.36,0.36-0.63,0.98-0.63,1.7v1.07 c0,0.8,0.18,1.34,0.63,1.7C592.08,131.44,592.52,131.62,593.15,131.62z"></path> <path class="st0" d="M598.42,125.09h4.65v0.98h-3.48v6.34h-1.16V125.09z"></path> <path class="st0" d="M609.32,125.09h1.16l-3.31,9.11c-0.09,0.18-0.18,0.36-0.27,0.54c-0.09,0.18-0.18,0.27-0.27,0.36 c-0.09,0.09-0.27,0.18-0.45,0.18s-0.45,0.09-0.71,0.09h-0.63v-0.98h1.16l0.54-1.61l-2.77-7.68h1.16l1.79,5l0.36,1.16h0.09 l0.45-1.16L609.32,125.09z"></path> <path class="st0" d="M610.57,131.44h0.98c0.09-0.18,0.27-0.36,0.36-0.63c0.09-0.27,0.18-0.54,0.27-0.89 c0.09-0.36,0.09-0.71,0.18-1.16c0.09-0.45,0.09-0.98,0.09-1.61v-2.06h5v7.33h-1.34v-6.34h-2.68v1.16c0,0.71,0,1.34-0.09,1.88 s-0.09,0.98-0.18,1.34s-0.18,0.71-0.36,0.98c-0.18,0.27-0.27,0.45-0.45,0.54c-0.18,0.18-0.36,0.27-0.63,0.36 c-0.18,0.09-0.45,0.09-0.8,0.09h-0.45L610.57,131.44L610.57,131.44z"></path> <path class="st0" d="M622.55,132.6c-0.45,0-0.98-0.09-1.34-0.27c-0.36-0.18-0.71-0.45-1.07-0.8c-0.36-0.36-0.54-0.71-0.71-1.25 c-0.18-0.54-0.27-0.98-0.27-1.61c0-0.54,0.09-1.07,0.27-1.61s0.36-0.89,0.71-1.25c0.27-0.36,0.63-0.63,1.07-0.8 c0.45-0.18,0.89-0.27,1.34-0.27s0.98,0.09,1.34,0.27s0.71,0.45,1.07,0.8c0.27,0.36,0.54,0.71,0.71,1.25 c0.18,0.45,0.27,0.98,0.27,1.61s-0.09,1.16-0.27,1.61s-0.36,0.89-0.71,1.25s-0.63,0.63-1.07,0.8 C623.44,132.6,622.99,132.6,622.55,132.6z M622.55,131.62c0.63,0,1.16-0.18,1.52-0.54s0.63-0.98,0.63-1.7v-1.07 c0-0.8-0.18-1.34-0.63-1.7s-0.89-0.54-1.52-0.54s-1.16,0.18-1.52,0.54s-0.63,0.98-0.63,1.7v1.07c0,0.8,0.18,1.34,0.63,1.7 C621.39,131.44,621.92,131.62,622.55,131.62z"></path> <path class="st0" d="M627.73,125.09h1.16v3.04h1.52l1.43-2.23c0.09-0.18,0.18-0.36,0.27-0.45c0.09-0.09,0.18-0.18,0.27-0.27 c0.09-0.09,0.18-0.09,0.27-0.09c0.09,0,0.18,0,0.36,0h0.71v0.98h-0.89l-1.16,1.79c-0.09,0.09-0.18,0.18-0.18,0.27 c0,0.09-0.09,0.18-0.18,0.18c-0.09,0.09-0.09,0.09-0.18,0.09s-0.18,0.09-0.27,0.09v0.09c0.18,0,0.36,0.09,0.54,0.18 c0.18,0.09,0.27,0.27,0.45,0.54l1.16,1.97h0.8v0.98H633c-0.27,0-0.45-0.09-0.71-0.18s-0.45-0.36-0.63-0.71l-1.34-2.41h-1.52 v3.31h-1.07V125.09L627.73,125.09z"></path> </g> </g> <g> <g> <path class="st0" d="M706.23,108.03h1.16v2.68h1.97c0.71,0,1.34,0.18,1.79,0.63c0.45,0.45,0.63,0.98,0.63,1.7 s-0.18,1.34-0.63,1.7c-0.45,0.45-0.98,0.63-1.79,0.63h-3.13V108.03z M709.17,114.37c0.45,0,0.71-0.09,0.98-0.27 c0.27-0.18,0.36-0.45,0.36-0.8v-0.63c0-0.36-0.09-0.63-0.36-0.8c-0.27-0.18-0.54-0.27-0.98-0.27h-1.79v2.68h1.79V114.37z M713.02,108.03h1.16v7.33h-1.16V108.03z"></path> </g> </g> </g> </g> </svg> 