<?xml version="1.0" encoding="UTF-8"?> <!-- Generator: Adobe Illustrator 25.3.1, SVG Export Plug-In . SVG Version: 6.00 Build 0) --> <svg xmlns="http://www.w3.org/2000/svg" xmlns:xlink="http://www.w3.org/1999/xlink" id="Слой_1" x="0px" y="0px" viewBox="0 0 629.5 595.3" style="enable-background:new 0 0 629.5 595.3;" xml:space="preserve"> <style type="text/css"> .st0{fill:#FFFFFF;} </style> <g> <g> <rect x="283.8" y="345.9" transform="matrix(0.5146 -0.8574 0.8574 0.5146 -104.873 517.0695)" class="st0" width="240.9" height="10.5"></rect> <rect x="332.7" y="357.3" transform="matrix(0.518 -0.8554 0.8554 0.518 -104.7029 539.3344)" class="st0" width="187" height="10.5"></rect> <rect x="401.9" y="368.5" transform="matrix(0.5076 -0.8616 0.8616 0.5076 -102.1081 568.8621)" class="st0" width="89.4" height="10.5"></rect> <polygon class="st0" points="252.6,311.5 246.6,302.8 343.2,236.6 421.3,291.6 415.2,300.2 343.1,249.5 "></polygon> <polygon class="st0" points="351,400.4 218.5,281.4 154.2,329.3 147.9,320.9 219.1,267.8 358,392.6 "></polygon> <polygon class="st0" points="337.1,424.1 218.5,315.1 162.3,359 155.8,350.6 219.1,301.3 344.2,416.4 "></polygon> <polygon class="st0" points="321.3,445.8 218.5,350.6 174,384.6 167.6,376.2 219.1,336.8 328.5,438.1 "></polygon> <polygon class="st0" points="304.2,460.1 218.6,384.1 189.9,406.3 183.4,398 219,370.4 311.2,452.2 "></polygon> <polygon class="st0" points="272.3,327.3 266.3,318.6 343.2,266.2 407.3,312.9 401.1,321.4 343,279.1 "></polygon> <polygon class="st0" points="288,343.1 282.1,334.3 343.3,293.8 395.5,332.7 389.2,341.2 342.9,306.7 "></polygon> <polygon class="st0" points="377.5,360.9 343,336.2 306.6,359.8 300.9,351 343.3,323.5 383.6,352.3 "></polygon> <rect x="160.7" y="360.9" transform="matrix(3.906220e-03 -1 1 3.906220e-03 -148.3534 583.3079)" class="st0" width="115.9" height="10.5"></rect> <rect x="286.3" y="325.3" transform="matrix(3.906220e-03 -1 1 3.906220e-03 11.0143 672.1821)" class="st0" width="113.3" height="10.5"></rect> <path class="st0" d="M171.1,262.6c-4.9,0-9.8-1.3-15.2-3.7l-4.8-2.2l4.3-9.6l4.8,2.2c9.7,4.4,16.4,4.5,32.2-6.1 c21.7-14.5,42.9-4.2,43.8-3.8l4.7,2.3l-4.7,9.4l-4.7-2.3c-0.8-0.4-16.8-7.9-33.2,3.1C187.4,259.2,179.2,262.6,171.1,262.6z"></path> <path class="st0" d="M313.1,461.4c-92.1,0-167-74.9-167-167c0-25.1,6.2-46.2,10.7-61.5c0.6-1.9,4.3-10.8,5.9-14.5l1.5-3.6l3.9,0.5 c6.4,0.7,12.9-1.7,23.4-8.7c21.7-14.5,42.9-4.2,43.8-3.8l4.7,2.3l-4.7,9.4l-4.7-2.3c-0.8-0.4-16.8-7.9-33.2,3.1 c-9.3,6.2-17.6,10.4-26.5,10.6c-2,4.7-3.8,9.1-4.1,10c-4.3,14.7-10.2,34.9-10.2,58.5c0,85.7,69.3,155.6,154.8,156.5l0.4-0.7 L458.3,211l4.3,8.5c11.7,23.3,17.7,48.5,17.7,74.8C480.2,386.5,405.2,461.4,313.1,461.4z M457.2,233L324,450.5 c81.2-5.6,145.6-73.5,145.6-156.1C469.6,273,465.4,252.4,457.2,233z"></path> <path class="st0" d="M170.5,244.6c-3.3,0-6.7-0.5-10.3-1.7l-5-1.6l3.3-10l5,1.6c7.5,2.4,13.9,1.9,28.2-7.6 c20.9-14,38.4-6.3,47.8-2.2l1.2,0.5c10.9,4.7,25.1,9.6,32.4,9.4c20.9-0.7,28.3-19.5,28.3-35.3c0-13.9-9.4-22.9-24-22.9 c-7.3,0-12.2,3.5-15.1,6.4c-4.1,4.2-6.6,10.1-6.5,15.1c0.2,6.7,2.9,12.7,7.3,15.9c3.2,2.4,6.9,3,10.7,2c4-1.1,4.9-3,5.2-3.6 c1.6-3.3,0-8.3-0.7-10l-2.1-4.8l9.6-4.3l2.2,4.8c0.5,1,4.6,10.5,0.7,18.7c-1.5,3.2-4.8,7.4-12,9.3c-7,1.9-14,0.6-19.7-3.7 c-7-5.2-11.2-13.9-11.5-24c-0.2-7.8,3.4-16.5,9.4-22.7c4.3-4.4,11.6-9.6,22.6-9.6c20.3,0,34.5,13.7,34.5,33.4 c0,26.7-15.4,45.1-38.4,45.9c-11.1,0.4-29.5-7-36.9-10.2l-1.3-0.6c-8.6-3.8-21.6-9.4-37.8,1.3 C187.6,240.5,179.4,244.6,170.5,244.6z"></path> <rect y="289.1" class="st0" width="129" height="10.5"></rect> <rect x="496.3" y="289.1" class="st0" width="133.2" height="10.5"></rect> <rect x="58.5" y="470.4" transform="matrix(0.707 -0.7072 0.7072 0.707 -297.9171 232.2035)" class="st0" width="145.6" height="10.5"></rect> <rect x="483.8" y="404.9" transform="matrix(0.7071 -0.7071 0.7071 0.7071 -189.6633 483.7407)" class="st0" width="10.5" height="131.8"></rect> <rect x="121.1" y="28.3" transform="matrix(0.7071 -0.7071 0.7071 0.7071 -39.4142 121.0073)" class="st0" width="10.5" height="159.6"></rect> <rect x="351.2" y="142.8" transform="matrix(0.7072 -0.707 0.707 0.7072 29.673 367.8205)" class="st0" width="215.4" height="10.5"></rect> <rect x="307.4" y="478" class="st0" width="10.5" height="117.3"></rect> <rect x="307.4" class="st0" width="10.5" height="110.7"></rect> </g> </g> </svg> 