<svg xmlns="http://www.w3.org/2000/svg" viewBox="0 0 1080 1080" width="1080" height="1080" preserveAspectRatio="xMidYMid meet" style="width: 100%; height: 100%; transform: translate3d(0px, 0px, 0px);"><defs><clipPath id="__lottie_element_7"><rect width="1080" height="1080" x="0" y="0"></rect></clipPath></defs><g clip-path="url(#__lottie_element_7)"><g transform="matrix(1.5099999904632568,0,0,1.5099999904632568,81.71499633789062,106.6300048828125)" opacity="1" style="display: block;"><g opacity="1" transform="matrix(1,0,0,1,291.5589904785156,279.50799560546875)"><path stroke-linecap="square" stroke-linejoin="miter" fill-opacity="0" stroke-miterlimit="10" stroke="rgb(255,255,255)" stroke-opacity="1" stroke-width="9" d=" M38.736000061035156,22.78499984741211 C38.625,51.66299819946289 38.47999954223633,89.25199890136719 38.47999954223633,89.25199890136719 M38.861000061035156,-9.847999572753906 C38.861000061035156,-9.847999572753906 38.82400131225586,-0.296999990940094 38.77399826049805,12.875 M-81.1719970703125,56.654998779296875 C-81.28299713134766,86.27300262451172 -81.4280014038086,124.82599639892578 -81.4280014038086,124.82599639892578 M-81.0469970703125,23.184999465942383 C-81.0469970703125,23.184999465942383 -81.08399963378906,32.98099899291992 -81.13400268554688,46.4900016784668 M27.121999740600586,46.652000427246094 C33.5369987487793,42.48400115966797 38.861000061035156,39.025001525878906 38.861000061035156,39.025001525878906 C38.861000061035156,39.025001525878906 70.83699798583984,61.8650016784668 70.83699798583984,61.8650016784668 M5.178999900817871,60.90700149536133 C5.178999900817871,60.90700149536133 12.58899974822998,56.09299850463867 20.45800018310547,50.98099899291992 M19.003999710083008,23.615999221801758 C29.652999877929688,16.56800079345703 38.861000061035156,10.475000381469727 38.861000061035156,10.475000381469727 C38.861000061035156,10.475000381469727 82.25700378417969,42.832000732421875 82.25700378417969,42.832000732421875 M-12.909000396728516,44.73500061035156 C-12.909000396728516,44.73500061035156 -2.299999952316284,37.7140007019043 9.312999725341797,30.02899932861328 M12.385000228881836,1.88100004196167 C26.493000030517578,-7.73799991607666 38.861000061035156,-16.17099952697754 38.861000061035156,-16.17099952697754 C38.861000061035156,-16.17099952697754 93.677001953125,23.798999786376953 93.677001953125,23.798999786376953 M-28.135000228881836,29.509000778198242 C-28.135000228881836,29.509000778198242 -14.734999656677246,20.371999740600586 0.07999999821186066,10.270999908447266 M-71.21499633789062,93.44100189208984 C-49.45399856567383,112.77400207519531 0.8669999837875366,157.48300170898438 0.8669999837875366,157.48300170898438 M-108.0739974975586,105.63999938964844 C-108.0739974975586,105.63999938964844 -86.83599853515625,89.18900299072266 -82.01300048828125,85.4530029296875 M-74.76300048828125,58.17100143432617 C-53.04199981689453,78.2979965209961 17.545000076293945,143.70700073242188 17.545000076293945,143.70700073242188 M-123.3010025024414,84.70500183105469 C-123.3010025024414,84.70500183105469 -101.41000366210938,67.94200134277344 -89.14099884033203,58.547000885009766 M-77.1760025024414,21.649999618530273 C-57.255001068115234,39.97100067138672 32.770999908447266,122.7699966430664 32.770999908447266,122.7699966430664 M-134.7209930419922,59.96200180053711 C-134.7209930419922,59.96200180053711 -110.35399627685547,40.95199966430664 -94.45600128173828,28.549999237060547 M-77.322998046875,-10.92300033569336 C-56.347999572753906,7.915999889373779 46.09400177001953,99.93000030517578 46.09400177001953,99.93000030517578 M-142.33399963378906,31.41200065612793 C-142.33399963378906,31.41200065612793 -115.0199966430664,11.053000450134277 -96.86100006103516,-2.4809999465942383 M56.595001220703125,-32.244998931884766 C46.46200180053711,-39.37300109863281 38.861000061035156,-44.72100067138672 38.861000061035156,-44.72100067138672 C38.861000061035156,-44.72100067138672 -47.167999267578125,14.281999588012695 -47.167999267578125,14.281999588012695 M107.19200134277344,3.3529999256134033 C107.19200134277344,3.3529999256134033 89.39099884033203,-9.170999526977539 71.95999908447266,-21.43400001525879 M145.3179931640625,70.18499755859375 C134.06500244140625,89.29100036621094 119.41699981689453,114.16000366210938 119.41699981689453,114.16000366210938 M158.03399658203125,48.595001220703125 C158.03399658203125,48.595001220703125 154.31199645996094,54.91400146484375 149.1790008544922,63.62799835205078 M134.08599853515625,45.72600173950195 C108.39700317382812,88.15799713134766 74.95899963378906,143.39100646972656 74.95899963378906,143.39100646972656 M163.11599731445312,-2.2249999046325684 C163.11599731445312,-2.2249999046325684 154.6199951171875,11.809000015258789 142.90199279785156,31.163000106811523 M117.3949966430664,27.054000854492188 C84.05999755859375,82.5739974975586 40.66999816894531,154.8419952392578 40.66999816894531,154.8419952392578 M155.06399536132812,-35.68600082397461 C155.06399536132812,-35.68600082397461 144.03900146484375,-17.323999404907227 128.8350067138672,8 M56.849998474121094,86.18299865722656 C95.60700225830078,22.881999969482422 146.05599975585938,-59.51499938964844 146.05599975585938,-59.51499938964844 M13.053000450134277,157.71600341796875 C13.053000450134277,157.71600341796875 25.871000289916992,136.77999877929688 43.54899978637695,107.90699768066406"></path></g></g><g transform="matrix(1.5099999904632568,0,0,1.5099999904632568,81.71499633789062,106.6300048828125)" opacity="1" style="display: block;"><g opacity="1" transform="matrix(1,0,0,1,291.5589904785156,279.50799560546875)"><path stroke-linecap="square" stroke-linejoin="miter" fill-opacity="0" stroke-miterlimit="10" stroke="rgb(255,255,255)" stroke-opacity="1" stroke-width="9" d=" M77.28600311279297,145.59500122070312 C56.89500045776367,155.36500549316406 34.051998138427734,160.83700561523438 9.930999755859375,160.83700561523438 C-76.26499938964844,160.83700561523438 -146.13999938964844,90.96199798583984 -146.13999938964844,4.764999866485596 C-146.13999938964844,-18.152999877929688 -141.2010040283203,-39.91699981689453 -132.3280029296875,-59.520999908447266 M150.3159942626953,-63.5099983215332 C158.62100219726562,-46.46500015258789 163.91299438476562,-27.68400001525879 165.5,-7.85699987411499"></path></g></g><g transform="matrix(1.5099999904632568,0,0,1.5099999904632568,81.71499633789062,106.6300048828125)" opacity="1" style="display: block;"><g opacity="1" transform="matrix(1,0,0,1,291.5589904785156,279.50799560546875)"><path stroke-linecap="square" stroke-linejoin="miter" fill-opacity="0" stroke-miterlimit="10" stroke="rgb(255,255,255)" stroke-opacity="1" stroke-width="9" d=" M-9.946999549865723,-48.970001220703125 C10.663000106811523,-55.215999603271484 25.166000366210938,-73.08200073242188 25.156999588012695,-94.20700073242188 C25.152000427246094,-107.22100067138672 15.755000114440918,-129.1719970703125 -11.095000267028809,-128.61199951171875 C-34.82099914550781,-128.11599731445312 -41.56700134277344,-110.85800170898438 -42.46699905395508,-100.06099700927734 C-43.999000549316406,-81.67500305175781 -34.25299835205078,-72.01499938964844 -17.304000854492188,-75.23799896240234 C0.4339999854564667,-78.61100006103516 -4.163000106811523,-101.59300231933594 -4.163000106811523,-101.59300231933594 M-136.62399291992188,-44.72100067138672 C-128.49899291992188,-41.08399963378906 -122.88200378417969,-42.14500045776367 -115.99700164794922,-45.37300109863281 M-104.77999877929688,-70.26899719238281 C-102.89600372314453,-71.2509994506836 -100.83599853515625,-72.25800323486328 -98.55799865722656,-73.2699966430664 C-73.4739990234375,-84.41899871826172 -63.03499984741211,-78.45500183105469 -55.4119987487793,-75.91400146484375 M-130.91400146484375,-59.946998596191406 C-129.26600646972656,-59.69300079345703 -127.75800323486328,-59.6619987487793 -126.31999969482422,-59.82099914550781 M-109.83200073242188,-28.496999740600586 C-106.3949966430664,-30.22800064086914 -102.68199920654297,-32.45500183105469 -98.55799865722656,-35.20399856567383 C-75.71800231933594,-50.430999755859375 -62.99399948120117,-38.9379997253418 -54.78099822998047,-33.30099868774414 M-142.33399963378906,-27.590999603271484 C-140.59100341796875,-26.81100082397461 -138.91000366210938,-26.145999908447266 -137.27099609375,-25.60099983215332"></path></g></g><g transform="matrix(1.3176848888397217,0.7374324202537537,-0.7374324202537537,1.3176848888397217,351.7257385253906,-61.98627853393555)" opacity="1" style="display: block;"><g opacity="1" transform="matrix(1,0,0,1,291.5589904785156,279.50799560546875)"><path stroke-linecap="square" stroke-linejoin="miter" fill-opacity="0" stroke-miterlimit="10" stroke="rgb(255,255,255)" stroke-opacity="1" stroke-width="9" d=" M9.456000328063965,-211.79299926757812 C9.456000328063965,-239.57400512695312 9.456000328063965,-274.114013671875 9.456000328063965,-274.114013671875 M9.456000328063965,-177.4770050048828 C9.456000328063965,-177.4770050048828 9.456000328063965,-179.43800354003906 9.456000328063965,-182.8000030517578 M9.454999923706055,253.42300415039062 C9.454999923706055,223.81700134277344 9.454999923706055,187.00799560546875 9.454999923706055,187.00799560546875 M9.454999923706055,289.99200439453125 C9.454999923706055,289.99200439453125 9.454999923706055,287.90301513671875 9.454999923706055,284.3190002441406 M-155.50799560546875,-160.197998046875 C-184.73300170898438,-189.42300415039062 -221.0679931640625,-225.75799560546875 -221.0679931640625,-225.75799560546875 M-119.40899658203125,-124.0989990234375 C-119.40899658203125,-124.0989990234375 -121.47100067138672,-126.16100311279297 -125.00900268554688,-129.69900512695312 M191.6840057373047,186.9949951171875 C167.89599609375,163.20700073242188 138.32000732421875,133.6300048828125 138.32000732421875,133.6300048828125 M221.0679931640625,216.37899780273438 C221.0679931640625,216.37899780273438 219.38900756835938,214.6999969482422 216.50999450683594,211.8209991455078 M-180.2050018310547,194.4250030517578 C-154.83900451660156,169.0590057373047 -123.3010025024414,137.52099609375 -123.3010025024414,137.52099609375 M-211.53700256347656,225.75799560546875 C-211.53700256347656,225.75799560546875 -209.7469940185547,223.96800231933594 -206.677001953125,220.8979949951172 M233.73500061035156,4.764999866485596 C267.7669982910156,4.764999866485596 310.0799865722656,4.764999866485596 310.0799865722656,4.764999866485596 M191.69700622558594,4.764999866485596 C191.69700622558594,4.764999866485596 194.0989990234375,4.764999866485596 198.21800231933594,4.764999866485596 M-246.4810028076172,4.764999866485596 C-213.63099670410156,4.764999866485596 -172.78700256347656,4.764999866485596 -172.78700256347656,4.764999866485596 M-287.0589904785156,4.764999866485596 C-287.0589904785156,4.764999866485596 -284.7409973144531,4.764999866485596 -280.7650146484375,4.764999866485596"></path></g></g><g transform="matrix(1.5099999904632568,0,0,1.5099999904632568,81.71499633789062,106.6300048828125)" opacity="1" style="display: block;"><animateTransform attributeName="transform"
                          attributeType="XML"
                          type="rotate"
                          from="0 60 70"
                          to="360 60 70"
                          dur="10s"
                          repeatCount="indefinite"/><g opacity="1" transform="matrix(1,0,0,1,291.5589904785156,279.50799560546875)"><path stroke-linecap="square" stroke-linejoin="miter" fill-opacity="0" stroke-miterlimit="10" stroke="rgb(255,255,255)" stroke-opacity="1" stroke-width="9" d=" M142.04400634765625,-127.822998046875 C177.79600524902344,-163.5749969482422 220.43600463867188,-206.21499633789062 220.43600463867188,-206.21499633789062 M94.01899719238281,-79.7979965209961 C94.01899719238281,-79.7979965209961 97.82599639892578,-83.6050033569336 104.11799621582031,-89.89700317382812"></path></g></g></g></svg>