<?xml version="1.0" encoding="UTF-8"?> <!-- Generator: Adobe Illustrator 25.2.3, SVG Export Plug-In . SVG Version: 6.00 Build 0) --> <svg xmlns="http://www.w3.org/2000/svg" xmlns:xlink="http://www.w3.org/1999/xlink" id="Layer_1_1_" x="0px" y="0px" viewBox="0 0 512 512" style="enable-background:new 0 0 512 512;" xml:space="preserve"> <style type="text/css"> .st0{fill:#FFFFFF;} </style> <g> <path class="st0" d="M400,168c30.9,0,56-25.1,56-56s-25.1-56-56-56s-56,25.1-56,56S369.1,168,400,168z M400,72 c22.1,0,40,17.9,40,40s-17.9,40-40,40s-40-17.9-40-40S377.9,72,400,72z"></path> <rect x="392" y="8" class="st0" width="16" height="32"></rect> <rect x="329.8" y="33.8" transform="matrix(0.707 -0.7072 0.7072 0.707 63.7704 253.4487)" class="st0" width="16" height="32"></rect> <rect x="296" y="104" class="st0" width="32" height="16"></rect> <rect x="321.8" y="166.2" transform="matrix(0.7071 -0.7071 0.7071 0.7071 -24.2652 289.8691)" class="st0" width="32" height="16"></rect> <rect x="392" y="184" class="st0" width="16" height="32"></rect> <rect x="454.2" y="158.2" transform="matrix(0.7071 -0.7071 0.7071 0.7071 12.1833 377.8674)" class="st0" width="16" height="32"></rect> <rect x="472" y="104" class="st0" width="32" height="16"></rect> <rect x="446.2" y="41.8" transform="matrix(0.7071 -0.7071 0.7071 0.7071 100.1828 341.4205)" class="st0" width="32" height="16"></rect> <path class="st0" d="M339.8,392.9c15.4-6.8,27.5-18.6,35.2-32.9H464c22.1,0,40-17.9,40-40s-17.9-40-40-40c-0.2,0-0.5,0-0.7,0 c-3.8-22.7-23.5-40-47.3-40c-12,0-23.3,4.4-32,12.4c-8.7-7.9-20-12.4-32-12.4c-3.2,0-6.5,0.3-9.2,0.9l-0.7,0.1l-38.1-55l-66.8,96.4 c-8.7,12.5-13.2,27.2-13.2,42.4c0,29.4,17.4,56.2,44.2,68.1l27.8,12.3v42.4c-4.8,2.5-9.6,5.2-14.2,8.2l-8.4,5.6 c-29.2-24-66.1-37.4-104.5-37.4c-8.4,0-16.7,0.8-24.9,2.1v-69.7l36-22.9c32.5-20.7,52-56.1,52-94.7c0-21.7-6.2-42.8-18-60.9 L182.5,128H208c22.1,0,40-17.9,40-40s-17.9-40-40-40c-0.2,0-0.5,0-0.7,0C203.5,25.4,183.8,8,160,8c-12,0-23.3,4.4-32,12.4 C119.3,12.4,108,8,96,8C72.2,8,52.5,25.4,48.7,48c-0.2,0-0.5,0-0.7,0C25.9,48,8,65.9,8,88s17.9,40,40,40h42.2L58,177.8 c-11.8,18.2-18,39.3-18,61c0,38.6,19.4,74,52,94.7l36,22.9v72.9c-28.3,7.2-54.3,21.7-75.5,42.9L36.7,488H8v16h496v-16h-28.7 l-14.4-14.4c-26.8-26.8-62.4-41.6-100.3-41.6c-16.7,0-33.1,3-48.5,8.6v-35.4L339.8,392.9z M100.6,320C72.7,302.2,56,271.9,56,238.8 c0-18.6,5.3-36.7,15.4-52.3l64.7-99.9l9.2,13.9l13.3-8.9l-22.8-34.1L100.6,112H48c-13.2,0-24-10.8-24-24s10.8-24,24-24 c6.9,0,13.4,3,18,8.1l12-10.6c-3.8-4.3-8.4-7.7-13.6-10C66.6,36,79.9,24,96,24c10.1,0,19.4,4.7,25.6,13l6.4,8.6l6.4-8.6 c6.2-8.3,15.5-13,25.6-13c16.1,0,29.4,12,31.6,27.5c-5.1,2.3-9.8,5.7-13.6,10l12,10.6c4.6-5.2,11.1-8.1,18-8.1 c13.2,0,24,10.8,24,24s-10.8,24-24,24h-54.5l47.1,74.5c10.1,15.6,15.4,33.7,15.4,52.3c0,33.1-16.7,63.4-44.6,81.2L144,337.4v-38.1 l37.7-37.7l-11.3-11.3L144,276.7v-49.4l37.7-37.7l-11.3-11.3L144,204.7V120h-16v84.7l-26.3-26.3l-11.3,11.3l37.7,37.7v49.4 l-26.3-26.3l-11.3,11.3l37.7,37.7v38.1L100.6,320z M63.8,483.5c28.1-28.1,65.4-43.5,105.1-43.5c41.6,0,81.1,17.5,109.2,48H59.3 L63.8,483.5z M449.6,484.9l3.1,3.1H299.6l-6.8-7.8c-2.3-2.7-4.8-5.2-7.2-7.7l5.1-3.4c20.8-13.8,44.9-21.1,69.8-21.1 C394.2,448,425.8,461.1,449.6,484.9z M377.6,269l6.4,8.6l6.4-8.6c6.2-8.3,15.5-13,25.6-13c16.1,0,29.4,12,31.6,27.5 c-5.1,2.3-9.8,5.7-13.6,10l12,10.6c4.6-5.2,11.1-8.1,18-8.1c13.2,0,24,10.8,24,24s-10.8,24-24,24h-82.7c1.7-6.2,2.7-12.6,2.7-19.2 c0-15.2-4.6-29.9-13.2-42.4l-18.2-26.3C362.2,256.3,371.6,260.9,377.6,269z M274.8,378.2c-21.1-9.4-34.8-30.4-34.8-53.5 c0-12,3.6-23.5,10.4-33.3l53.6-77.4l53.6,77.4c6.8,9.8,10.4,21.4,10.4,33.3c0,23.1-13.6,44.1-34.8,53.5l-21.2,9.4v-32.4l37.7-37.7 l-11.3-11.3L312,332.7V248h-16v84.7l-26.3-26.3l-11.3,11.3l37.7,37.7v32.4L274.8,378.2z"></path> </g> </svg> 