<svg xmlns="http://www.w3.org/2000/svg" viewBox="0 0 2475 2128" width="2475" height="2128" preserveAspectRatio="xMidYMid meet" style="width: 100%; height: 100%; transform: translate3d(0px, 0px, 0px);"><defs><clipPath id="__lottie_element_76"><rect width="2475" height="2128" x="0" y="0"></rect></clipPath><clipPath id="__lottie_element_81"><path d="M0,0 L2475,0 L2475,2128 L0,2128z"></path></clipPath><clipPath id="__lottie_element_82"><path fill="#ffffff" clip-rule="nonzero" d=" M2357.85205078125,148 C2357.85205078125,148 108,148 108,148 C108,148 108,1992.176025390625 108,1992.176025390625 C108,1992.176025390625 2357.85205078125,1992.176025390625 2357.85205078125,1992.176025390625 C2357.85205078125,1992.176025390625 2357.85205078125,148 2357.85205078125,148" fill-opacity="1"></path></clipPath><clipPath id="__lottie_element_181"><path d="M0,0 L2475,0 L2475,2128 L0,2128z"></path></clipPath><clipPath id="__lottie_element_182"><path fill="#ffffff" clip-rule="nonzero" d=" M2357.85205078125,148 C2357.85205078125,148 108,148 108,148 C108,148 108,1992.176025390625 108,1992.176025390625 C108,1992.176025390625 2357.85205078125,1992.176025390625 2357.85205078125,1992.176025390625 C2357.85205078125,1992.176025390625 2357.85205078125,148 2357.85205078125,148" fill-opacity="1"></path></clipPath></defs><g clip-path="url(#__lottie_element_76)"><g transform="matrix(1,0,0,1,276,291.5)" opacity="1" style="display: block;"><g opacity="1" transform="matrix(1,0,0,1,961.3300170898438,772.4769897460938)"><path fill="rgb(137,197,205)" fill-opacity="1" d=" M-961.0800170898438,-772.2269897460938 C-961.0800170898438,-772.2269897460938 961.0800170898438,-772.2269897460938 961.0800170898438,-772.2269897460938 C961.0800170898438,-772.2269897460938 961.0800170898438,772.2269897460938 961.0800170898438,772.2269897460938 C961.0800170898438,772.2269897460938 -961.0800170898438,772.2269897460938 -961.0800170898438,772.2269897460938 C-961.0800170898438,772.2269897460938 -961.0800170898438,-772.2269897460938 -961.0800170898438,-772.2269897460938z"></path></g><g opacity="1" transform="matrix(1,0,0,1,962.031005859375,772.4619750976562)"><path fill="rgb(110,170,173)" fill-opacity="1" d=" M960.3779907226562,-772.2109985351562 C960.3779907226562,-772.2109985351562 960.3779907226562,772.2109985351562 960.3779907226562,772.2109985351562 C960.3779907226562,772.2109985351562 861.7009887695312,772.2109985351562 861.7009887695312,772.2109985351562 C861.7009887695312,772.2109985351562 861.7009887695312,-681.927001953125 861.7009887695312,-681.927001953125 C861.7009887695312,-681.927001953125 -960.3779907226562,-681.927001953125 -960.3779907226562,-681.927001953125 C-960.3779907226562,-681.927001953125 -960.3779907226562,-772.2109985351562 -960.3779907226562,-772.2109985351562 C-960.3779907226562,-772.2109985351562 960.3779907226562,-772.2109985351562 960.3779907226562,-772.2109985351562z"></path></g></g><g clip-path="url(#__lottie_element_181)" transform="matrix(1,0,0,1,0,0)" opacity="1" style="display: none;"><g clip-path="url(#__lottie_element_182)"><g transform="matrix(1,0,0,1,2435.15576171875,-558.1558837890625)" opacity="1" style="display: block;"><g opacity="1" transform="matrix(1,0,0,1,362.2690124511719,29.628000259399414)"><path fill="rgb(0,53,42)" fill-opacity="1" d=" M0,29.37700080871582 C-8.307999610900879,29.37700080871582 -15.041999816894531,22.642000198364258 -15.041999816894531,14.335000038146973 C-15.041999816894531,14.335000038146973 -15.041999816894531,-14.335000038146973 -15.041999816894531,-14.335000038146973 C-15.041999816894531,-22.64299964904785 -8.307999610900879,-29.37700080871582 0,-29.37700080871582 C8.307999610900879,-29.37700080871582 15.041999816894531,-22.64299964904785 15.041999816894531,-14.335000038146973 C15.041999816894531,-14.335000038146973 15.041999816894531,14.335000038146973 15.041999816894531,14.335000038146973 C15.041999816894531,22.642000198364258 8.307999610900879,29.37700080871582 0,29.37700080871582z"></path></g><g opacity="1" transform="matrix(1,0,0,1,226.70399475097656,57.33700180053711)"><path fill="rgb(0,53,42)" fill-opacity="1" d=" M5.841000080108643,29.225000381469727 C-0.12600000202655792,29.209999084472656 -5.520999908447266,25.670000076293945 -7.9079999923706055,20.201000213623047 C-7.9079999923706055,20.201000213623047 -19.582000732421875,-5.973999977111816 -19.582000732421875,-5.973999977111816 C-22.96299934387207,-13.567000389099121 -19.547000885009766,-22.46299934387207 -11.954000473022461,-25.8439998626709 C-4.361000061035156,-29.225000381469727 4.535999774932861,-25.812000274658203 7.916999816894531,-18.218000411987305 C7.916999816894531,-18.218000411987305 19.59000015258789,7.955999851226807 19.59000015258789,7.955999851226807 C22.96299934387207,15.54800033569336 19.542999267578125,24.437000274658203 11.951000213623047,27.81100082397461 C11.949999809265137,27.81100082397461 11.949000358581543,27.812000274658203 11.947999954223633,27.812000274658203 C10.038000106811523,28.716999053955078 7.954999923706055,29.197999954223633 5.841000080108643,29.225000381469727z"></path></g><g opacity="1" transform="matrix(1,0,0,1,114.56700134277344,139.07899475097656)"><path fill="rgb(0,53,42)" fill-opacity="1" d=" M10.63599967956543,25.46299934387207 C6.915999889373779,25.469999313354492 3.325000047683716,24.097999572753906 0.5580000281333923,21.61199951171875 C0.5580000281333923,21.61199951171875 -20.742000579833984,2.4179999828338623 -20.742000579833984,2.4179999828338623 C-26.915000915527344,-3.1480000019073486 -27.4060001373291,-12.663999557495117 -21.84000015258789,-18.836999893188477 C-16.27400016784668,-25.009000778198242 -6.757999897003174,-25.500999450683594 -0.5849999785423279,-19.934999465942383 C-0.5849999785423279,-19.934999465942383 20.714000701904297,-0.7409999966621399 20.714000701904297,-0.7409999966621399 C26.895000457763672,4.809999942779541 27.4060001373291,14.321000099182129 21.854999542236328,20.50200080871582 C18.996000289916992,23.68600082397461 14.914999961853027,25.500999450683594 10.63599967956543,25.493000030517578 C10.63599967956543,25.493000030517578 10.63599967956543,25.46299934387207 10.63599967956543,25.46299934387207z"></path></g><g opacity="1" transform="matrix(1,0,0,1,45.2400016784668,259.0459899902344)"><path fill="rgb(0,53,42)" fill-opacity="1" d=" M13.656000137329102,20.357999801635742 C12.083000183105469,20.361000061035156 10.520000457763672,20.117000579833984 9.02299976348877,19.63599967956543 C9.02299976348877,19.63599967956543 -18.233999252319336,10.791999816894531 -18.233999252319336,10.791999816894531 C-26.16200065612793,8.310999870300293 -30.577999114990234,-0.1289999932050705 -28.09600067138672,-8.057000160217285 C-25.614999771118164,-15.986000061035156 -17.176000595092773,-20.402000427246094 -9.248000144958496,-17.920000076293945 C-9.144000053405762,-17.88800048828125 -9.041000366210938,-17.85300064086914 -8.937999725341797,-17.81800079345703 C-8.937999725341797,-17.81800079345703 18.319000244140625,-8.973999977111816 18.319000244140625,-8.973999977111816 C26.22800064086914,-6.431000232696533 30.577999114990234,2.0409998893737793 28.03499984741211,9.949999809265137 C26.031999588012695,16.18000030517578 20.229999542236328,20.400999069213867 13.685999870300293,20.38800048828125 C13.685999870300293,20.38800048828125 13.656000137329102,20.357999801635742 13.656000137329102,20.357999801635742z"></path></g><g opacity="1" transform="matrix(1,0,0,1,30.54400062561035,397.4230041503906)"><path fill="rgb(0,53,42)" fill-opacity="1" d=" M-14.036999702453613,16.81999969482422 C-22.344999313354492,17.25200080871582 -29.43000030517578,10.869000434875488 -29.86199951171875,2.561000108718872 C-30.29400062561035,-5.747000217437744 -23.90999984741211,-12.831999778747559 -15.60200023651123,-13.263999938964844 C-15.60200023651123,-13.263999938964844 12.887999534606934,-16.27199935913086 12.887999534606934,-16.27199935913086 C21.020000457763672,-17.25200080871582 28.408000946044922,-11.454999923706055 29.38800048828125,-3.322000026702881 C29.4060001373291,-3.1760001182556152 29.422000885009766,-3.0299999713897705 29.434999465942383,-2.884000062942505 C30.295000076293945,5.361000061035156 24.320999145507812,12.748000144958496 16.077999114990234,13.631999969482422 C16.077999114990234,13.631999969482422 -12.411999702453613,16.639999389648438 -12.411999702453613,16.639999389648438 C-12.411999702453613,16.639999389648438 -14.036999702453613,16.81999969482422 -14.036999702453613,16.81999969482422z"></path></g><g opacity="1" transform="matrix(1,0,0,1,74.60199737548828,528.5579833984375)"><path fill="rgb(0,53,42)" fill-opacity="1" d=" M-13.418999671936035,23.26300048828125 C-21.726999282836914,23.26300048828125 -28.461000442504883,16.527999877929688 -28.461000442504883,8.220000267028809 C-28.459999084472656,2.8459999561309814 -25.5939998626709,-2.11899995803833 -20.940000534057617,-4.806000232696533 C-20.940000534057617,-4.806000232696533 3.880000114440918,-19.1560001373291 3.880000114440918,-19.1560001373291 C11.10099983215332,-23.26300048828125 20.28499984741211,-20.73900032043457 24.392000198364258,-13.517999649047852 C28.461000442504883,-6.361999988555908 26.02400016784668,2.734999895095825 18.922000885009766,6.896999835968018 C18.922000885009766,6.896999835968018 -5.8979997634887695,21.246999740600586 -5.8979997634887695,21.246999740600586 C-8.1850004196167,22.56800079345703 -10.777999877929688,23.26300048828125 -13.418999671936035,23.26300048828125z"></path></g><g opacity="1" transform="matrix(1,0,0,1,610.8820190429688,139.04800415039062)"><path fill="rgb(0,53,42)" fill-opacity="1" d=" M-11.515999794006348,25.493999481201172 C-19.823999404907227,25.493000030517578 -26.55699920654297,18.756999969482422 -26.555999755859375,10.449000358581543 C-26.55500030517578,6.179999828338623 -24.739999771118164,2.11299991607666 -21.56399917602539,-0.7400000095367432 C-21.56399917602539,-0.7400000095367432 -0.2639999985694885,-19.93400001525879 -0.2639999985694885,-19.93400001525879 C5.9079999923706055,-25.5 15.423999786376953,-25.007999420166016 20.989999771118164,-18.836000442504883 C26.55699920654297,-12.663000106811523 26.065000534057617,-3.1470000743865967 19.892000198364258,2.4189999103546143 C19.892000198364258,2.4189999103546143 -1.4079999923706055,21.613000869750977 -1.4079999923706055,21.613000869750977 C-4.178999900817871,24.117000579833984 -7.7820000648498535,25.5 -11.515999794006348,25.493999481201172z"></path></g><g opacity="1" transform="matrix(1,0,0,1,497.9849853515625,57.417999267578125)"><path fill="rgb(0,53,42)" fill-opacity="1" d=" M-5.929999828338623,29.143999099731445 C-8.003999710083008,29.142000198364258 -10.055000305175781,28.701000213623047 -11.946999549865723,27.850000381469727 C-19.540000915527344,24.479000091552734 -22.961999893188477,15.59000015258789 -19.59000015258789,7.998000144958496 C-19.589000701904297,7.997000217437744 -19.59000015258789,7.995999813079834 -19.59000015258789,7.994999885559082 C-19.59000015258789,7.994999885559082 -7.915999889373779,-18.179000854492188 -7.915999889373779,-18.179000854492188 C-4.533999919891357,-25.77199935913086 4.361000061035156,-29.187000274658203 11.954000473022461,-25.805999755859375 C19.547000885009766,-22.423999786376953 22.96299934387207,-13.527999877929688 19.582000732421875,-5.934999942779541 C19.582000732421875,-5.934999942779541 7.908999919891357,20.239999771118164 7.908999919891357,20.239999771118164 C5.4730000495910645,25.691999435424805 0.041999999433755875,29.18600082397461 -5.929999828338623,29.143999099731445z"></path></g><g opacity="1" transform="matrix(1,0,0,1,422.989013671875,688.6749877929688)"><path fill="rgb(0,53,42)" fill-opacity="1" d=" M-5.758999824523926,-28.80699920654297 C2.38700008392334,-30.43600082397461 10.310999870300293,-25.152000427246094 11.9399995803833,-17.006000518798828 C11.9399995803833,-17.006000518798828 17.562000274658203,11.107999801635742 17.562000274658203,11.107999801635742 C19.190000534057617,19.2549991607666 13.906999588012695,27.179000854492188 5.760000228881836,28.808000564575195 C-2.385999917984009,30.437000274658203 -10.310999870300293,25.152999877929688 -11.9399995803833,17.006999969482422 C-11.9399995803833,17.006999969482422 -17.559999465942383,-11.107000350952148 -17.559999465942383,-11.107000350952148 C-19.18899917602539,-19.253999710083008 -13.904999732971191,-27.17799949645996 -5.758999824523926,-28.80699920654297z"></path></g><g opacity="1" transform="matrix(1,0,0,1,550.2969970703125,634.4929809570312)"><path fill="rgb(0,53,42)" fill-opacity="1" d=" M-11.262999534606934,-27.08099937438965 C-5.408999919891357,-28.236000061035156 0.574999988079071,-25.820999145507812 3.98799991607666,-20.926000595092773 C3.98799991607666,-20.926000595092773 20.56599998474121,2.4509999752044678 20.56599998474121,2.4509999752044678 C25.371000289916992,9.234000205993652 23.767000198364258,18.62700080871582 16.983999252319336,23.430999755859375 C10.201000213623047,28.236000061035156 0.8069999814033508,26.631000518798828 -3.996999979019165,19.849000930786133 C-3.996999979019165,19.849000930786133 -20.575000762939453,-3.5290000438690186 -20.575000762939453,-3.5290000438690186 C-25.371000289916992,-10.312000274658203 -23.760000228881836,-19.698999404907227 -16.976999282836914,-24.4950008392334 C-16.97599983215332,-24.496000289916992 -16.975000381469727,-24.496000289916992 -16.974000930786133,-24.496999740600586 C-15.277999877929688,-25.759000778198242 -13.329999923706055,-26.639999389648438 -11.262999534606934,-27.08099937438965z"></path></g><g opacity="1" transform="matrix(1,0,0,1,644.2630004882812,532.8140258789062)"><path fill="rgb(0,53,42)" fill-opacity="1" d=" M-15.258999824523926,-22.913999557495117 C-11.61299991607666,-23.649999618530273 -7.823999881744385,-23.009000778198242 -4.622000217437744,-21.11400032043457 C-4.622000217437744,-21.11400032043457 20.027999877929688,-6.4679999351501465 20.027999877929688,-6.4679999351501465 C27.17300033569336,-2.2209999561309814 29.518999099731445,7.013999938964844 25.270999908447266,14.159000396728516 C21.023000717163086,21.30299949645996 11.788000106811523,23.649999618530273 4.644000053405762,19.402999877929688 C4.644000053405762,19.402999877929688 -20.0049991607666,4.756999969482422 -20.0049991607666,4.756999969482422 C-27.155000686645508,0.5260000228881836 -29.520000457763672,-8.699999809265137 -25.288000106811523,-15.848999977111816 C-23.108999252319336,-19.531999588012695 -19.464000701904297,-22.11199951171875 -15.265999794006348,-22.944000244140625 C-15.265999794006348,-22.944000244140625 -15.258999824523926,-22.913999557495117 -15.258999824523926,-22.913999557495117z"></path></g><g opacity="1" transform="matrix(1,0,0,1,688.698974609375,401.03900146484375)"><path fill="rgb(0,53,42)" fill-opacity="1" d=" M-17.19499969482422,-16.773000717163086 C-15.652999877929688,-17.083999633789062 -14.072999954223633,-17.152000427246094 -12.510000228881836,-16.972999572753906 C-12.510000228881836,-16.972999572753906 15.951000213623047,-13.644000053405762 15.951000213623047,-13.644000053405762 C24.211999893188477,-12.765000343322754 30.19700050354004,-5.355000019073486 29.31800079345703,2.9059998989105225 C28.43899917602539,11.166999816894531 21.030000686645508,17.150999069213867 12.769000053405762,16.27199935913086 C12.66100025177002,16.260000228881836 12.553000450134277,16.24799919128418 12.444999694824219,16.233999252319336 C12.444999694824219,16.233999252319336 -16.017000198364258,12.904000282287598 -16.017000198364258,12.904000282287598 C-24.270999908447266,11.961000442504883 -30.19700050354004,4.50600004196167 -29.253999710083008,-3.747999906539917 C-28.511999130249023,-10.25 -23.649999618530273,-15.526000022888184 -17.229999542236328,-16.797000885009766 C-17.229999542236328,-16.797000885009766 -17.19499969482422,-16.773000717163086 -17.19499969482422,-16.773000717163086z"></path></g><g opacity="1" transform="matrix(1,0,0,1,676.2039794921875,262.85101318359375)"><path fill="rgb(0,53,42)" fill-opacity="1" d=" M10.430000305175781,-19.117000579833984 C18.492000579833984,-21.16900062561035 26.69099998474121,-16.29800033569336 28.743000030517578,-8.236000061035156 C30.79599952697754,-0.17399999499320984 25.92300033569336,8.024999618530273 17.861000061035156,10.07699966430664 C17.861000061035156,10.07699966430664 -9.484999656677246,18.613000869750977 -9.484999656677246,18.613000869750977 C-17.267000198364258,21.16900062561035 -25.648000717163086,16.93199920654297 -28.20400047302246,9.14900016784668 C-28.25,9.010000228881836 -28.29400062561035,8.869999885559082 -28.334999084472656,8.729000091552734 C-30.795000076293945,0.8119999766349792 -26.385000228881836,-7.603000164031982 -18.475000381469727,-10.086000442504883 C-18.475000381469727,-10.086000442504883 8.871000289916992,-18.621000289916992 8.871000289916992,-18.621000289916992 C8.871000289916992,-18.621000289916992 10.430000305175781,-19.117000579833984 10.430000305175781,-19.117000579833984z"></path></g><g opacity="1" transform="matrix(1,0,0,1,157.69200134277344,629.4530029296875)"><path fill="rgb(0,53,42)" fill-opacity="1" d=" M6.35099983215332,-26.589000701904297 C14.498000144958496,-28.215999603271484 22.42099952697754,-22.930999755859375 24.04800033569336,-14.78499984741211 C24.885000228881836,-10.597999572753906 23.902999877929688,-6.254000186920166 21.347999572753906,-2.8340001106262207 C21.347999572753906,-2.8340001106262207 4.223999977111816,20.163000106811523 4.223999977111816,20.163000106811523 C-0.7369999885559082,26.83099937438965 -10.164999961853027,28.21500015258789 -16.83300018310547,23.253000259399414 C-23.50200080871582,18.29199981689453 -24.885000228881836,8.86400032043457 -19.923999786376953,2.196000099182129 C-19.923999786376953,2.196000099182129 -2.799999952316284,-20.802000045776367 -2.799999952316284,-20.802000045776367 C-0.5740000009536743,-23.799999237060547 2.687999963760376,-25.863000869750977 6.35099983215332,-26.589000701904297z"></path></g><g opacity="1" transform="matrix(1,0,0,1,284.2569885253906,687.697021484375)"><path fill="rgb(0,53,42)" fill-opacity="1" d=" M0.30399999022483826,-29.4060001373291 C2.3389999866485596,-29.81100082397461 4.435999870300293,-29.780000686645508 6.458000183105469,-29.316999435424805 C14.564000129699707,-27.5 19.66200065612793,-19.454999923706055 17.844999313354492,-11.347999572753906 C17.8439998626709,-11.347000122070312 17.8439998626709,-11.345999717712402 17.8439998626709,-11.345000267028809 C17.8439998626709,-11.345000267028809 11.529000282287598,16.608999252319336 11.529000282287598,16.608999252319336 C9.70199966430664,24.718000411987305 1.6480000019073486,29.81100082397461 -6.460999965667725,27.983999252319336 C-14.569999694824219,26.156999588012695 -19.66200065612793,18.101999282836914 -17.834999084472656,9.994000434875488 C-17.834999084472656,9.994000434875488 -11.520000457763672,-17.961000442504883 -11.520000457763672,-17.961000442504883 C-10.199999809265137,-23.78499984741211 -5.559999942779541,-28.275999069213867 0.30399999022483826,-29.4060001373291z"></path></g><g opacity="1" transform="matrix(1,0,0,1,376.2699890136719,353.63299560546875)"><path fill="rgb(252,212,98)" fill-opacity="1" d=" M238.39199829101562,0 C238.39199829101562,131.66000366210938 131.66000366210938,238.39199829101562 0,238.39199829101562 C-131.66000366210938,238.39199829101562 -238.39199829101562,131.66000366210938 -238.39199829101562,0 C-238.39199829101562,-131.66000366210938 -131.66000366210938,-238.39199829101562 0,-238.39199829101562 C131.66000366210938,-238.39199829101562 238.39199829101562,-131.66000366210938 238.39199829101562,0z"></path></g><g opacity="1" transform="matrix(1,0,0,1,390.27099609375,315.5710144042969)"><path fill="rgb(247,190,86)" fill-opacity="1" d=" M-49.77000045776367,-150.23399353027344 C81.88999938964844,-150.23399353027344 188.62100219726562,-43.500999450683594 188.62100219726562,88.15899658203125 C188.62100219726562,128.71400451660156 178.48199462890625,166.89599609375 160.61900329589844,200.32899475097656 C200.1820068359375,157.7740020751953 224.39100646972656,100.7490005493164 224.39100646972656,38.0620002746582 C224.39100646972656,-93.5989990234375 117.66000366210938,-200.32899475097656 -14.00100040435791,-200.32899475097656 C-105.10600280761719,-200.32899475097656 -184.26300048828125,-149.2169952392578 -224.39199829101562,-74.10900115966797 C-180.86300659179688,-120.93099975585938 -118.74299621582031,-150.23399353027344 -49.77000045776367,-150.23399353027344z"></path></g></g></g></g><g clip-path="url(#__lottie_element_81)" transform="matrix(1,0,0,1,0,0)" opacity="1" style="display: block;"><g clip-path="url(#__lottie_element_82)"><g transform="matrix(1,0,0,1,464.726318359375,365)" opacity="1" style="display: block;"><g opacity="1" transform="matrix(1,0,0,1,352.8900146484375,1164.5169677734375)"><path fill="rgb(238,239,238)" fill-opacity="1" d=" M-211.72500610351562,-37.53300094604492 C-203.13600158691406,-37.527000427246094 -194.56900024414062,-36.67300033569336 -186.14599609375,-34.970001220703125 C-179.7989959716797,-66.64900207519531 -159.2779998779297,-93.6729965209961 -130.4709930419922,-108.30000305175781 C-101.65799713134766,-122.927001953125 -67.73100280761719,-123.5459976196289 -38.40800094604492,-109.9739990234375 C-11.871999740600586,-183.06399536132812 68.8949966430664,-220.80999755859375 141.99000549316406,-194.26800537109375 C215.0850067138672,-167.7310028076172 252.8249969482422,-86.96399688720703 226.28900146484375,-13.869000434875488 C290.3190002441406,-11.845000267028809 340.8970031738281,41.14699935913086 339.9339904785156,105.20500183105469 C338.97601318359375,169.25799560546875 286.8269958496094,220.71400451660156 222.76300048828125,220.81100463867188 C222.76300048828125,220.81100463867188 -211.72500610351562,220.81100463867188 -211.72500610351562,220.81100463867188 C-283.06500244140625,220.81100463867188 -340.8970031738281,162.97900390625 -340.8970031738281,91.63899993896484 C-340.8970031738281,20.304000854492188 -283.06500244140625,-37.53300094604492 -211.72500610351562,-37.53300094604492z"></path></g><g opacity="1" transform="matrix(1,0,0,1,238.1009979248047,1070.0439453125)"><path fill="rgb(225,230,233)" fill-opacity="1" d=" M28.42099952697754,28.358999252319336 C35.42499923706055,9.067999839782715 46.209999084472656,-7.758999824523926 59.63199996948242,-21.593000411987305 C34.63399887084961,-28.358999252319336 7.781000137329102,-25.73900032043457 -15.682000160217285,-13.82800006866455 C-34.34600067138672,-4.35099983215332 -49.5260009765625,10.335000038146973 -59.63199996948242,28.114999771118164 C-31.71500015258789,15.390000343322754 0.44600000977516174,15.41100025177002 28.42099952697754,28.358999252319336z"></path></g><g opacity="1" transform="matrix(1,0,0,1,512.06298828125,1160.458984375)"><path fill="rgb(225,230,233)" fill-opacity="1" d=" M67.11599731445312,-9.812000274658203 C93.6520004272461,-82.90699768066406 55.9119987487793,-163.6739959716797 -17.183000564575195,-190.2100067138672 C-79.04399871826172,-212.67300415039062 -146.39599609375,-189.08599853515625 -181.7239990234375,-137.0019989013672 C-147.30299377441406,-156.16099548339844 -105.0780029296875,-160.85000610351562 -65.14299774169922,-146.3489990234375 C7.952000141143799,-119.81300354003906 45.69300079345703,-39.04600143432617 19.1560001373291,34.04899978637695 C83.18599700927734,36.073001861572266 133.76400756835938,89.06500244140625 132.80099487304688,153.12399291992188 C132.47500610351562,174.947998046875 126.20099639892578,195.3070068359375 115.54299926757812,212.67300415039062 C153.677001953125,193.73399353027344 180.08200073242188,154.66700744628906 180.76100158691406,109.26300048828125 C181.7239990234375,45.20399856567383 131.14599609375,-7.788000106811523 67.11599731445312,-9.812000274658203z"></path></g><g opacity="1" transform="matrix(1,0,0,1,86.84700012207031,1156.3990478515625)"><path fill="rgb(225,230,233)" fill-opacity="1" d=" M6.359000205993652,14.446000099182129 C14.947999954223633,14.45199966430664 23.513999938964844,15.305999755859375 31.937000274658203,17.009000778198242 C35.39899826049805,-0.27000001072883606 43.08700180053711,-16.158000946044922 54.027000427246094,-29.410999298095703 C8.756999969482422,-29.31100082397461 -31.040000915527344,-5.921000003814697 -54.027000427246094,29.410999298095703 C-36.005001068115234,19.86199951171875 -15.456999778747559,14.446000099182129 6.359000205993652,14.446000099182129z"></path></g><g opacity="1" transform="matrix(1,0,0,1,354.54998779296875,1168.0240478515625)"><path fill="rgb(0,53,42)" fill-opacity="1" d=" M-213.38499450683594,-52.78300094604492 C-207.75999450683594,-52.777000427246094 -202.14100646972656,-52.43899917602539 -196.55599975585938,-51.768001556396484 C-181.39599609375,-101.13700103759766 -135.8520050048828,-134.87399291992188 -84.21299743652344,-134.98300170898438 C-71.35800170898438,-134.9949951171875 -58.59400177001953,-132.86199951171875 -46.444000244140625,-128.67599487304688 C-16.3700008392334,-193.70399475097656 54.902000427246094,-229.0469970703125 124.86599731445312,-213.6230010986328 C194.83599853515625,-198.19900512695312 244.63999938964844,-136.1699981689453 244.58900451660156,-64.5260009765625 C244.58299255371094,-52.14699935913086 243.0399932861328,-39.8129997253418 240.01300048828125,-27.81800079345703 C306.67498779296875,-17.639999389648438 354.29998779296875,42.10599899291992 349.34600830078125,109.35900115966797 C344.3970031738281,176.61700439453125 288.5379943847656,228.74899291992188 221.10299682617188,229.0469970703125 C221.10299682617188,229.0469970703125 -213.38499450683594,229.0469970703125 -213.38499450683594,229.0469970703125 C-291.2099914550781,229.0469970703125 -354.29998779296875,165.95700073242188 -354.29998779296875,88.13200378417969 C-354.29998779296875,10.305999755859375 -291.2099914550781,-52.78300094604492 -213.38499450683594,-52.78300094604492z M-213.38499450683594,205.56100463867188 C-213.38499450683594,205.56100463867188 221.10299682617188,205.56100463867188 221.10299682617188,205.56100463867188 C278.99700927734375,205.81300354003906 326.302001953125,159.40899658203125 327.1669921875,101.5199966430664 C328.0270080566406,43.63199996948242 282.12799072265625,-4.159999847412109 224.25100708007812,-5.633999824523926 C220.4949951171875,-5.736999988555908 217.01400756835938,-7.635000228881836 214.89300537109375,-10.737000465393066 C212.76600646972656,-13.83899974822998 212.2550048828125,-17.766000747680664 213.51699829101562,-21.309999465942383 C236.8249969482422,-88.01200103759766 202.15199279785156,-161.05499267578125 135.73699951171875,-185.1719970703125 C69.3219985961914,-209.28799438476562 -4.139999866485596,-175.49899291992188 -29.05299949645996,-109.38200378417969 C-30.194000244140625,-106.31400299072266 -32.55699920654297,-103.86599731445312 -35.57899856567383,-102.61599731445312 C-38.60599899291992,-101.36599731445312 -42.00600051879883,-101.43499755859375 -44.97600173950195,-102.80500030517578 C-57.27000045776367,-108.52200317382812 -70.65799713134766,-111.48600006103516 -84.21299743652344,-111.49800109863281 C-128.89100646972656,-111.41699981689453 -167.36500549316406,-79.94400024414062 -176.28700256347656,-36.16600036621094 C-177.5659942626953,-29.802000045776367 -183.76400756835938,-25.684999465942383 -190.1230010986328,-26.9689998626709 C-197.77699279785156,-28.506000518798828 -205.57000732421875,-29.285999298095703 -213.38499450683594,-29.297000885009766 C-278.239990234375,-29.297000885009766 -330.8139953613281,23.281999588012695 -330.8139953613281,88.13200378417969 C-330.8139953613281,152.98699951171875 -278.239990234375,205.56100463867188 -213.38499450683594,205.56100463867188z"></path></g><g opacity="1" transform="matrix(1,0,0,1,1877.115966796875,248.677001953125)"><path fill="rgb(238,239,238)" fill-opacity="1" d=" M-233.2100067138672,-41.34299850463867 C-223.74899291992188,-41.33700180053711 -214.31399536132812,-40.39500045776367 -205.03599548339844,-38.51900100708008 C-198.04400634765625,-73.41300201416016 -175.44000244140625,-103.18000030517578 -143.7100067138672,-119.29100036621094 C-111.9739990234375,-135.4029998779297 -74.60399627685547,-136.0850067138672 -42.305999755859375,-121.13500213623047 C-13.07699966430664,-201.64199829101562 75.88600158691406,-243.2169952392578 156.3990020751953,-213.9810028076172 C236.91099548339844,-184.7519989013672 278.4809875488281,-95.79000091552734 249.2519989013672,-15.277000427246094 C319.77899169921875,-13.04800033569336 375.489990234375,45.32099914550781 374.4289855957031,115.87999725341797 C373.3739929199219,186.4320068359375 315.9330139160156,243.11000061035156 245.3679962158203,243.21800231933594 C245.3679962158203,243.21800231933594 -233.2100067138672,243.21800231933594 -233.2100067138672,243.21800231933594 C-311.7900085449219,243.21800231933594 -375.489990234375,179.51800537109375 -375.489990234375,100.93800354003906 C-375.489990234375,22.36400032043457 -311.7900085449219,-41.34299850463867 -233.2100067138672,-41.34299850463867z"></path></g><g opacity="1" transform="matrix(1,0,0,1,1750.677978515625,144.6179962158203)"><path fill="rgb(225,230,233)" fill-opacity="1" d=" M31.305999755859375,31.236000061035156 C39.020999908447266,9.987000465393066 50.89899826049805,-8.54699993133545 65.68299865722656,-23.78499984741211 C38.14899826049805,-31.23699951171875 8.569999694824219,-28.350000381469727 -17.273000717163086,-15.230999946594238 C-37.832000732421875,-4.791999816894531 -54.55099868774414,11.383999824523926 -65.68299865722656,30.968000411987305 C-34.93299865722656,16.951000213623047 0.49300000071525574,16.974000930786133 31.305999755859375,31.236000061035156z"></path></g><g opacity="1" transform="matrix(1,0,0,1,2052.44091796875,244.20700073242188)"><path fill="rgb(225,230,233)" fill-opacity="1" d=" M73.927001953125,-10.807000160217285 C103.15599822998047,-91.31900024414062 61.584999084472656,-180.28199768066406 -18.927000045776367,-209.51100158691406 C-87.06600189208984,-234.25399780273438 -161.2519989013672,-208.2729949951172 -200.1649932861328,-150.9040069580078 C-162.2519989013672,-172.00599670410156 -115.74199676513672,-177.1719970703125 -71.75399780273438,-161.19900512695312 C8.758999824523926,-131.97000122070312 50.32899856567383,-43.007999420166016 21.100000381469727,37.505001068115234 C91.62699890136719,39.73400115966797 147.33799743652344,98.10399627685547 146.27699279785156,168.66299438476562 C145.91700744628906,192.7010040283203 139.0070037841797,215.12600708007812 127.26699829101562,234.25399780273438 C169.27099609375,213.3939971923828 198.3560028076172,170.36199951171875 199.10400390625,120.35099792480469 C200.1649932861328,49.79199981689453 144.45399475097656,-8.57800006866455 73.927001953125,-10.807000160217285z"></path></g><g opacity="1" transform="matrix(1,0,0,1,1584.0760498046875,239.73500061035156)"><path fill="rgb(225,230,233)" fill-opacity="1" d=" M7.004000186920166,15.911999702453613 C16.46500015258789,15.918000221252441 25.89900016784668,16.858999252319336 35.176998138427734,18.735000610351562 C38.99100112915039,-0.2980000078678131 47.45899963378906,-17.79800033569336 59.5099983215332,-32.395999908447266 C9.645000457763672,-32.2859992980957 -34.189998626708984,-6.520999908447266 -59.5099983215332,32.395999908447266 C-39.659000396728516,21.878000259399414 -17.025999069213867,15.911999702453613 7.004000186920166,15.911999702453613z"></path></g><g opacity="1" transform="matrix(1,0,0,1,1878.9439697265625,252.53900146484375)"><path fill="rgb(0,53,42)" fill-opacity="1" d=" M-235.03799438476562,-58.138999938964844 C-228.8419952392578,-58.13199996948242 -222.6529998779297,-57.7599983215332 -216.5019989013672,-57.020999908447266 C-199.80299377441406,-111.39900207519531 -149.63800048828125,-148.56100463867188 -92.75900268554688,-148.68099975585938 C-78.5989990234375,-148.6929931640625 -64.54000091552734,-146.343994140625 -51.15700149536133,-141.73300170898438 C-18.0310001373291,-213.36000061035156 60.47200012207031,-252.28900146484375 137.53599548339844,-235.3000030517578 C214.60699462890625,-218.31100463867188 269.4649963378906,-149.98800659179688 269.4079895019531,-71.072998046875 C269.4020080566406,-57.4379997253418 267.7030029296875,-43.85300064086914 264.3680114746094,-30.639999389648438 C337.79400634765625,-19.43000030517578 390.25201416015625,46.380001068115234 384.7950134277344,120.45600128173828 C379.3450012207031,194.53900146484375 317.8190002441406,251.96099853515625 243.5399932861328,252.28900146484375 C243.5399932861328,252.28900146484375 -235.03799438476562,252.28900146484375 -235.03799438476562,252.28900146484375 C-320.760986328125,252.28900146484375 -390.25201416015625,182.7989959716797 -390.25201416015625,97.07599639892578 C-390.25201416015625,11.352999687194824 -320.760986328125,-58.138999938964844 -235.03799438476562,-58.138999938964844z M-235.03799438476562,226.4199981689453 C-235.03799438476562,226.4199981689453 243.5399932861328,226.4199981689453 243.5399932861328,226.4199981689453 C307.3089904785156,226.697998046875 359.4129943847656,175.58599853515625 360.3659973144531,111.822998046875 C361.3139953613281,48.060001373291016 310.7569885253906,-4.583000183105469 247.00599670410156,-6.205999851226807 C242.86900329589844,-6.320000171661377 239.03599548339844,-8.409000396728516 236.69900512695312,-11.826000213623047 C234.3560028076172,-15.243000030517578 233.79400634765625,-19.569000244140625 235.18299865722656,-23.472000122070312 C260.8559875488281,-96.94200134277344 222.6649932861328,-177.3979949951172 149.51100158691406,-203.96200561523438 C76.35600280761719,-230.5260009765625 -4.559999942779541,-193.30799865722656 -32.000999450683594,-120.48200225830078 C-33.257999420166016,-117.10299682617188 -35.86000061035156,-114.40599822998047 -39.18899917602539,-113.02899932861328 C-42.52299880981445,-111.65299987792969 -46.26900100708008,-111.72699737548828 -49.54100036621094,-113.23699951171875 C-63.082000732421875,-119.53399658203125 -77.8290023803711,-122.79900360107422 -92.75900268554688,-122.81099700927734 C-141.9709930419922,-122.7229995727539 -184.3489990234375,-88.05599975585938 -194.177001953125,-39.83599853515625 C-195.5850067138672,-32.82500076293945 -202.41200256347656,-28.291000366210938 -209.41600036621094,-29.70599937438965 C-217.84800720214844,-31.398000717163086 -226.42999267578125,-32.25699996948242 -235.03799438476562,-32.27000045776367 C-306.4750061035156,-32.27000045776367 -364.3840026855469,25.645000457763672 -364.3840026855469,97.07599639892578 C-364.3840026855469,168.51199340820312 -306.4750061035156,226.4199981689453 -235.03799438476562,226.4199981689453z"></path></g></g><g transform="matrix(1,0,0,1,3084.726318359375,365)" opacity="1" style="display: block;"><g opacity="1" transform="matrix(1,0,0,1,352.8900146484375,1164.5169677734375)"><path fill="rgb(238,239,238)" fill-opacity="1" d=" M-211.72500610351562,-37.53300094604492 C-203.13600158691406,-37.527000427246094 -194.56900024414062,-36.67300033569336 -186.14599609375,-34.970001220703125 C-179.7989959716797,-66.64900207519531 -159.2779998779297,-93.6729965209961 -130.4709930419922,-108.30000305175781 C-101.65799713134766,-122.927001953125 -67.73100280761719,-123.5459976196289 -38.40800094604492,-109.9739990234375 C-11.871999740600586,-183.06399536132812 68.8949966430664,-220.80999755859375 141.99000549316406,-194.26800537109375 C215.0850067138672,-167.7310028076172 252.8249969482422,-86.96399688720703 226.28900146484375,-13.869000434875488 C290.3190002441406,-11.845000267028809 340.8970031738281,41.14699935913086 339.9339904785156,105.20500183105469 C338.97601318359375,169.25799560546875 286.8269958496094,220.71400451660156 222.76300048828125,220.81100463867188 C222.76300048828125,220.81100463867188 -211.72500610351562,220.81100463867188 -211.72500610351562,220.81100463867188 C-283.06500244140625,220.81100463867188 -340.8970031738281,162.97900390625 -340.8970031738281,91.63899993896484 C-340.8970031738281,20.304000854492188 -283.06500244140625,-37.53300094604492 -211.72500610351562,-37.53300094604492z"></path></g><g opacity="1" transform="matrix(1,0,0,1,238.1009979248047,1070.0439453125)"><path fill="rgb(225,230,233)" fill-opacity="1" d=" M28.42099952697754,28.358999252319336 C35.42499923706055,9.067999839782715 46.209999084472656,-7.758999824523926 59.63199996948242,-21.593000411987305 C34.63399887084961,-28.358999252319336 7.781000137329102,-25.73900032043457 -15.682000160217285,-13.82800006866455 C-34.34600067138672,-4.35099983215332 -49.5260009765625,10.335000038146973 -59.63199996948242,28.114999771118164 C-31.71500015258789,15.390000343322754 0.44600000977516174,15.41100025177002 28.42099952697754,28.358999252319336z"></path></g><g opacity="1" transform="matrix(1,0,0,1,512.06298828125,1160.458984375)"><path fill="rgb(225,230,233)" fill-opacity="1" d=" M67.11599731445312,-9.812000274658203 C93.6520004272461,-82.90699768066406 55.9119987487793,-163.6739959716797 -17.183000564575195,-190.2100067138672 C-79.04399871826172,-212.67300415039062 -146.39599609375,-189.08599853515625 -181.7239990234375,-137.0019989013672 C-147.30299377441406,-156.16099548339844 -105.0780029296875,-160.85000610351562 -65.14299774169922,-146.3489990234375 C7.952000141143799,-119.81300354003906 45.69300079345703,-39.04600143432617 19.1560001373291,34.04899978637695 C83.18599700927734,36.073001861572266 133.76400756835938,89.06500244140625 132.80099487304688,153.12399291992188 C132.47500610351562,174.947998046875 126.20099639892578,195.3070068359375 115.54299926757812,212.67300415039062 C153.677001953125,193.73399353027344 180.08200073242188,154.66700744628906 180.76100158691406,109.26300048828125 C181.7239990234375,45.20399856567383 131.14599609375,-7.788000106811523 67.11599731445312,-9.812000274658203z"></path></g><g opacity="1" transform="matrix(1,0,0,1,86.84700012207031,1156.3990478515625)"><path fill="rgb(225,230,233)" fill-opacity="1" d=" M6.359000205993652,14.446000099182129 C14.947999954223633,14.45199966430664 23.513999938964844,15.305999755859375 31.937000274658203,17.009000778198242 C35.39899826049805,-0.27000001072883606 43.08700180053711,-16.158000946044922 54.027000427246094,-29.410999298095703 C8.756999969482422,-29.31100082397461 -31.040000915527344,-5.921000003814697 -54.027000427246094,29.410999298095703 C-36.005001068115234,19.86199951171875 -15.456999778747559,14.446000099182129 6.359000205993652,14.446000099182129z"></path></g><g opacity="1" transform="matrix(1,0,0,1,354.54998779296875,1168.0240478515625)"><path fill="rgb(0,53,42)" fill-opacity="1" d=" M-213.38499450683594,-52.78300094604492 C-207.75999450683594,-52.777000427246094 -202.14100646972656,-52.43899917602539 -196.55599975585938,-51.768001556396484 C-181.39599609375,-101.13700103759766 -135.8520050048828,-134.87399291992188 -84.21299743652344,-134.98300170898438 C-71.35800170898438,-134.9949951171875 -58.59400177001953,-132.86199951171875 -46.444000244140625,-128.67599487304688 C-16.3700008392334,-193.70399475097656 54.902000427246094,-229.0469970703125 124.86599731445312,-213.6230010986328 C194.83599853515625,-198.19900512695312 244.63999938964844,-136.1699981689453 244.58900451660156,-64.5260009765625 C244.58299255371094,-52.14699935913086 243.0399932861328,-39.8129997253418 240.01300048828125,-27.81800079345703 C306.67498779296875,-17.639999389648438 354.29998779296875,42.10599899291992 349.34600830078125,109.35900115966797 C344.3970031738281,176.61700439453125 288.5379943847656,228.74899291992188 221.10299682617188,229.0469970703125 C221.10299682617188,229.0469970703125 -213.38499450683594,229.0469970703125 -213.38499450683594,229.0469970703125 C-291.2099914550781,229.0469970703125 -354.29998779296875,165.95700073242188 -354.29998779296875,88.13200378417969 C-354.29998779296875,10.305999755859375 -291.2099914550781,-52.78300094604492 -213.38499450683594,-52.78300094604492z M-213.38499450683594,205.56100463867188 C-213.38499450683594,205.56100463867188 221.10299682617188,205.56100463867188 221.10299682617188,205.56100463867188 C278.99700927734375,205.81300354003906 326.302001953125,159.40899658203125 327.1669921875,101.5199966430664 C328.0270080566406,43.63199996948242 282.12799072265625,-4.159999847412109 224.25100708007812,-5.633999824523926 C220.4949951171875,-5.736999988555908 217.01400756835938,-7.635000228881836 214.89300537109375,-10.737000465393066 C212.76600646972656,-13.83899974822998 212.2550048828125,-17.766000747680664 213.51699829101562,-21.309999465942383 C236.8249969482422,-88.01200103759766 202.15199279785156,-161.05499267578125 135.73699951171875,-185.1719970703125 C69.3219985961914,-209.28799438476562 -4.139999866485596,-175.49899291992188 -29.05299949645996,-109.38200378417969 C-30.194000244140625,-106.31400299072266 -32.55699920654297,-103.86599731445312 -35.57899856567383,-102.61599731445312 C-38.60599899291992,-101.36599731445312 -42.00600051879883,-101.43499755859375 -44.97600173950195,-102.80500030517578 C-57.27000045776367,-108.52200317382812 -70.65799713134766,-111.48600006103516 -84.21299743652344,-111.49800109863281 C-128.89100646972656,-111.41699981689453 -167.36500549316406,-79.94400024414062 -176.28700256347656,-36.16600036621094 C-177.5659942626953,-29.802000045776367 -183.76400756835938,-25.684999465942383 -190.1230010986328,-26.9689998626709 C-197.77699279785156,-28.506000518798828 -205.57000732421875,-29.285999298095703 -213.38499450683594,-29.297000885009766 C-278.239990234375,-29.297000885009766 -330.8139953613281,23.281999588012695 -330.8139953613281,88.13200378417969 C-330.8139953613281,152.98699951171875 -278.239990234375,205.56100463867188 -213.38499450683594,205.56100463867188z"></path></g><g opacity="1" transform="matrix(1,0,0,1,1877.115966796875,248.677001953125)"><path fill="rgb(238,239,238)" fill-opacity="1" d=" M-233.2100067138672,-41.34299850463867 C-223.74899291992188,-41.33700180053711 -214.31399536132812,-40.39500045776367 -205.03599548339844,-38.51900100708008 C-198.04400634765625,-73.41300201416016 -175.44000244140625,-103.18000030517578 -143.7100067138672,-119.29100036621094 C-111.9739990234375,-135.4029998779297 -74.60399627685547,-136.0850067138672 -42.305999755859375,-121.13500213623047 C-13.07699966430664,-201.64199829101562 75.88600158691406,-243.2169952392578 156.3990020751953,-213.9810028076172 C236.91099548339844,-184.7519989013672 278.4809875488281,-95.79000091552734 249.2519989013672,-15.277000427246094 C319.77899169921875,-13.04800033569336 375.489990234375,45.32099914550781 374.4289855957031,115.87999725341797 C373.3739929199219,186.4320068359375 315.9330139160156,243.11000061035156 245.3679962158203,243.21800231933594 C245.3679962158203,243.21800231933594 -233.2100067138672,243.21800231933594 -233.2100067138672,243.21800231933594 C-311.7900085449219,243.21800231933594 -375.489990234375,179.51800537109375 -375.489990234375,100.93800354003906 C-375.489990234375,22.36400032043457 -311.7900085449219,-41.34299850463867 -233.2100067138672,-41.34299850463867z"></path></g><g opacity="1" transform="matrix(1,0,0,1,1750.677978515625,144.6179962158203)"><path fill="rgb(225,230,233)" fill-opacity="1" d=" M31.305999755859375,31.236000061035156 C39.020999908447266,9.987000465393066 50.89899826049805,-8.54699993133545 65.68299865722656,-23.78499984741211 C38.14899826049805,-31.23699951171875 8.569999694824219,-28.350000381469727 -17.273000717163086,-15.230999946594238 C-37.832000732421875,-4.791999816894531 -54.55099868774414,11.383999824523926 -65.68299865722656,30.968000411987305 C-34.93299865722656,16.951000213623047 0.49300000071525574,16.974000930786133 31.305999755859375,31.236000061035156z"></path></g><g opacity="1" transform="matrix(1,0,0,1,2052.44091796875,244.20700073242188)"><path fill="rgb(225,230,233)" fill-opacity="1" d=" M73.927001953125,-10.807000160217285 C103.15599822998047,-91.31900024414062 61.584999084472656,-180.28199768066406 -18.927000045776367,-209.51100158691406 C-87.06600189208984,-234.25399780273438 -161.2519989013672,-208.2729949951172 -200.1649932861328,-150.9040069580078 C-162.2519989013672,-172.00599670410156 -115.74199676513672,-177.1719970703125 -71.75399780273438,-161.19900512695312 C8.758999824523926,-131.97000122070312 50.32899856567383,-43.007999420166016 21.100000381469727,37.505001068115234 C91.62699890136719,39.73400115966797 147.33799743652344,98.10399627685547 146.27699279785156,168.66299438476562 C145.91700744628906,192.7010040283203 139.0070037841797,215.12600708007812 127.26699829101562,234.25399780273438 C169.27099609375,213.3939971923828 198.3560028076172,170.36199951171875 199.10400390625,120.35099792480469 C200.1649932861328,49.79199981689453 144.45399475097656,-8.57800006866455 73.927001953125,-10.807000160217285z"></path></g><g opacity="1" transform="matrix(1,0,0,1,1584.0760498046875,239.73500061035156)"><path fill="rgb(225,230,233)" fill-opacity="1" d=" M7.004000186920166,15.911999702453613 C16.46500015258789,15.918000221252441 25.89900016784668,16.858999252319336 35.176998138427734,18.735000610351562 C38.99100112915039,-0.2980000078678131 47.45899963378906,-17.79800033569336 59.5099983215332,-32.395999908447266 C9.645000457763672,-32.2859992980957 -34.189998626708984,-6.520999908447266 -59.5099983215332,32.395999908447266 C-39.659000396728516,21.878000259399414 -17.025999069213867,15.911999702453613 7.004000186920166,15.911999702453613z"></path></g><g opacity="1" transform="matrix(1,0,0,1,1878.9439697265625,252.53900146484375)"><path fill="rgb(0,53,42)" fill-opacity="1" d=" M-235.03799438476562,-58.138999938964844 C-228.8419952392578,-58.13199996948242 -222.6529998779297,-57.7599983215332 -216.5019989013672,-57.020999908447266 C-199.80299377441406,-111.39900207519531 -149.63800048828125,-148.56100463867188 -92.75900268554688,-148.68099975585938 C-78.5989990234375,-148.6929931640625 -64.54000091552734,-146.343994140625 -51.15700149536133,-141.73300170898438 C-18.0310001373291,-213.36000061035156 60.47200012207031,-252.28900146484375 137.53599548339844,-235.3000030517578 C214.60699462890625,-218.31100463867188 269.4649963378906,-149.98800659179688 269.4079895019531,-71.072998046875 C269.4020080566406,-57.4379997253418 267.7030029296875,-43.85300064086914 264.3680114746094,-30.639999389648438 C337.79400634765625,-19.43000030517578 390.25201416015625,46.380001068115234 384.7950134277344,120.45600128173828 C379.3450012207031,194.53900146484375 317.8190002441406,251.96099853515625 243.5399932861328,252.28900146484375 C243.5399932861328,252.28900146484375 -235.03799438476562,252.28900146484375 -235.03799438476562,252.28900146484375 C-320.760986328125,252.28900146484375 -390.25201416015625,182.7989959716797 -390.25201416015625,97.07599639892578 C-390.25201416015625,11.352999687194824 -320.760986328125,-58.138999938964844 -235.03799438476562,-58.138999938964844z M-235.03799438476562,226.4199981689453 C-235.03799438476562,226.4199981689453 243.5399932861328,226.4199981689453 243.5399932861328,226.4199981689453 C307.3089904785156,226.697998046875 359.4129943847656,175.58599853515625 360.3659973144531,111.822998046875 C361.3139953613281,48.060001373291016 310.7569885253906,-4.583000183105469 247.00599670410156,-6.205999851226807 C242.86900329589844,-6.320000171661377 239.03599548339844,-8.409000396728516 236.69900512695312,-11.826000213623047 C234.3560028076172,-15.243000030517578 233.79400634765625,-19.569000244140625 235.18299865722656,-23.472000122070312 C260.8559875488281,-96.94200134277344 222.6649932861328,-177.3979949951172 149.51100158691406,-203.96200561523438 C76.35600280761719,-230.5260009765625 -4.559999942779541,-193.30799865722656 -32.000999450683594,-120.48200225830078 C-33.257999420166016,-117.10299682617188 -35.86000061035156,-114.40599822998047 -39.18899917602539,-113.02899932861328 C-42.52299880981445,-111.65299987792969 -46.26900100708008,-111.72699737548828 -49.54100036621094,-113.23699951171875 C-63.082000732421875,-119.53399658203125 -77.8290023803711,-122.79900360107422 -92.75900268554688,-122.81099700927734 C-141.9709930419922,-122.7229995727539 -184.3489990234375,-88.05599975585938 -194.177001953125,-39.83599853515625 C-195.5850067138672,-32.82500076293945 -202.41200256347656,-28.291000366210938 -209.41600036621094,-29.70599937438965 C-217.84800720214844,-31.398000717163086 -226.42999267578125,-32.25699996948242 -235.03799438476562,-32.27000045776367 C-306.4750061035156,-32.27000045776367 -364.3840026855469,25.645000457763672 -364.3840026855469,97.07599639892578 C-364.3840026855469,168.51199340820312 -306.4750061035156,226.4199981689453 -235.03799438476562,226.4199981689453z"></path></g></g></g></g><g transform="matrix(1,0,0,1,0,148)" opacity="1" style="display: block;"><g opacity="1" transform="matrix(1,0,0,1,1794.470947265625,1518.781982421875)"><path fill="rgb(140,201,40)" fill-opacity="1" d=" M0,593.2559814453125 C-47.00699996948242,593.2559814453125 -92.48500061035156,578.864013671875 -135.17100524902344,550.4810180664062 C-175.73800659179688,523.5059814453125 -212.05799865722656,485.0679931640625 -243.1230010986328,436.2330017089844 C-306.1929931640625,337.0790100097656 -340.9280090332031,205.54800415039062 -340.9280090332031,65.86900329589844 C-340.9280090332031,-73.80899810791016 -306.1929931640625,-205.34100341796875 -243.1230010986328,-304.4939880371094 C-212.05799865722656,-353.3290100097656 -175.73800659179688,-391.76800537109375 -135.17100524902344,-418.74200439453125 C-92.48500061035156,-447.1260070800781 -47.00699996948242,-461.5169982910156 0,-461.5169982910156 C47.00699996948242,-461.5169982910156 92.48500061035156,-447.1260070800781 135.17100524902344,-418.74200439453125 C175.73800659179688,-391.76800537109375 212.05799865722656,-353.3290100097656 243.1230010986328,-304.4939880371094 C306.1929931640625,-205.34100341796875 340.9280090332031,-73.80899810791016 340.9280090332031,65.86900329589844 C340.9280090332031,205.54800415039062 306.1929931640625,337.0790100097656 243.1230010986328,436.2330017089844 C212.05799865722656,485.0679931640625 175.73800659179688,523.5059814453125 135.17100524902344,550.4810180664062 C92.48500061035156,578.864013671875 47.00699996948242,593.2559814453125 0,593.2559814453125z"></path></g><g opacity="1" transform="matrix(1,0,0,1,1794.470947265625,1511.281982421875)"><path fill="rgb(0,53,42)" fill-opacity="1" d=" M0,-439.0169982910156 C180.0050048828125,-439.0169982910156 325.9280090332031,-209.61399841308594 325.9280090332031,73.37000274658203 C325.9280090332031,356.3529968261719 180.0050048828125,585.7559814453125 0,585.7559814453125 C-180.0050048828125,585.7559814453125 -325.9280090332031,356.3529968261719 -325.9280090332031,73.37000274658203 C-325.9280090332031,-209.61399841308594 -180.0050048828125,-439.0169982910156 0,-439.0169982910156z M0,-469.0169982910156 C-25.23699951171875,-469.0169982910156 -50.428001403808594,-465.0299987792969 -74.87300109863281,-457.1659851074219 C-98.427001953125,-449.5889892578125 -121.50900268554688,-438.3399963378906 -143.4770050048828,-423.7330017089844 C-185.7989959716797,-395.59100341796875 -223.58299255371094,-355.6579895019531 -255.7790069580078,-305.04400634765625 C-287.34698486328125,-255.41700744628906 -312.0780029296875,-197.8249969482422 -329.2850036621094,-133.86900329589844 C-346.9639892578125,-68.15799713134766 -355.9280090332031,1.5670000314712524 -355.9280090332031,73.37000274658203 C-355.9280090332031,145.1719970703125 -346.9639892578125,214.89700317382812 -329.2850036621094,280.6080017089844 C-312.0780029296875,344.5639953613281 -287.34698486328125,402.156005859375 -255.7790069580078,451.7829895019531 C-223.58299255371094,502.3970031738281 -185.7989959716797,542.3300170898438 -143.4770050048828,570.4719848632812 C-121.50900268554688,585.0789794921875 -98.427001953125,596.3280029296875 -74.87300109863281,603.905029296875 C-50.428001403808594,611.7689819335938 -25.23699951171875,615.7559814453125 0,615.7559814453125 C25.23699951171875,615.7559814453125 50.428001403808594,611.7689819335938 74.87300109863281,603.905029296875 C98.427001953125,596.3280029296875 121.50900268554688,585.0789794921875 143.4770050048828,570.4719848632812 C185.7989959716797,542.3300170898438 223.58299255371094,502.3970031738281 255.7790069580078,451.7829895019531 C287.34698486328125,402.156005859375 312.0780029296875,344.5639953613281 329.2850036621094,280.6080017089844 C346.9639892578125,214.89700317382812 355.9280090332031,145.1719970703125 355.9280090332031,73.37000274658203 C355.9280090332031,1.5670000314712524 346.9639892578125,-68.15799713134766 329.2850036621094,-133.86900329589844 C312.0780029296875,-197.8249969482422 287.34698486328125,-255.41700744628906 255.7790069580078,-305.04400634765625 C223.58299255371094,-355.6579895019531 185.7989959716797,-395.59100341796875 143.4770050048828,-423.7330017089844 C121.50900268554688,-438.3399963378906 98.427001953125,-449.5889892578125 74.87300109863281,-457.1659851074219 C50.428001403808594,-465.0299987792969 25.23699951171875,-469.0169982910156 0,-469.0169982910156z"></path></g><g opacity="1" transform="matrix(1,0,0,1,1631.5069580078125,1526.2860107421875)"><path fill="rgb(130,178,11)" fill-opacity="1" d=" M162.96400451660156,570.7579956054688 C-17.059999465942383,570.7579956054688 -162.96400451660156,341.34100341796875 -162.96400451660156,58.37099838256836 C-162.96400451660156,-224.59800720214844 -17.059999465942383,-454.0119934082031 162.96400451660156,-454.0119934082031 C83.26200103759766,-454.0119934082031 18.683000564575195,-224.59500122070312 18.683000564575195,58.374000549316406 C18.683000564575195,341.343994140625 83.26200103759766,570.7579956054688 162.96400451660156,570.7579956054688z"></path></g><g opacity="1" transform="matrix(1,0,0,1,1760.6519775390625,1584.6590576171875)"><path fill="rgb(0,53,42)" fill-opacity="1" d=" M46.29899978637695,251.1820068359375 C46.29899978637695,251.1820068359375 46.29899978637695,-56.96699905395508 46.29899978637695,-56.96699905395508 C46.29899978637695,-56.96699905395508 91.61299896240234,-102.27999877929688 91.61299896240234,-102.27999877929688 C103.13800048828125,-113.80899810791016 103.13800048828125,-132.49200439453125 91.61299896240234,-144.01699829101562 C80.08699798583984,-155.53799438476562 61.4010009765625,-155.53799438476562 49.880001068115234,-144.01699829101562 C49.880001068115234,-144.01699829101562 46.29899978637695,-140.43600463867188 46.29899978637695,-140.43600463867188 C46.29899978637695,-140.43600463867188 46.29899978637695,-221.6790008544922 46.29899978637695,-221.6790008544922 C46.29899978637695,-237.9810028076172 33.08599853515625,-251.19000244140625 16.788000106811523,-251.19000244140625 C0.49000000953674316,-251.19000244140625 -12.723999977111816,-237.9810028076172 -12.723999977111816,-221.6790008544922 C-12.723999977111816,-221.6790008544922 -12.723999977111816,30.76799964904785 -12.723999977111816,30.76799964904785 C-12.723999977111816,30.76799964904785 -49.880001068115234,-6.388000011444092 -49.880001068115234,-6.388000011444092 C-61.404998779296875,-17.90999984741211 -80.09200286865234,-17.90999984741211 -91.61299896240234,-6.388000011444092 C-103.13800048828125,5.140999794006348 -103.13800048828125,23.822999954223633 -91.61299896240234,35.347999572753906 C-91.61299896240234,35.347999572753906 -16.889999389648438,110.07099914550781 -16.889999389648438,110.07099914550781 C-15.588000297546387,111.37300109863281 -14.182999610900879,112.50599670410156 -12.720000267028809,113.51399993896484 C-12.720000267028809,113.51399993896484 -12.720000267028809,251.19000244140625 -12.720000267028809,251.19000244140625"></path></g><g opacity="1" transform="matrix(1,0,0,1,1237.1409912109375,1902.3189697265625)"><path fill="rgb(231,170,108)" fill-opacity="1" d=" M-1221.8489990234375,-62.9370002746582 C-1221.8489990234375,-62.9370002746582 1221.8489990234375,-62.9370002746582 1221.8489990234375,-62.9370002746582 C1221.8489990234375,-62.9370002746582 1221.8489990234375,62.9370002746582 1221.8489990234375,62.9370002746582 C1221.8489990234375,62.9370002746582 -1221.8489990234375,62.9370002746582 -1221.8489990234375,62.9370002746582 C-1221.8489990234375,62.9370002746582 -1221.8489990234375,-62.9370002746582 -1221.8489990234375,-62.9370002746582z"></path></g><g opacity="1" transform="matrix(1,0,0,1,1237.1419677734375,927.3369750976562)"><path fill="rgb(231,170,108)" fill-opacity="1" d=" M-1111.0179443359375,912.0449829101562 C-1111.0179443359375,912.0449829101562 1111.0179443359375,912.0449829101562 1111.0179443359375,912.0449829101562 C1111.0179443359375,912.0449829101562 1111.0179443359375,-912.0449829101562 1111.0179443359375,-912.0449829101562 C1111.0179443359375,-912.0449829101562 -1111.0179443359375,-912.0449829101562 -1111.0179443359375,-912.0449829101562 C-1111.0179443359375,-912.0449829101562 -1111.0179443359375,912.0449829101562 -1111.0179443359375,912.0449829101562z M959.7890014648438,772.2420043945312 C959.7890014648438,772.2420043945312 -962.3709716796875,772.2420043945312 -962.3709716796875,772.2420043945312 C-962.3709716796875,772.2420043945312 -962.3709716796875,-772.2119750976562 -962.3709716796875,-772.2119750976562 C-962.3709716796875,-772.2119750976562 959.7890014648438,-772.2119750976562 959.7890014648438,-772.2119750976562 C959.7890014648438,-772.2119750976562 959.7890014648438,772.2420043945312 959.7890014648438,772.2420043945312z"></path></g><g opacity="1" transform="matrix(1,0,0,1,1237.1419677734375,1902.3189697265625)"><path fill="rgb(0,53,42)" fill-opacity="1" d=" M1221.8489990234375,77.97899627685547 C1221.8489990234375,77.97899627685547 -1221.8499755859375,77.97899627685547 -1221.8499755859375,77.97899627685547 C-1230.157958984375,77.97899627685547 -1236.8919677734375,71.24500274658203 -1236.8919677734375,62.9379997253418 C-1236.8919677734375,62.9379997253418 -1236.8919677734375,-62.9370002746582 -1236.8919677734375,-62.9370002746582 C-1236.8919677734375,-71.24500274658203 -1230.157958984375,-77.97899627685547 -1221.8499755859375,-77.97899627685547 C-1221.8499755859375,-77.97899627685547 1221.8489990234375,-77.97899627685547 1221.8489990234375,-77.97899627685547 C1230.156982421875,-77.97899627685547 1236.8919677734375,-71.24500274658203 1236.8919677734375,-62.9370002746582 C1236.8919677734375,-62.9370002746582 1236.8919677734375,62.9379997253418 1236.8919677734375,62.9379997253418 C1236.8919677734375,71.24500274658203 1230.156982421875,77.97899627685547 1221.8489990234375,77.97899627685547z M-1206.8079833984375,47.89500045776367 C-1206.8079833984375,47.89500045776367 1206.8070068359375,47.89500045776367 1206.8070068359375,47.89500045776367 C1206.8070068359375,47.89500045776367 1206.8070068359375,-47.89500045776367 1206.8070068359375,-47.89500045776367 C1206.8070068359375,-47.89500045776367 -1206.8079833984375,-47.89500045776367 -1206.8079833984375,-47.89500045776367 C-1206.8079833984375,-47.89500045776367 -1206.8079833984375,47.89500045776367 -1206.8079833984375,47.89500045776367z"></path></g><g opacity="1" transform="matrix(1,0,0,1,1237.1409912109375,927.3380126953125)"><path fill="rgb(0,53,42)" fill-opacity="1" d=" M1111.0179443359375,927.0869750976562 C1111.0179443359375,927.0869750976562 -1111.0169677734375,927.0869750976562 -1111.0169677734375,927.0869750976562 C-1119.324951171875,927.0869750976562 -1126.06005859375,920.3519897460938 -1126.06005859375,912.0440063476562 C-1126.06005859375,912.0440063476562 -1126.06005859375,-912.0460205078125 -1126.06005859375,-912.0460205078125 C-1126.06005859375,-920.35302734375 -1119.324951171875,-927.0880126953125 -1111.0169677734375,-927.0880126953125 C-1111.0169677734375,-927.0880126953125 1111.0179443359375,-927.0880126953125 1111.0179443359375,-927.0880126953125 C1119.324951171875,-927.0880126953125 1126.06005859375,-920.35302734375 1126.06005859375,-912.0460205078125 C1126.06005859375,-912.0460205078125 1126.06005859375,912.0440063476562 1126.06005859375,912.0440063476562 C1126.06005859375,920.3519897460938 1119.324951171875,927.0869750976562 1111.0179443359375,927.0869750976562z M-1096.0050048828125,897.0020141601562 C-1096.0050048828125,897.0020141601562 1095.9749755859375,897.0020141601562 1095.9749755859375,897.0020141601562 C1095.9749755859375,897.0020141601562 1095.9749755859375,-897.0029907226562 1095.9749755859375,-897.0029907226562 C1095.9749755859375,-897.0029907226562 -1095.9749755859375,-897.0029907226562 -1095.9749755859375,-897.0029907226562 C-1095.9749755859375,-897.0029907226562 -1096.0050048828125,897.0020141601562 -1096.0050048828125,897.0020141601562z"></path></g><g opacity="1" transform="matrix(1,0,0,1,1237.1409912109375,927.3369750976562)"><path fill="rgb(0,53,42)" fill-opacity="1" d=" M962.3699951171875,787.2540283203125 C962.3699951171875,787.2540283203125 -962.3690185546875,787.2540283203125 -962.3690185546875,787.2540283203125 C-970.677001953125,787.2540283203125 -977.4119873046875,780.5189819335938 -977.4119873046875,772.2109985351562 C-977.4119873046875,772.2109985351562 -977.4119873046875,-772.2119750976562 -977.4119873046875,-772.2119750976562 C-977.4119873046875,-780.5189819335938 -970.677001953125,-787.2540283203125 -962.3690185546875,-787.2540283203125 C-962.3690185546875,-787.2540283203125 962.3699951171875,-787.2540283203125 962.3699951171875,-787.2540283203125 C970.677001953125,-787.2540283203125 977.4119873046875,-780.5189819335938 977.4119873046875,-772.2119750976562 C977.4119873046875,-772.2119750976562 977.4119873046875,772.2109985351562 977.4119873046875,772.2109985351562 C977.4119873046875,780.5189819335938 970.677001953125,787.2540283203125 962.3699951171875,787.2540283203125z M-947.3270263671875,757.1690063476562 C-947.3270263671875,757.1690063476562 947.3280029296875,757.1690063476562 947.3280029296875,757.1690063476562 C947.3280029296875,757.1690063476562 947.3280029296875,-757.1699829101562 947.3280029296875,-757.1699829101562 C947.3280029296875,-757.1699829101562 -947.3270263671875,-757.1699829101562 -947.3270263671875,-757.1699829101562 C-947.3270263671875,-757.1699829101562 -947.3270263671875,757.1690063476562 -947.3270263671875,757.1690063476562z"></path></g><g opacity="1" transform="matrix(1,0,0,1,1285.8699951171875,927.3369750976562)"><path fill="rgb(231,170,108)" fill-opacity="1" d=" M-63.79399871826172,-912.0449829101562 C-63.79399871826172,-912.0449829101562 63.79499816894531,-912.0449829101562 63.79499816894531,-912.0449829101562 C63.79499816894531,-912.0449829101562 63.79499816894531,912.0449829101562 63.79499816894531,912.0449829101562 C63.79499816894531,912.0449829101562 -63.79399871826172,912.0449829101562 -63.79399871826172,912.0449829101562 C-63.79399871826172,912.0449829101562 -63.79399871826172,-912.0449829101562 -63.79399871826172,-912.0449829101562z"></path></g><g opacity="1" transform="matrix(1,0,0,1,1285.885009765625,927.3369750976562)"><path fill="rgb(0,53,42)" fill-opacity="1" d=" M63.77899932861328,927.0869750976562 C63.77899932861328,927.0869750976562 -63.779998779296875,927.0869750976562 -63.779998779296875,927.0869750976562 C-72.08699798583984,927.0869750976562 -78.8219985961914,920.35302734375 -78.8219985961914,912.0449829101562 C-78.8219985961914,912.0449829101562 -78.8219985961914,-912.0449829101562 -78.8219985961914,-912.0449829101562 C-78.8219985961914,-920.35302734375 -72.08699798583984,-927.0869750976562 -63.779998779296875,-927.0869750976562 C-63.779998779296875,-927.0869750976562 63.77899932861328,-927.0869750976562 63.77899932861328,-927.0869750976562 C72.08699798583984,-927.0869750976562 78.82099914550781,-920.35302734375 78.82099914550781,-912.0449829101562 C78.82099914550781,-912.0449829101562 78.82099914550781,912.0449829101562 78.82099914550781,912.0449829101562 C78.82099914550781,920.35302734375 72.08699798583984,927.0869750976562 63.77899932861328,927.0869750976562z M-48.73699951171875,897.0020141601562 C-48.73699951171875,897.0020141601562 48.73699951171875,897.0020141601562 48.73699951171875,897.0020141601562 C48.73699951171875,897.0020141601562 48.73699951171875,-897.0029907226562 48.73699951171875,-897.0029907226562 C48.73699951171875,-897.0029907226562 -48.73699951171875,-897.0029907226562 -48.73699951171875,-897.0029907226562 C-48.73699951171875,-897.0029907226562 -48.73699951171875,897.0020141601562 -48.73699951171875,897.0020141601562z"></path></g><g opacity="1" transform="matrix(1,0,0,1,1237.1419677734375,927.322021484375)"><path fill="rgb(231,170,108)" fill-opacity="1" d=" M-1111.0179443359375,-63.79499816894531 C-1111.0179443359375,-63.79499816894531 1111.0179443359375,-63.79499816894531 1111.0179443359375,-63.79499816894531 C1111.0179443359375,-63.79499816894531 1111.0179443359375,63.79399871826172 1111.0179443359375,63.79399871826172 C1111.0179443359375,63.79399871826172 -1111.0179443359375,63.79399871826172 -1111.0179443359375,63.79399871826172 C-1111.0179443359375,63.79399871826172 -1111.0179443359375,-63.79499816894531 -1111.0179443359375,-63.79499816894531z"></path></g><g opacity="1" transform="matrix(1,0,0,1,1237.1409912109375,927.3369750976562)"><path fill="rgb(0,53,42)" fill-opacity="1" d=" M1111.0179443359375,78.8219985961914 C1111.0179443359375,78.8219985961914 -1111.0169677734375,78.8219985961914 -1111.0169677734375,78.8219985961914 C-1119.324951171875,78.8219985961914 -1126.06005859375,72.08699798583984 -1126.06005859375,63.77899932861328 C-1126.06005859375,63.77899932861328 -1126.06005859375,-63.77899932861328 -1126.06005859375,-63.77899932861328 C-1126.06005859375,-72.08699798583984 -1119.324951171875,-78.8219985961914 -1111.0169677734375,-78.8219985961914 C-1111.0169677734375,-78.8219985961914 1111.0179443359375,-78.8219985961914 1111.0179443359375,-78.8219985961914 C1119.324951171875,-78.8219985961914 1126.06005859375,-72.08699798583984 1126.06005859375,-63.77899932861328 C1126.06005859375,-63.77899932861328 1126.06005859375,63.808998107910156 1126.06005859375,63.808998107910156 C1126.04296875,72.1050033569336 1119.31298828125,78.8219985961914 1111.0179443359375,78.8219985961914z M-1096.0050048828125,48.73699951171875 C-1096.0050048828125,48.73699951171875 1095.9749755859375,48.73699951171875 1095.9749755859375,48.73699951171875 C1095.9749755859375,48.73699951171875 1095.9749755859375,-48.73699951171875 1095.9749755859375,-48.73699951171875 C1095.9749755859375,-48.73699951171875 -1095.9749755859375,-48.73699951171875 -1095.9749755859375,-48.73699951171875 C-1095.9749755859375,-48.73699951171875 -1096.0050048828125,48.73699951171875 -1096.0050048828125,48.73699951171875z"></path></g></g></g></svg>