<svg xmlns="http://www.w3.org/2000/svg" viewBox="0 0 2918 3321" width="2918" height="3321" preserveAspectRatio="xMidYMid meet" style="width: 100%; height: 100%; transform: translate3d(0px, 0px, 0px);"><defs><clipPath id="__lottie_element_127"><rect width="2918" height="3321" x="0" y="0"></rect></clipPath></defs><g clip-path="url(#__lottie_element_127)"><g transform="matrix(1,0,0,1,1379.5,1515.5)" opacity="1" style="display: block;"><g opacity="1" transform="matrix(1,0,0,1,79.36299896240234,852.5910034179688)"><path fill="rgb(112,76,85)" fill-opacity="1" d=" M79.11399841308594,-773.22802734375 C79.11399841308594,-773.22802734375 79.11399841308594,773.22802734375 79.11399841308594,773.22802734375 C79.11399841308594,816.8980102539062 43.66999816894531,852.3410034179688 0,852.3410034179688 C-43.67100143432617,852.3410034179688 -79.11399841308594,816.8980102539062 -79.11399841308594,773.22802734375 C-79.11399841308594,773.22802734375 -79.11399841308594,-773.22802734375 -79.11399841308594,-773.22802734375 C-79.11399841308594,-816.8980102539062 -43.67100143432617,-852.3410034179688 0,-852.3410034179688 C43.66999816894531,-852.3410034179688 79.11399841308594,-816.8980102539062 79.11399841308594,-773.22802734375z"></path></g><g opacity="1" transform="matrix(1,0,0,1,118.91999816894531,852.5910034179688)"><path fill="rgb(91,54,42)" fill-opacity="1" d=" M39.55699920654297,-773.22802734375 C39.55699920654297,-773.22802734375 39.55699920654297,773.22802734375 39.55699920654297,773.22802734375 C39.55699920654297,816.8980102539062 4.11299991607666,852.3410034179688 -39.55699920654297,852.3410034179688 C-39.55699920654297,852.3410034179688 -39.55699920654297,-852.3410034179688 -39.55699920654297,-852.3410034179688 C4.11299991607666,-852.3410034179688 39.55699920654297,-816.8980102539062 39.55699920654297,-773.22802734375z"></path></g></g><g transform="matrix(0.7721284031867981,0.6354665160179138,-0.6354665160179138,0.7721284031867981,1307.25341796875,-12.7164306640625)" opacity="1" style="display: block;"><g opacity="1" transform="matrix(1,0,0,1,1129.407958984375,1614.9010009765625)"><path fill="rgb(106,169,255)" fill-opacity="1" d=" M298.2049865722656,-299.2070007324219 C298.2049865722656,-299.2070007324219 3.322999954223633,-439.97601318359375 3.322999954223633,-439.97601318359375 C3.322999954223633,-439.97601318359375 -329.0589904785156,439.97601318359375 -329.0589904785156,439.97601318359375 C-329.0589904785156,439.97601318359375 298.2049865722656,-187.28799438476562 298.2049865722656,-187.28799438476562 C329.0589904785156,-218.19500732421875 329.0589904785156,-268.29998779296875 298.2049865722656,-299.2070007324219z"></path></g><g opacity="1" transform="matrix(1,0,0,1,1614.822021484375,980.9920043945312)"><path fill="rgb(250,190,44)" fill-opacity="1" d=" M-187.20899963378906,-298.2049865722656 C-218.11599731445312,-329.0589904785156 -268.22100830078125,-329.0589904785156 -299.12799072265625,-298.2049865722656 C-299.12799072265625,-298.2049865722656 -440.05499267578125,-3.006999969482422 -440.05499267578125,-3.006999969482422 C-440.05499267578125,-3.006999969482422 440.05499267578125,329.0589904785156 440.05499267578125,329.0589904785156 C440.05499267578125,329.0589904785156 -187.20899963378906,-298.2049865722656 -187.20899963378906,-298.2049865722656z"></path></g><g opacity="1" transform="matrix(1,0,0,1,1581.779052734375,1539.083984375)"><path fill="rgb(254,216,67)" fill-opacity="1" d=" M501.8949890136719,-167.42999267578125 C501.8949890136719,-167.42999267578125 501.8949890136719,465.47698974609375 501.8949890136719,465.47698974609375 C501.8949890136719,536.2039794921875 416.34698486328125,570.9089965820312 366.8219909667969,521.4359741210938 C366.8219909667969,521.4359741210938 -470.6189880371094,-316.0580139160156 -470.6189880371094,-316.0580139160156 C-501.8949890136719,-347.3340148925781 -501.0249938964844,-397.51800537109375 -470.6189880371094,-427.92401123046875 C-470.6189880371094,-427.92401123046875 -407.0119934082031,-561.0980224609375 -407.0119934082031,-561.0980224609375 C-279.90301513671875,-570.9080200195312 -114.55599975585938,-530.4019775390625 87.0250015258789,-439.7380065917969 C220.5260009765625,-379.7179870605469 367.260009765625,-298.2099914550781 473.0979919433594,-229.0330047607422 C475.03900146484375,-226.29600524902344 501.8949890136719,-206.6020050048828 501.8949890136719,-167.42999267578125z"></path></g><g opacity="1" transform="matrix(1,0,0,1,980.9920043945312,556.4249877929688)"><path fill="rgb(89,195,106)" fill-opacity="1" d=" M-298.2040100097656,126.36199951171875 C-329.0580139160156,157.2689971923828 -329.0580139160156,207.37399291992188 -298.2040100097656,238.281005859375 C-270.0400085449219,266.39300537109375 -53.375,441.4440002441406 8.227999687194824,448.8810119628906 C8.925000190734863,446.8190002441406 -9.345999717712402,500.9010009765625 329.0580139160156,-500.9010009765625 C329.0580139160156,-500.9010009765625 -298.2040100097656,126.36199951171875 -298.2040100097656,126.36199951171875z"></path></g><g opacity="1" transform="matrix(1,0,0,1,1503.68994140625,524.5869750976562)"><path fill="rgb(151,222,61)" fill-opacity="1" d=" M556.8300170898438,-362.7879943847656 C556.8300170898438,-362.7879943847656 -280.66400146484375,474.65301513671875 -280.66400146484375,474.65301513671875 C-296.1180114746094,490.10699462890625 -316.3710021972656,497.8609924316406 -336.6239929199219,497.8609924316406 C-580.0609741210938,474.4169921875 -496.65899658203125,482.92401123046875 -514.469970703125,480.7200012207031 C-550.7039794921875,342.9570007324219 -510.2510070800781,145.96400451660156 -393.9540100097656,-105.77400207519531 C-334.8940124511719,-233.6739959716797 -257.5369873046875,-371.3630065917969 -193.63900756835938,-469.06298828125 C-190.90199279785156,-471.0039978027344 -171.20799255371094,-497.8609924316406 -132.03599548339844,-497.8609924316406 C-132.03599548339844,-497.8609924316406 500.8710021972656,-497.8609924316406 500.8710021972656,-497.8609924316406 C571.22900390625,-497.8609924316406 606.5130004882812,-412.52398681640625 556.8300170898438,-362.7879943847656z"></path></g><g opacity="1" transform="matrix(1,0,0,1,560.9530029296875,1129.407958984375)"><path fill="rgb(255,67,91)" fill-opacity="1" d=" M-505.4289855957031,-329.0589904785156 C-505.4289855957031,-329.0589904785156 121.83499908447266,298.2049865722656 121.83499908447266,298.2049865722656 C152.74200439453125,329.0589904785156 202.8470001220703,329.0589904785156 233.75399780273438,298.2049865722656 C261.4960021972656,270.4620056152344 483.38299560546875,37.92100143432617 505.4289855957031,-31.222999572753906 C505.4289855957031,-31.222999572753906 -505.4289855957031,-329.0589904785156 -505.4289855957031,-329.0589904785156z"></path></g><g opacity="1" transform="matrix(1,0,0,1,547.8200073242188,580.2589721679688)"><path fill="rgb(255,123,74)" fill-opacity="1" d=" M518.56201171875,517.926025390625 C471.3580017089844,541.7130126953125 414.97601318359375,553.5800170898438 349.57598876953125,553.5800170898438 C228.5850067138672,553.5800170898438 76.79299926757812,512.9149780273438 -104.3239974975586,431.6400146484375 C-309.2799987792969,339.7099914550781 -478.3190002441406,229.26800537109375 -485.3869934082031,224.62600708007812 C-485.3869934082031,224.62600708007812 -492.2959899902344,220.08999633789062 -492.2959899902344,220.08999633789062 C-494.23699951171875,217.35299682617188 -521.093994140625,197.65899658203125 -521.093994140625,158.48800659179688 C-521.093994140625,158.48800659179688 -521.093994140625,-474.41900634765625 -521.093994140625,-474.41900634765625 C-521.093994140625,-544.8300170898438 -435.7030029296875,-580.0089721679688 -386.0199890136719,-530.3259887695312 C-386.0199890136719,-530.3259887695312 451.4209899902344,307.114990234375 451.4209899902344,307.114990234375 C451.4209899902344,307.114990234375 471.14599609375,364.7619934082031 471.14599609375,364.7619934082031 C471.14599609375,364.7619934082031 517.927978515625,501.31201171875 517.927978515625,501.31201171875 C521.0399780273438,504.42401123046875 521.093994140625,510.1199951171875 518.56201171875,517.926025390625z"></path></g><g opacity="1" transform="matrix(1,0,0,1,584.9439697265625,1581.9439697265625)"><path fill="rgb(126,216,246)" fill-opacity="1" d=" M406.22698974609375,130.0019989013672 C348.62701416015625,251.8520050048828 275.3890075683594,381.218994140625 215.406005859375,472.9320068359375 C212.66799926757812,474.87298583984375 192.97900390625,501.72900390625 153.802001953125,501.72900390625 C153.802001953125,501.72900390625 -479.10400390625,501.72900390625 -479.10400390625,501.72900390625 C-549.5150146484375,501.72900390625 -584.6939697265625,416.3399963378906 -535.0640258789062,366.656005859375 C-535.0640258789062,366.656005859375 302.42999267578125,-470.7850036621094 302.42999267578125,-470.7850036621094 C333.20001220703125,-501.55499267578125 383.447998046875,-501.72900390625 414.2969970703125,-470.7850036621094 C414.2969970703125,-470.7850036621094 547.7860107421875,-407.0199890136719 547.7860107421875,-407.0199890136719 C558.281982421875,-271.41900634765625 510.81500244140625,-91.25199890136719 406.22698974609375,130.0019989013672z"></path></g><g opacity="1" transform="matrix(1,0,0,1,1055.199951171875,1055.199951171875)"><path fill="rgb(239,255,204)" fill-opacity="1" d=" M0,-237.33999633789062 C-130.85400390625,-237.33999633789062 -237.33999633789062,-130.85299682617188 -237.33999633789062,0 C-237.33999633789062,130.85400390625 -130.85400390625,237.33999633789062 0,237.33999633789062 C130.85400390625,237.33999633789062 237.33999633789062,130.85400390625 237.33999633789062,0 C237.33999633789062,-130.85299682617188 130.85400390625,-237.33999633789062 0,-237.33999633789062z"></path></g><g opacity="1" transform="matrix(1,0,0,1,1173.8699951171875,1055.199951171875)"><path fill="rgb(211,243,194)" fill-opacity="1" d=" M118.66999816894531,0 C118.66999816894531,130.85400390625 12.182999610900879,237.33999633789062 -118.66999816894531,237.33999633789062 C-118.66999816894531,237.33999633789062 -118.66999816894531,-237.33999633789062 -118.66999816894531,-237.33999633789062 C12.182999610900879,-237.33999633789062 118.66999816894531,-130.85400390625 118.66999816894531,0z"></path></g></g></g></svg>