<svg xmlns="http://www.w3.org/2000/svg" viewBox="0 0 2016 1573" width="2016" height="1573" preserveAspectRatio="xMidYMid meet" style="width: 100%; height: 100%; transform: translate3d(0px, 0px, 0px);"><defs><clipPath id="__lottie_element_22"><rect width="2016" height="1573" x="0" y="0"></rect></clipPath><filter id="__lottie_element_28"><feColorMatrix type="matrix" color-interpolation-filters="sRGB" values="0 0 0 0 0 0 0 0 0 0.2078431397676468 0 0 0 0 0.16470588743686676 0 0 0 1 0"></feColorMatrix></filter></defs><g clip-path="url(#__lottie_element_22)"><g transform="matrix(1,0,0,1,1445.5,504)" opacity="0.1867827396142074" style="display: block;"><g opacity="1" transform="matrix(1,0,0,1,264.46600341796875,264.46600341796875)"><path fill="rgb(21,143,94)" fill-opacity="1" d=" M0,-264.21600341796875 C145.92300415039062,-264.21600341796875 264.21600341796875,-145.9219970703125 264.21600341796875,0 C264.21600341796875,145.92300415039062 145.92300415039062,264.21600341796875 0,264.21600341796875 C-145.92300415039062,264.21600341796875 -264.21600341796875,145.92300415039062 -264.21600341796875,0 C-264.21600341796875,-145.9219970703125 -145.92300415039062,-264.21600341796875 0,-264.21600341796875z"></path></g><g opacity="1" transform="matrix(1,0,0,1,361.86700439453125,264.4840087890625)"><path fill="rgb(15,122,79)" fill-opacity="1" d=" M166.8159942626953,0.0020000000949949026 C166.8159942626953,145.91000366210938 48.50199890136719,264.2179870605469 -97.4010009765625,264.2179870605469 C-121.41999816894531,264.2179870605469 -144.68600463867188,260.9960021972656 -166.8159942626953,254.98300170898438 C-37.34000015258789,237.92599487304688 62.577999114990234,127.16000366210938 62.577999114990234,-6.954999923706055 C62.577999114990234,-128.843994140625 -19.966999053955078,-231.4720001220703 -132.2239990234375,-261.9360046386719 C-120.8239974975586,-263.427001953125 -109.18900299072266,-264.2139892578125 -97.39600372314453,-264.2139892578125 C48.50299835205078,-264.2179870605469 166.8159942626953,-145.94500732421875 166.8159942626953,0.0020000000949949026z"></path></g></g><g transform="matrix(1,0,0,1,1111.5,146)" opacity="0.520116020270575" style="display: block;"><g opacity="1" transform="matrix(1,0,0,1,264.46600341796875,264.46600341796875)"><path fill="rgb(21,143,94)" fill-opacity="1" d=" M0,-264.21600341796875 C145.92300415039062,-264.21600341796875 264.21600341796875,-145.9219970703125 264.21600341796875,0 C264.21600341796875,145.92300415039062 145.92300415039062,264.21600341796875 0,264.21600341796875 C-145.92300415039062,264.21600341796875 -264.21600341796875,145.92300415039062 -264.21600341796875,0 C-264.21600341796875,-145.9219970703125 -145.92300415039062,-264.21600341796875 0,-264.21600341796875z"></path></g><g opacity="1" transform="matrix(1,0,0,1,365.9549865722656,264.4739990234375)"><path fill="rgb(15,122,79)" fill-opacity="1" d=" M162.7469940185547,0 C162.7469940185547,145.9080047607422 44.433998107910156,264.21600341796875 -101.46900177001953,264.21600341796875 C-122.57599639892578,264.21600341796875 -143.0959930419922,261.7409973144531 -162.7469940185547,257.06298828125 C-46.4010009765625,229.39300537109375 40.15299987792969,124.7969970703125 40.15299987792969,0 C40.15299987792969,-124.83699798583984 -46.4010009765625,-229.4320068359375 -162.7469940185547,-257.06298828125 C-143.0919952392578,-261.7409973144531 -122.57599639892578,-264.21600341796875 -101.46900177001953,-264.21600341796875 C44.433998107910156,-264.21600341796875 162.7469940185547,-145.9429931640625 162.7469940185547,0z"></path></g></g><g transform="matrix(1,0,0,1,305,24)" opacity="0.8867826394468209" style="display: block;"><g opacity="1" transform="matrix(1,0,0,1,206.5019989013672,432.0469970703125)"><path fill="rgb(210,240,162)" fill-opacity="1" d=" M0,431.7969970703125 C-113.91000366210938,431.7969970703125 -206.2519989013672,339.4540100097656 -206.2519989013672,225.5449981689453 C-206.2519989013672,225.5449981689453 -206.2519989013672,-225.5449981689453 -206.2519989013672,-225.5449981689453 C-206.2519989013672,-339.4540100097656 -113.91000366210938,-431.7969970703125 0,-431.7969970703125 C113.91000366210938,-431.7969970703125 206.2519989013672,-339.4540100097656 206.2519989013672,-225.5449981689453 C206.2519989013672,-225.5449981689453 206.2519989013672,225.5449981689453 206.2519989013672,225.5449981689453 C206.2519989013672,339.4540100097656 113.91000366210938,431.7969970703125 0,431.7969970703125z"></path></g><g opacity="1" transform="matrix(1,0,0,1,284.2969970703125,432.0610046386719)"><path fill="rgb(188,234,115)" fill-opacity="1" d=" M128.47300720214844,-225.56300354003906 C128.47300720214844,-225.56300354003906 128.47300720214844,225.5189971923828 128.47300720214844,225.5189971923828 C128.47300720214844,339.4280090332031 36.10300064086914,431.79901123046875 -77.80699920654297,431.79901123046875 C-95.2969970703125,431.79901123046875 -112.28099822998047,429.63800048828125 -128.47300720214844,425.510986328125 C-39.04999923706055,402.947998046875 27.142000198364258,321.93798828125 27.142000198364258,225.5189971923828 C27.142000198364258,225.5189971923828 27.142000198364258,-225.56300354003906 27.142000198364258,-225.56300354003906 C27.142000198364258,-282.5199890136719 4.068999767303467,-334.0899963378906 -33.27199935913086,-371.38800048828125 C-59.13600158691406,-397.25201416015625 -91.83999633789062,-416.2760009765625 -128.47300720214844,-425.5119934082031 C-112.2770004272461,-429.6390075683594 -95.2969970703125,-431.79901123046875 -77.80699920654297,-431.79901123046875 C-20.850000381469727,-431.79901123046875 30.719999313354492,-408.72601318359375 68.05699920654297,-371.3840026855469 C105.39900207519531,-334.0899963378906 128.47300720214844,-282.5199890136719 128.47300720214844,-225.56300354003906z"></path></g></g><g transform="matrix(1,0,0,1,1351,386)" opacity="1" style="display: block;"><g opacity="1" transform="matrix(1,0,0,1,206.5019989013672,432.0469970703125)"><path fill="rgb(210,240,162)" fill-opacity="1" d=" M0,431.7969970703125 C-113.91000366210938,431.7969970703125 -206.2519989013672,339.4540100097656 -206.2519989013672,225.5449981689453 C-206.2519989013672,225.5449981689453 -206.2519989013672,-225.5449981689453 -206.2519989013672,-225.5449981689453 C-206.2519989013672,-339.4540100097656 -113.91000366210938,-431.7969970703125 0,-431.7969970703125 C113.91000366210938,-431.7969970703125 206.2519989013672,-339.4540100097656 206.2519989013672,-225.5449981689453 C206.2519989013672,-225.5449981689453 206.2519989013672,225.5449981689453 206.2519989013672,225.5449981689453 C206.2519989013672,339.4540100097656 113.91000366210938,431.7969970703125 0,431.7969970703125z"></path></g><g opacity="1" transform="matrix(1,0,0,1,284.2969970703125,432.0610046386719)"><path fill="rgb(188,234,115)" fill-opacity="1" d=" M128.47300720214844,-225.56300354003906 C128.47300720214844,-225.56300354003906 128.47300720214844,225.5189971923828 128.47300720214844,225.5189971923828 C128.47300720214844,339.4280090332031 36.10300064086914,431.79901123046875 -77.80699920654297,431.79901123046875 C-95.2969970703125,431.79901123046875 -112.28099822998047,429.63800048828125 -128.47300720214844,425.510986328125 C-39.04999923706055,402.947998046875 27.142000198364258,321.93798828125 27.142000198364258,225.5189971923828 C27.142000198364258,225.5189971923828 27.142000198364258,-225.56300354003906 27.142000198364258,-225.56300354003906 C27.142000198364258,-282.5199890136719 4.068999767303467,-334.0899963378906 -33.27199935913086,-371.38800048828125 C-59.13600158691406,-397.25201416015625 -91.83999633789062,-416.2760009765625 -128.47300720214844,-425.5119934082031 C-112.2770004272461,-429.6390075683594 -95.2969970703125,-431.79901123046875 -77.80699920654297,-431.79901123046875 C-20.850000381469727,-431.79901123046875 30.719999313354492,-408.72601318359375 68.05699920654297,-371.3840026855469 C105.39900207519531,-334.0899963378906 128.47300720214844,-282.5199890136719 128.47300720214844,-225.56300354003906z"></path></g></g><g transform="matrix(1,0,0,1,763,587.5)" opacity="1" style="display: block;"><g opacity="1" transform="matrix(1,0,0,1,206.5019989013672,350.8659973144531)"><path fill="rgb(210,240,162)" fill-opacity="1" d=" M0,350.614990234375 C-113.91000366210938,350.614990234375 -206.2519989013672,258.27301025390625 -206.2519989013672,144.36399841308594 C-206.2519989013672,144.36399841308594 -206.2519989013672,-144.36300659179688 -206.2519989013672,-144.36300659179688 C-206.2519989013672,-258.2720031738281 -113.91000366210938,-350.614990234375 0,-350.614990234375 C113.91000366210938,-350.614990234375 206.2519989013672,-258.2720031738281 206.2519989013672,-144.36300659179688 C206.2519989013672,-144.36300659179688 206.2519989013672,144.36399841308594 206.2519989013672,144.36399841308594 C206.2519989013672,258.27301025390625 113.91000366210938,350.614990234375 0,350.614990234375z"></path></g><g opacity="1" transform="matrix(1,0,0,1,281.4800109863281,350.8699951171875)"><path fill="rgb(188,234,115)" fill-opacity="1" d=" M131.26600646972656,-144.3719940185547 C131.26600646972656,-144.3719940185547 131.26600646972656,144.375 131.26600646972656,144.375 C131.26600646972656,258.2850036621094 38.935001373291016,350.614990234375 -74.9739990234375,350.614990234375 C-94.47200012207031,350.614990234375 -113.37799835205078,347.90399169921875 -131.26199340820312,342.8320007324219 C-44.70800018310547,318.3450012207031 18.690000534057617,238.78799438476562 18.690000534057617,144.375 C18.690000534057617,144.375 18.690000534057617,-144.3719940185547 18.690000534057617,-144.3719940185547 C18.690000534057617,-201.32899475097656 -4.382999897003174,-252.89500427246094 -41.724998474121094,-290.20098876953125 C-66.2509994506836,-314.7659912109375 -96.95099639892578,-333.1210021972656 -131.26600646972656,-342.8320007324219 C-113.38200378417969,-347.90399169921875 -94.47599792480469,-350.614990234375 -74.97799682617188,-350.614990234375 C-18.02199935913086,-350.614990234375 33.54800033569336,-327.5419921875 70.84700012207031,-290.2040100097656 C108.19200134277344,-252.8939971923828 131.26600646972656,-201.3249969482422 131.26600646972656,-144.3719940185547z"></path></g></g><g transform="matrix(1,0,0,1,478.5,475)" opacity="1" style="display: block;"><g opacity="1" transform="matrix(1,0,0,1,313.3999938964844,313.3999938964844)"><path fill="rgb(28,165,111)" fill-opacity="1" d=" M0,-313.1499938964844 C172.947998046875,-313.1499938964844 313.1499938964844,-172.947998046875 313.1499938964844,0 C313.1499938964844,172.947998046875 172.947998046875,313.1499938964844 0,313.1499938964844 C-172.947998046875,313.1499938964844 -313.1499938964844,172.947998046875 -313.1499938964844,0 C-313.1499938964844,-172.947998046875 -172.947998046875,-313.1499938964844 0,-313.1499938964844z"></path></g><g opacity="1" transform="matrix(1,0,0,1,400.84600830078125,313.3999938964844)"><path fill="rgb(21,143,94)" fill-opacity="1" d=" M225.71600341796875,-0.019999999552965164 C225.71600341796875,172.92799377441406 85.51000213623047,313.135009765625 -87.43800354003906,313.135009765625 C-137.08399963378906,313.135009765625 -184.01400756835938,301.5780029296875 -225.71600341796875,280.9830017089844 C-80.08799743652344,254.0970001220703 30.249000549316406,126.47000122070312 30.249000549316406,-26.94099998474121 C30.249000549316406,-150.2469940185547 -41.01499938964844,-256.885009765625 -144.58700561523438,-307.9429931640625 C-126.0739974975586,-311.3630065917969 -106.97000122070312,-313.135009765625 -87.43800354003906,-313.135009765625 C85.51000213623047,-313.135009765625 225.71600341796875,-172.92799377441406 225.71600341796875,-0.019999999552965164z"></path></g></g><g transform="matrix(1,0,0,1,971.5,96.5)" opacity="1" style="display: block;"><g opacity="1" transform="matrix(1,0,0,1,208.2220001220703,567.89599609375)"><path fill="rgb(163,228,64)" fill-opacity="1" d=" M207.9720001220703,204.7270050048828 C207.9720001220703,567.64501953125 114.85800170898438,561.1719970703125 0,561.1719970703125 C-114.85800170898438,561.1719970703125 -207.9720001220703,567.64501953125 -207.9720001220703,204.7270050048828 C-207.9720001220703,-158.1909942626953 -90.61100006103516,-567.64599609375 0,-567.64599609375 C90.61199951171875,-567.64599609375 207.9720001220703,-158.1909942626953 207.9720001220703,204.7270050048828z"></path><path fill="rgb(163,228,64)" fill-opacity="1" d=" M207.9720001220703,204.7270050048828 C207.9720001220703,567.64501953125 114.85800170898438,561.1719970703125 0,561.1719970703125 C-114.85800170898438,561.1719970703125 -207.9720001220703,567.64501953125 -207.9720001220703,204.7270050048828 C-207.9720001220703,-158.1909942626953 -90.61100006103516,-567.64599609375 0,-567.64599609375 C90.61199951171875,-567.64599609375 207.9720001220703,-158.1909942626953 207.9720001220703,204.7270050048828z"></path></g><g opacity="1" transform="matrix(1,0,0,1,285.12799072265625,567.906982421875)"><path fill="rgb(153,213,59)" fill-opacity="1" d=" M131.04600524902344,204.70799255371094 C131.04600524902344,567.64501953125 37.95600128173828,561.1530151367188 -76.90599822998047,561.1530151367188 C-95.61599731445312,561.1530151367188 -113.77999877929688,561.333984375 -131.04600524902344,560.0280151367188 C-42.46500015258789,553.4450073242188 22.767000198364258,508.4100036621094 22.767000198364258,204.70799255371094 C22.767000198364258,-88.48799896240234 -53.86800003051758,-412.0260009765625 -131.04600524902344,-525.5380249023438 C-112.6969985961914,-552.5430297851562 -94.30599975585938,-567.64501953125 -76.90599822998047,-567.64501953125 C13.704999923706055,-567.6409912109375 131.04600524902344,-158.1820068359375 131.04600524902344,204.70799255371094z"></path></g></g><g transform="matrix(1,0,0,1,30,535)" opacity="1" style="display: block;"><g opacity="1" transform="matrix(1,0,0,1,281.66900634765625,437.4739990234375)"><path fill="rgb(163,228,64)" fill-opacity="1" d=" M-281.41900634765625,157.68800354003906 C-281.41900634765625,437.218994140625 -155.4219970703125,432.2330017089844 0,432.2330017089844 C155.4219970703125,432.2330017089844 281.41900634765625,437.218994140625 281.41900634765625,157.68800354003906 C281.41900634765625,-121.84300231933594 122.61399841308594,-437.218994140625 0,-437.218994140625 C-122.61299896240234,-437.218994140625 -281.41900634765625,-121.84300231933594 -281.41900634765625,157.68800354003906z"></path><path fill="rgb(153,213,59)" fill-opacity="1" d=" M-281.41900634765625,157.68800354003906 C-281.41900634765625,437.218994140625 -155.4219970703125,432.2330017089844 0,432.2330017089844 C155.4219970703125,432.2330017089844 281.41900634765625,437.218994140625 281.41900634765625,157.68800354003906 C281.41900634765625,-121.84300231933594 122.61399841308594,-437.218994140625 0,-437.218994140625 C-122.61299896240234,-437.218994140625 -281.41900634765625,-121.84300231933594 -281.41900634765625,157.68800354003906z"></path></g><g opacity="1" transform="matrix(1,0,0,1,392.9590148925781,437.4779968261719)"><path fill="rgb(141,198,55)" fill-opacity="1" d=" M170.1179962158203,157.67999267578125 C170.1179962158203,437.22698974609375 44.14099884033203,432.2340087890625 -111.2770004272461,432.2340087890625 C-131.47799682617188,432.2340087890625 -151.13299560546875,432.31298828125 -170.1179962158203,431.84100341796875 C-42.9640007019043,428.7359924316406 52.435001373291016,400.90899658203125 52.435001373291016,157.677001953125 C52.435001373291016,-78.55500030517578 -60.96200180053711,-340.375 -170.1179962158203,-415.80499267578125 C-150.11000061035156,-429.67999267578125 -130.26199340820312,-437.22698974609375 -111.2770004272461,-437.22698974609375 C11.321000099182129,-437.2229919433594 170.1179962158203,-121.86599731445312 170.1179962158203,157.67999267578125z"></path></g></g><g transform="matrix(1,0,0,1,443.5,693)" opacity="1" style="display: block;"><g opacity="1" transform="matrix(1,0,0,1,208.2220001220703,323.37701416015625)"><path fill="rgb(163,228,64)" fill-opacity="1" d=" M207.9720001220703,116.53199768066406 C207.9720001220703,323.10699462890625 114.85800170898438,319.42401123046875 0,319.42401123046875 C-114.85800170898438,319.42401123046875 -207.9720001220703,323.1109924316406 -207.9720001220703,116.53199768066406 C-207.9720001220703,-90.0469970703125 -90.61100006103516,-323.1109924316406 0,-323.1109924316406 C90.61199951171875,-323.1109924316406 207.9720001220703,-90.04299926757812 207.9720001220703,116.53199768066406z"></path><path fill="rgb(163,228,64)" fill-opacity="1" d=" M207.9720001220703,116.53199768066406 C207.9720001220703,323.10699462890625 114.85800170898438,319.42401123046875 0,319.42401123046875 C-114.85800170898438,319.42401123046875 -207.9720001220703,323.1109924316406 -207.9720001220703,116.53199768066406 C-207.9720001220703,-90.0469970703125 -90.61100006103516,-323.1109924316406 0,-323.1109924316406 C90.61199951171875,-323.1109924316406 207.9720001220703,-90.04299926757812 207.9720001220703,116.53199768066406z"></path></g><g opacity="1" transform="matrix(1,0,0,1,281.4320068359375,323.3689880371094)"><path fill="rgb(153,213,59)" fill-opacity="1" d=" M134.74200439453125,116.52400207519531 C134.74200439453125,323.1189880371094 41.66299819946289,319.42401123046875 -73.2300033569336,319.42401123046875 C-94.6510009765625,319.42401123046875 -115.28800201416016,319.5419921875 -134.74200439453125,318.4010009765625 C-49.91899871826172,313.4859924316406 11.711000442504883,284.59698486328125 11.711000442504883,116.52400207519531 C11.711000442504883,-45.06399917602539 -60.097999572753906,-222.84800720214844 -134.74200439453125,-292.656005859375 C-113.98999786376953,-312.0740051269531 -92.95899963378906,-323.1189880371094 -73.2300033569336,-323.1189880371094 C17.413000106811523,-323.114990234375 134.74200439453125,-90.03099822998047 134.74200439453125,116.52400207519531z"></path></g></g><g style="display: block;" transform="matrix(1,0,0,1,1671.5,918.5)" opacity="1"><g opacity="1" transform="matrix(1,0,0,1,150.13900756835938,233.14300537109375)"><path fill="rgb(163,228,64)" fill-opacity="1" d=" M149.88999938964844,83.98699951171875 C149.88999938964844,232.86900329589844 82.78099822998047,230.21299743652344 0,230.21299743652344 C-82.78099822998047,230.21299743652344 -149.88999938964844,232.86900329589844 -149.88999938964844,83.98699951171875 C-149.88999938964844,-64.8949966430664 -65.30599975585938,-232.86900329589844 0,-232.86900329589844 C65.30699920654297,-232.86900329589844 149.88999938964844,-64.8949966430664 149.88999938964844,83.98699951171875z"></path><path fill="rgb(163,228,64)" fill-opacity="1" d=" M149.88999938964844,83.98699951171875 C149.88999938964844,232.86900329589844 82.78099822998047,230.21299743652344 0,230.21299743652344 C-82.78099822998047,230.21299743652344 -149.88999938964844,232.86900329589844 -149.88999938964844,83.98699951171875 C-149.88999938964844,-64.8949966430664 -65.30599975585938,-232.86900329589844 0,-232.86900329589844 C65.30699920654297,-232.86900329589844 149.88999938964844,-64.8949966430664 149.88999938964844,83.98699951171875z"></path></g><g opacity="1" transform="matrix(1,0,0,1,199.98800659179688,233.125)"><path fill="rgb(153,213,59)" fill-opacity="1" d=" M100.0530014038086,84.02100372314453 C100.0530014038086,232.87600708007812 32.91699981689453,230.23899841308594 -49.86000061035156,230.23899841308594 C-67.46900177001953,230.23899841308594 -84.37300109863281,230.35800170898438 -100.0530014038086,229.09800720214844 C-41.95899963378906,224.49899291992188 -0.41100001335144043,201.19200134277344 -0.41100001335144043,84.01699829101562 C-0.41100001335144043,-28.20400047302246 -48.444000244140625,-151.2310028076172 -100.0530014038086,-205.08299255371094 C-83.23200225830078,-222.69200134277344 -65.9729995727539,-232.875 -49.86000061035156,-232.875 C15.465999603271484,-232.86700439453125 100.0530014038086,-64.87300109863281 100.0530014038086,84.02100372314453z"></path></g></g><g filter="url(#__lottie_element_28)" transform="matrix(1,0,0,1,0,0)" opacity="1" style="display: block;"><g opacity="1" transform="matrix(1,0,0,1,1007.5679931640625,788.0280151367188)"><path fill="rgb(0,0,0)" fill-opacity="1" d=" M975.7249755859375,724.9730224609375 C975.7249755859375,724.9730224609375 843.5460205078125,724.9730224609375 843.5460205078125,724.9730224609375 C843.5460205078125,724.9730224609375 843.5460205078125,619.5910034179688 843.5460205078125,619.5910034179688 C878.35400390625,618.9019775390625 910.8870239257812,615.2659912109375 938.2579956054688,596.2490234375 C975.8980102539062,570.0980224609375 993.4320068359375,521.7230224609375 993.4320068359375,444.01800537109375 C993.4320068359375,357.6369934082031 965.0460205078125,256.95599365234375 923.4860229492188,186.47500610351562 C977.5900268554688,131.2969970703125 1007.3179931640625,58.81800079345703 1007.3179931640625,-18.895000457763672 C1007.3179931640625,-164.08700561523438 899.4879760742188,-288.66400146484375 756.1890258789062,-309.5140075683594 C735.114013671875,-352.88800048828125 701.1090087890625,-388.8330078125 659.239013671875,-412.39898681640625 C642.322998046875,-560.9310302734375 517.572998046875,-672.5029907226562 367.48199462890625,-672.5029907226562 C328.5589904785156,-672.5029907226562 290.93798828125,-664.9990234375 255.42599487304688,-650.2990112304688 C224.93099975585938,-706.3070068359375 193.22799682617188,-733.8309936523438 159.51100158691406,-733.8309936523438 C125.32499694824219,-733.8309936523438 93.68900299072266,-705.9769897460938 62.80799865722656,-648.6740112304688 C38.27399826049805,-603.156005859375 14.170000076293945,-538.6199951171875 -6.908999919891357,-462.05999755859375 C-21.400999069213867,-409.4079895019531 -33.952999114990234,-352.8489990234375 -44.345001220703125,-294.6719970703125 C-96.64299774169922,-325.4230041503906 -155.75599670410156,-341.552001953125 -217.427001953125,-341.552001953125 C-235.50399780273438,-341.552001953125 -253.33200073242188,-340.1239929199219 -270.7950134277344,-337.37298583984375 C-270.7950134277344,-337.37298583984375 -270.7950134277344,-560.5570068359375 -270.7950134277344,-560.5570068359375 C-270.7950134277344,-659.4199829101562 -333.2170104980469,-748.5009765625 -426.1310119628906,-782.218017578125 C-441.4490051269531,-787.7780151367188 -458.37701416015625,-779.864990234375 -463.94000244140625,-764.5469970703125 C-469.5,-749.2249755859375 -461.5870056152344,-732.301025390625 -446.2650146484375,-726.7410278320312 C-376.614990234375,-701.458984375 -329.8179931640625,-634.6810302734375 -329.8179931640625,-560.5609741210938 C-329.8179931640625,-560.5609741210938 -329.8179931640625,-322.5539855957031 -329.8179931640625,-322.5539855957031 C-386.8810119628906,-302.7309875488281 -437.7030029296875,-268.1629943847656 -477.0469970703125,-222.5590057373047 C-477.0469970703125,-222.5590057373047 -477.0469970703125,-270.7560119628906 -477.0469970703125,-270.7560119628906 C-477.0469970703125,-270.7560119628906 -420.3349914550781,-327.468994140625 -420.3349914550781,-327.468994140625 C-408.80999755859375,-338.99798583984375 -408.80999755859375,-357.6809997558594 -420.3349914550781,-369.20599365234375 C-431.8599853515625,-380.72698974609375 -450.5459899902344,-380.72698974609375 -462.0679931640625,-369.20599365234375 C-462.0679931640625,-369.20599365234375 -477.0469970703125,-354.22601318359375 -477.0469970703125,-354.22601318359375 C-477.0469970703125,-354.22601318359375 -477.0469970703125,-534.0869750976562 -477.0469970703125,-534.0869750976562 C-477.0469970703125,-550.3889770507812 -490.260986328125,-563.5989990234375 -506.5589904785156,-563.5989990234375 C-522.8569946289062,-563.5989990234375 -536.0700073242188,-550.3889770507812 -536.0700073242188,-534.0869750976562 C-536.0700073242188,-534.0869750976562 -536.0700073242188,-489.9580078125 -536.0700073242188,-489.9580078125 C-536.0700073242188,-489.9580078125 -565.8330078125,-519.7210083007812 -565.8330078125,-519.7210083007812 C-577.3579711914062,-531.2420043945312 -596.0449829101562,-531.2420043945312 -607.5659790039062,-519.7210083007812 C-619.0910034179688,-508.1919860839844 -619.0910034179688,-489.510009765625 -607.5659790039062,-477.9840087890625 C-607.5659790039062,-477.9840087890625 -536.0659790039062,-406.4840087890625 -536.0659790039062,-406.4840087890625 C-536.0659790039062,-406.4840087890625 -536.0659790039062,-177.63099670410156 -536.0659790039062,-177.63099670410156 C-579.10498046875,-239.66299438476562 -629.718994140625,-285.3269958496094 -683.2960205078125,-290.9100036621094 C-683.2960205078125,-290.9100036621094 -683.2960205078125,-560.5570068359375 -683.2960205078125,-560.5570068359375 C-683.2960205078125,-634.4219970703125 -636.7230224609375,-701.1329956054688 -567.3989868164062,-726.5479736328125 C-552.0969848632812,-732.1589965820312 -544.2429809570312,-749.1099853515625 -549.85400390625,-764.4169921875 C-555.4650268554688,-779.718994140625 -572.4119873046875,-787.5579833984375 -587.7230224609375,-781.9660034179688 C-680.1909790039062,-748.0599975585938 -742.322021484375,-659.0850219726562 -742.322021484375,-560.5570068359375 C-742.322021484375,-560.5570068359375 -742.322021484375,-280.5220031738281 -742.322021484375,-280.5220031738281 C-799.2550048828125,-254.9739990234375 -857.4669799804688,-185.81500244140625 -907.5540161132812,-82.24600219726562 C-968.7210083007812,44.215999603271484 -1005.2319946289062,199.40499877929688 -1005.2319946289062,332.8789978027344 C-1005.2319946289062,469.5320129394531 -975.8469848632812,553.5999755859375 -912.760009765625,597.4299926757812 C-860.9769897460938,633.4099731445312 -794.7030029296875,636.656005859375 -723.81298828125,636.916015625 C-723.81298828125,636.916015625 -723.81298828125,724.9739990234375 -723.81298828125,724.9739990234375 C-723.81298828125,724.9739990234375 -977.8060302734375,724.9739990234375 -977.8060302734375,724.9739990234375 C-994.10498046875,724.9739990234375 -1007.3179931640625,738.1829833984375 -1007.3179931640625,754.4849853515625 C-1007.3179931640625,770.7869873046875 -994.10498046875,783.9959716796875 -977.8060302734375,783.9959716796875 C-977.8060302734375,783.9959716796875 975.7249755859375,783.9959716796875 975.7249755859375,783.9959716796875 C992.0269775390625,783.9959716796875 1005.2360229492188,770.7869873046875 1005.2360229492188,754.4849853515625 C1005.2360229492188,738.1829833984375 992.0230102539062,724.9739990234375 975.7249755859375,724.9730224609375z M-446.635009765625,571.5969848632812 C-426.07598876953125,574.6939697265625 -404.375,575.5130004882812 -382.0169982910156,575.7169799804688 C-382.0169982910156,575.7169799804688 -382.0169982910156,724.9769897460938 -382.0169982910156,724.9769897460938 C-382.0169982910156,724.9769897460938 -477.05499267578125,724.9769897460938 -477.05499267578125,724.9769897460938 C-477.05499267578125,724.9769897460938 -477.05499267578125,598.3619995117188 -477.05499267578125,598.3619995117188 C-466.21099853515625,590.9530029296875 -456.03900146484375,582.1190185546875 -446.635009765625,571.5969848632812z M-322.9909973144531,575.7210083007812 C-296.4419860839844,575.489013671875 -270.8190002441406,574.3989868164062 -246.94200134277344,569.6220092773438 C-246.94200134277344,569.6220092773438 -246.94200134277344,724.9730224609375 -246.94200134277344,724.9730224609375 C-246.94200134277344,724.9730224609375 -322.9909973144531,724.9730224609375 -322.9909973144531,724.9730224609375 C-322.9909973144531,724.9730224609375 -322.9909973144531,575.7210083007812 -322.9909973144531,575.7210083007812z M-12.319999694824219,398.76800537109375 C15.618000030517578,432.8710021972656 49.60300064086914,445.90301513671875 85.43299865722656,450.8999938964844 C48.29600143432617,474.52099609375 5.205999851226807,487.1910095214844 -40.07600021362305,487.1910095214844 C-72.10199737548828,487.1910095214844 -102.89600372314453,480.88800048828125 -131.8560028076172,468.5320129394531 C-120.50800323486328,435.593994140625 -115.01899719238281,394.2659912109375 -115.01899719238281,343.3890075683594 C-115.01899719238281,338.3840026855469 -115.13300323486328,333.322998046875 -115.26300048828125,328.26300048828125 C-94.8290023803711,321.89300537109375 -75.13500213623047,313.5820007324219 -56.28799819946289,303.51300048828125 C-45.75400161743164,344.510009765625 -31.222999572753906,375.69000244140625 -12.319999694824219,398.76800537109375z M-186.66400146484375,545.218017578125 C-176.7169952392578,538.3090209960938 -167.8719940185547,530.1240234375 -160.0570068359375,520.6329956054688 C-124.94300079345703,536.4080200195312 -87.63600158691406,544.9660034179688 -48.84299850463867,546.083984375 C-48.84299850463867,546.083984375 -48.84299850463867,724.9730224609375 -48.84299850463867,724.9730224609375 C-48.84299850463867,724.9730224609375 -187.91600036621094,724.9730224609375 -187.91600036621094,724.9730224609375 C-187.91600036621094,724.9730224609375 -186.66400146484375,545.218017578125 -186.66400146484375,545.218017578125z M10.175999641418457,541.8930053710938 C53.529998779296875,534.4920043945312 94.25900268554688,517.541015625 129.99600219726562,492.010986328125 C129.99600219726562,492.010986328125 129.99600219726562,724.9730224609375 129.99600219726562,724.9730224609375 C129.99600219726562,724.9730224609375 10.175999641418457,724.9730224609375 10.175999641418457,724.9730224609375 C10.175999641418457,724.9730224609375 10.175999641418457,541.8930053710938 10.175999641418457,541.8930053710938z M189.01800537109375,453.906005859375 C212.0290069580078,453.552001953125 234.98899841308594,452.1000061035156 256.8550109863281,446.3399963378906 C256.8550109863281,446.3399963378906 256.8550109863281,724.9730224609375 256.8550109863281,724.9730224609375 C256.8550109863281,724.9730224609375 189.01800537109375,724.9730224609375 189.01800537109375,724.9730224609375 C189.01800537109375,724.9730224609375 189.01800537109375,453.906005859375 189.01800537109375,453.906005859375z M380.2860107421875,415.8919982910156 C380.2860107421875,415.8919982910156 380.2860107421875,724.9730224609375 380.2860107421875,724.9730224609375 C380.2860107421875,724.9730224609375 315.8810119628906,724.9730224609375 315.8810119628906,724.9730224609375 C315.8810119628906,724.9730224609375 315.8810119628906,414.9989929199219 315.8810119628906,414.9989929199219 C321.2049865722656,410.1940002441406 326.3710021972656,404.8269958496094 331.3370056152344,398.76800537109375 C337.20001220703125,391.6099853515625 342.63800048828125,383.6579895019531 347.67498779296875,374.8949890136719 C357.1809997558594,389.197998046875 368.0690002441406,404.12701416015625 380.2860107421875,415.8919982910156z M439.3089904785156,455.5429992675781 C462.6109924316406,467.0799865722656 487.9630126953125,474.83599853515625 514.4840087890625,478.1570129394531 C514.4840087890625,478.1570129394531 514.4840087890625,724.9730224609375 514.4840087890625,724.9730224609375 C514.4840087890625,724.9730224609375 439.3089904785156,724.9730224609375 439.3089904785156,724.9730224609375 C439.3089904785156,724.9730224609375 439.3089904785156,455.5429992675781 439.3089904785156,455.5429992675781z M573.5070190429688,478.1409912109375 C594.6959838867188,475.4809875488281 615.3690185546875,469.9679870605469 634.9959716796875,461.7560119628906 C637.5540161132812,529.1329956054688 655.1270141601562,572.156005859375 689.8090209960938,596.2490234375 C717.1790161132812,615.2659912109375 749.7319946289062,619.0120239257812 784.52001953125,619.6539916992188 C784.52001953125,619.6539916992188 784.52001953125,724.968994140625 784.52001953125,724.968994140625 C784.52001953125,724.968994140625 573.5029907226562,724.968994140625 573.5029907226562,724.968994140625 C573.5029907226562,724.968994140625 573.5029907226562,478.1409912109375 573.5029907226562,478.1409912109375 C573.5029907226562,478.1409912109375 573.5070190429688,478.1409912109375 573.5070190429688,478.1409912109375z M904.583984375,547.780029296875 C890.3870239257812,557.6409912109375 868.9180297851562,560.0679931640625 843.5469970703125,560.6069946289062 C843.5469970703125,560.6069946289062 843.5469970703125,507.125 843.5469970703125,507.125 C844.093994140625,506.65301513671875 844.6439819335938,506.18499755859375 845.1640014648438,505.6650085449219 C845.1640014648438,505.6650085449219 892.0239868164062,458.80499267578125 892.0239868164062,458.80499267578125 C903.5490112304688,447.2760009765625 903.5490112304688,428.593994140625 892.0239868164062,417.0690002441406 C880.4949951171875,405.5469970703125 861.81201171875,405.5469970703125 850.2869873046875,417.0690002441406 C850.2869873046875,417.0690002441406 843.5469970703125,423.8089904785156 843.5469970703125,423.8089904785156 C843.5469970703125,423.8089904785156 843.5469970703125,339.5880126953125 843.5469970703125,339.5880126953125 C843.5469970703125,323.2860107421875 830.3369750976562,310.0769958496094 814.0349731445312,310.0769958496094 C797.7329711914062,310.0769958496094 784.5239868164062,323.2860107421875 784.5239868164062,339.5880126953125 C784.5239868164062,339.5880126953125 784.5239868164062,560.614990234375 784.5239868164062,560.614990234375 C759.1209716796875,560.0759887695312 737.68798828125,557.6519775390625 723.4869995117188,547.7839965820312 C703.4110107421875,533.8350219726562 693.6530151367188,499.8970031738281 693.6530151367188,444.0220031738281 C693.6530151367188,379.4200134277344 711.4149780273438,304.12701416015625 741.1619873046875,242.61000061035156 C771.4409790039062,180.0070037841797 801.927978515625,156.677001953125 814.0349731445312,156.677001953125 C826.1430053710938,156.677001953125 856.6259765625,180.0070037841797 886.905029296875,242.61000061035156 C916.656005859375,304.12701416015625 934.4140014648438,379.4200134277344 934.4140014648438,444.0220031738281 C934.4140014648438,499.89300537109375 924.655029296875,533.8309936523438 904.583984375,547.780029296875z M948.2960205078125,-18.895000457763672 C948.2960205078125,39.816001892089844 927.0399780273438,94.78600311279297 888.18701171875,137.87600708007812 C865.06201171875,112.78800201416016 839.7570190429688,97.6500015258789 814.0349731445312,97.6500015258789 C802.4710083007812,97.6500015258789 790.9929809570312,100.70800018310547 779.7589721679688,106.3499984741211 C779.7589721679688,106.3499984741211 779.7589721679688,-206.8350067138672 779.7589721679688,-206.8350067138672 C779.7589721679688,-219.83599853515625 778.656982421875,-232.57699584960938 776.6229858398438,-245.01100158691406 C876.3670043945312,-217.17599487304688 948.2960205078125,-124.91600036621094 948.2960205078125,-18.895000457763672z M371.1809997558594,-248.04800415039062 C392.2959899902344,-324.2510070800781 464.81500244140625,-383.57598876953125 543.9949951171875,-383.57598876953125 C641.4530029296875,-383.57598876953125 720.7360229492188,-304.2929992675781 720.7360229492188,-206.8350067138672 C720.7360229492188,-206.8350067138672 720.7360229492188,161.54800415039062 720.7360229492188,161.54800415039062 C678.9010009765625,219.91000366210938 646.989990234375,309.7179870605469 637.5230102539062,394.27801513671875 C637.3809814453125,394.3609924316406 637.2349853515625,394.427001953125 637.0969848632812,394.5140075683594 C617.6119995117188,406.6180114746094 596.0059814453125,414.63299560546875 573.5070190429688,418.4259948730469 C573.5070190429688,418.4259948730469 573.5070190429688,245.33299255371094 573.5070190429688,245.33299255371094 C573.5070190429688,245.33299255371094 630.218994140625,188.6199951171875 630.218994140625,188.6199951171875 C641.7440185546875,177.09100341796875 641.7440185546875,158.4080047607422 630.218994140625,146.88299560546875 C618.6900024414062,135.36199951171875 600.0079956054688,135.36199951171875 588.4829711914062,146.88299560546875 C588.4829711914062,146.88299560546875 573.5070190429688,161.85899353027344 573.5070190429688,161.85899353027344 C573.5070190429688,161.85899353027344 573.5070190429688,-17.99799919128418 573.5070190429688,-17.99799919128418 C573.5070190429688,-34.29999923706055 560.2969970703125,-47.5099983215332 543.9949951171875,-47.5099983215332 C527.6929931640625,-47.5099983215332 514.4840087890625,-34.29999923706055 514.4840087890625,-17.99799919128418 C514.4840087890625,-17.99799919128418 514.4840087890625,26.131000518798828 514.4840087890625,26.131000518798828 C514.4840087890625,26.131000518798828 484.7250061035156,-3.631999969482422 484.7250061035156,-3.631999969482422 C473.20001220703125,-15.156999588012695 454.51300048828125,-15.16100025177002 442.99200439453125,-3.635999917984009 C431.4630126953125,7.888999938964844 431.4630126953125,26.576000213623047 442.9880065917969,38.09700012207031 C442.9880065917969,38.09700012207031 514.4879760742188,109.60099792480469 514.4879760742188,109.60099792480469 C514.4879760742188,109.60099792480469 514.4879760742188,418.51300048828125 514.4879760742188,418.51300048828125 C450.9169921875,407.8139953613281 397.35198974609375,363.0589904785156 376.36700439453125,300.4440002441406 C376.3160095214844,300.2900085449219 376.2460021972656,300.15301513671875 376.1940002441406,299.9989929199219 C390.3599853515625,242.90499877929688 396.9939880371094,167.15499877929688 396.9939880371094,68.052001953125 C396.9939880371094,-31.892000198364258 387.84100341796875,-141.48899841308594 371.1809997558594,-248.0489959716797 C371.1809997558594,-248.0489959716797 371.1809997558594,-248.04800415039062 371.1809997558594,-248.04800415039062z M159.5070037841797,-674.8049926757812 C166.39300537109375,-674.8049926757812 200.8070068359375,-650.0549926757812 243.3699951171875,-528.9639892578125 C248.77200317382812,-513.5910034179688 265.60198974609375,-505.5010070800781 280.9989929199219,-510.9110107421875 C296.37200927734375,-516.3140258789062 304.4580078125,-533.1589965820312 299.052001953125,-548.5399780273438 C292.94500732421875,-565.9080200195312 286.8030090332031,-581.989990234375 280.6210021972656,-596.8829956054688 C308.18499755859375,-607.8930053710938 337.3380126953125,-613.4810180664062 367.4830017089844,-613.4810180664062 C476.6189880371094,-613.4810180664062 569.0009765625,-539.6829833984375 594.9359741210938,-436.9949951171875 C578.52001953125,-440.62701416015625 561.489990234375,-442.5989990234375 543.9949951171875,-442.5989990234375 C467.3370056152344,-442.5989990234375 397.1199951171875,-405.1669921875 353.5929870605469,-345.77398681640625 C349.13800048828125,-367.50201416015625 344.40899658203125,-388.95098876953125 339.3450012207031,-409.9429931640625 C335.5199890136719,-425.7850036621094 319.5840148925781,-435.53900146484375 303.7340087890625,-431.71099853515625 C287.89300537109375,-427.885986328125 278.14599609375,-411.9460144042969 281.9670104980469,-396.10101318359375 C317.5570068359375,-248.552001953125 337.9670104980469,-79.3740005493164 337.9670104980469,68.0530014038086 C337.9670104980469,222.4669952392578 320.86199951171875,318.406005859375 285.6730041503906,361.3590087890625 C263.0360107421875,388.9939880371094 234.197998046875,394.0069885253906 189.01800537109375,394.8370056152344 C189.01800537109375,394.8370056152344 189.01800537109375,243.76699829101562 189.01800537109375,243.76699829101562 C189.01800537109375,243.76699829101562 284.7569885253906,148.0279998779297 284.7569885253906,148.0279998779297 C296.2820129394531,136.49899291992188 296.2820129394531,117.81700134277344 284.7569885253906,106.29100036621094 C273.22698974609375,94.7699966430664 254.5449981689453,94.7699966430664 243.02000427246094,106.29100036621094 C243.02000427246094,106.29100036621094 189.01800537109375,160.29299926757812 189.01800537109375,160.29299926757812 C189.01800537109375,160.29299926757812 189.01800537109375,-85.65799713134766 189.01800537109375,-85.65799713134766 C189.01800537109375,-101.95999908447266 175.8090057373047,-115.16899871826172 159.5070037841797,-115.16899871826172 C143.2050018310547,-115.16899871826172 129.99600219726562,-101.95999908447266 129.99600219726562,-85.65799713134766 C129.99600219726562,-85.65799713134766 129.99600219726562,-23.96299934387207 129.99600219726562,-23.96299934387207 C129.99600219726562,-23.96299934387207 88.02300262451172,-65.93599700927734 88.02300262451172,-65.93599700927734 C76.49400329589844,-77.45700073242188 57.81100082397461,-77.45700073242188 46.2859992980957,-65.93599700927734 C34.76100158691406,-54.40700149536133 34.76100158691406,-35.724998474121094 46.2859992980957,-24.200000762939453 C46.2859992980957,-24.200000762939453 129.90499877929688,59.41999816894531 129.90499877929688,59.41999816894531 C129.93699645996094,59.45100021362305 129.96800231933594,59.474998474121094 129.99600219726562,59.50199890136719 C129.99600219726562,59.50199890136719 129.99600219726562,394.8370056152344 129.99600219726562,394.8370056152344 C84.81600189208984,394.0069885253906 55.972999572753906,388.989990234375 33.34000015258789,361.3590087890625 C-1.8489999771118164,318.406005859375 -18.95400047302246,222.4669952392578 -18.95400047302246,68.0530014038086 C-18.95400047302246,-97.24600219726562 6.823999881744385,-289.56500244140625 49.992000579833984,-446.39599609375 C101.68000030517578,-634.1619873046875 150.25599670410156,-674.8049926757812 159.5070037841797,-674.8049926757812z M-217.43099975585938,-282.52899169921875 C-158.572998046875,-282.52899169921875 -102.53399658203125,-264.79901123046875 -54.73699951171875,-231.218994140625 C-69.72100067138672,-130.22799682617188 -77.97599792480469,-26.768999099731445 -77.97599792480469,68.05599975585938 C-77.97599792480469,136.86500549316406 -74.76899719238281,194.39199829101562 -68.07599639892578,242.26699829101562 C-84.44100189208984,252.43499755859375 -101.71099853515625,260.8399963378906 -119.70899963378906,267.43798828125 C-129.22000122070312,187.93899536132812 -152.91900634765625,105.75199890136719 -187.91900634765625,33.35100173950195 C-187.91900634765625,33.35100173950195 -187.91900634765625,-38.20000076293945 -187.91900634765625,-38.20000076293945 C-187.91900634765625,-38.20000076293945 -125.7249984741211,-100.39399719238281 -125.7249984741211,-100.39399719238281 C-114.19999694824219,-111.91899871826172 -114.19999694824219,-130.6020050048828 -125.7249984741211,-142.1269989013672 C-137.25100708007812,-153.6479949951172 -155.93699645996094,-153.65199279785156 -167.45799255371094,-142.1230010986328 C-167.45799255371094,-142.1230010986328 -187.91600036621094,-121.66600036621094 -187.91600036621094,-121.66600036621094 C-187.91600036621094,-121.66600036621094 -187.91600036621094,-155.73300170898438 -187.91600036621094,-155.73300170898438 C-187.91600036621094,-172.03500366210938 -201.12899780273438,-185.2449951171875 -217.427001953125,-185.2449951171875 C-233.72500610351562,-185.2449951171875 -246.93800354003906,-172.03500366210938 -246.93800354003906,-155.73300170898438 C-246.93800354003906,-155.73300170898438 -246.93800354003906,-61.619998931884766 -246.93800354003906,-61.619998931884766 C-281.2969970703125,-103.18000030517578 -317.7340087890625,-125.7699966430664 -352.49798583984375,-125.7699966430664 C-394.27398681640625,-125.7699966430664 -433.2560119628906,-95.1449966430664 -466.6549987792969,-50.858001708984375 C-472.6239929199219,-64.5 -478.9630126953125,-78.06800079345703 -485.6289978027344,-91.43000030517578 C-446.20599365234375,-205.73699951171875 -338.4389953613281,-282.5299987792969 -217.43099975585938,-282.5299987792969 C-217.43099975585938,-282.5299987792969 -217.43099975585938,-282.52899169921875 -217.43099975585938,-282.52899169921875z M-879.0809936523438,548.9600219726562 C-907.9000244140625,528.9359741210938 -946.208984375,484.7560119628906 -946.208984375,332.8789978027344 C-946.208984375,207.86900329589844 -911.8980102539062,62.28799819946289 -854.4219970703125,-56.551998138427734 C-802.7260131835938,-163.4459991455078 -739.875,-232.51800537109375 -694.2969970703125,-232.51800537109375 C-646.6500244140625,-232.51800537109375 -566.5250244140625,-149.07899475097656 -505.29901123046875,10.380000114440918 C-523.8049926757812,44.95899963378906 -539.4140014648438,82.3949966430664 -551.3090209960938,117.94999694824219 C-556.47998046875,133.406005859375 -548.1420288085938,150.12899780273438 -532.6859741210938,155.29600524902344 C-517.22998046875,160.48199462890625 -500.5069885253906,152.1280059814453 -495.33599853515625,136.6719970703125 C-453.3039855957031,11.024999618530273 -388.4700012207031,-66.74700164794922 -352.5060119628906,-66.74700164794922 C-328.1289978027344,-66.74700164794922 -282.8710021972656,-27.413999557495117 -241.10699462890625,58.944000244140625 C-199.11399841308594,145.7740020751953 -174.0449981689453,252.10899353027344 -174.0449981689453,343.385009765625 C-174.0449981689453,424.9339904785156 -189.19000244140625,475.1000061035156 -220.3459930419922,496.7449951171875 C-244.79400634765625,513.72802734375 -280.8599853515625,516.2620239257812 -322.9939880371094,516.6749877929688 C-322.9939880371094,516.6749877929688 -322.9939880371094,426.42999267578125 -322.9939880371094,426.42999267578125 C-322.9939880371094,426.42999267578125 -227.25599670410156,330.6910095214844 -227.25599670410156,330.6910095214844 C-215.7310028076172,319.1619873046875 -215.7310028076172,300.47900390625 -227.25599670410156,288.9540100097656 C-238.781005859375,277.4330139160156 -257.4679870605469,277.4330139160156 -268.989013671875,288.9540100097656 C-268.989013671875,288.9540100097656 -322.9949951171875,342.9599914550781 -322.9949951171875,342.9599914550781 C-322.9949951171875,342.9599914550781 -322.9949951171875,198.4810028076172 -322.9949951171875,198.4810028076172 C-322.9949951171875,182.1790008544922 -336.2080078125,168.97000122070312 -352.5060119628906,168.97000122070312 C-368.8039855957031,168.97000122070312 -382.0169982910156,182.1790008544922 -382.0169982910156,198.4810028076172 C-382.0169982910156,198.4810028076172 -382.0169982910156,516.698974609375 -382.0169982910156,516.698974609375 C-424.15899658203125,516.31298828125 -460.2179870605469,513.7360229492188 -484.6650085449219,496.7489929199219 C-515.8209838867188,475.10400390625 -530.9660034179688,424.93798828125 -530.9660034179688,343.3890075683594 C-530.9660034179688,319.5320129394531 -529.2979736328125,294.5299987792969 -526.0050048828125,269.07598876953125 C-523.9149780273438,252.9149932861328 -535.322021484375,238.11599731445312 -551.4869995117188,236.0229949951172 C-567.655029296875,233.95700073242188 -582.4500122070312,245.34100341796875 -584.5390014648438,261.5090026855469 C-588.155029296875,289.4620056152344 -589.989013671875,317.010009765625 -589.989013671875,343.39300537109375 C-589.989013671875,447.1310119628906 -567.2219848632812,511.2650146484375 -518.343017578125,545.2260131835938 C-515.947021484375,546.8909912109375 -513.5,548.4249877929688 -511.0320129394531,549.9130249023438 C-548.6060180664062,575.1430053710938 -601.3289794921875,577.6220092773438 -664.7899780273438,577.8820190429688 C-664.7899780273438,577.8820190429688 -664.7899780273438,269.7330017089844 -664.7899780273438,269.7330017089844 C-664.7899780273438,269.7330017089844 -619.4769897460938,224.41900634765625 -619.4769897460938,224.41900634765625 C-607.9509887695312,212.88999938964844 -607.9509887695312,194.20799255371094 -619.4769897460938,182.68299865722656 C-631.0020141601562,171.16099548339844 -649.68798828125,171.16099548339844 -661.208984375,182.68299865722656 C-661.208984375,182.68299865722656 -664.7899780273438,186.26300048828125 -664.7899780273438,186.26300048828125 C-664.7899780273438,186.26300048828125 -664.7899780273438,105.02100372314453 -664.7899780273438,105.02100372314453 C-664.7899780273438,88.71900177001953 -678.0029907226562,75.50900268554688 -694.301025390625,75.50900268554688 C-710.5989990234375,75.50900268554688 -723.81298828125,88.71900177001953 -723.81298828125,105.02100372314453 C-723.81298828125,105.02100372314453 -723.81298828125,357.4679870605469 -723.81298828125,357.4679870605469 C-723.81298828125,357.4679870605469 -760.968994140625,320.3110046386719 -760.968994140625,320.3110046386719 C-772.4940185546875,308.7900085449219 -791.1810302734375,308.7900085449219 -802.7020263671875,320.3110046386719 C-814.2269897460938,331.8399963378906 -814.2269897460938,350.52301025390625 -802.7020263671875,362.0480041503906 C-802.7020263671875,362.0480041503906 -727.97998046875,436.7699890136719 -727.97998046875,436.7699890136719 C-726.677001953125,438.072998046875 -725.27197265625,439.20599365234375 -723.8090209960938,440.2130126953125 C-723.8090209960938,440.2130126953125 -723.8090209960938,577.8889770507812 -723.8090209960938,577.8889770507812 C-787.0609741210938,577.6380004882812 -841.4920043945312,575.0679931640625 -879.0809936523438,548.9600219726562z M-664.7899780273438,636.9000244140625 C-619.2360229492188,636.7109985351562 -575.3280029296875,635.2830200195312 -536.0780029296875,624.7139892578125 C-536.0780029296875,624.7139892578125 -536.0780029296875,724.9739990234375 -536.0780029296875,724.9739990234375 C-536.0780029296875,724.9739990234375 -664.7899780273438,724.9739990234375 -664.7899780273438,724.9739990234375 C-664.7899780273438,724.9739990234375 -664.7899780273438,636.9000244140625 -664.7899780273438,636.9000244140625z"></path></g></g></g></svg>