<svg xmlns="http://www.w3.org/2000/svg" viewBox="0 0 3563 3307" width="3563" height="3307" preserveAspectRatio="xMidYMid meet" style="width: 100%; height: 100%; transform: translate3d(0px, 0px, 0px);"><defs><clipPath id="__lottie_element_45"><rect width="3563" height="3307" x="0" y="0"></rect></clipPath></defs><g clip-path="url(#__lottie_element_45)"><g transform="matrix(1,0,0,1,0,0)" opacity="1" style="display: block;"><g opacity="1" transform="matrix(1,0,0,1,787.3489990234375,2564.14599609375)"><path fill="rgb(201,117,35)" fill-opacity="1" d=" M151.33700561523438,-360.6629943847656 C151.33700561523438,-360.6629943847656 151.33700561523438,360.781005859375 151.33700561523438,360.781005859375 C151.33700561523438,360.781005859375 -151.33700561523438,360.781005859375 -151.33700561523438,360.781005859375 C-151.33700561523438,360.781005859375 -151.33700561523438,-360.781005859375 -151.33700561523438,-360.781005859375"></path></g><g opacity="1" transform="matrix(1,0,0,1,703.5139770507812,2564.14599609375)"><path fill="rgb(168,86,19)" fill-opacity="1" d=" M67.50199890136719,-360.6629943847656 C67.50199890136719,-360.6629943847656 67.50199890136719,360.781005859375 67.50199890136719,360.781005859375 C67.50199890136719,360.781005859375 -67.50199890136719,360.781005859375 -67.50199890136719,360.781005859375 C-67.50199890136719,360.781005859375 -67.50199890136719,-360.781005859375 -67.50199890136719,-360.781005859375"></path></g><g opacity="1" transform="matrix(1,0,0,1,787.3489990234375,1207.406005859375)"><path fill="rgb(140,201,40)" fill-opacity="1" d=" M0,-1154.3909912109375 C405.5459899902344,-1154.3909912109375 734.3070068359375,-637.552001953125 734.3070068359375,0 C734.3070068359375,637.552978515625 405.5459899902344,1154.3909912109375 0,1154.3909912109375 C-405.5459899902344,1154.3909912109375 -734.3070068359375,637.552978515625 -734.3070068359375,0 C-734.3070068359375,-637.552001953125 -405.5459899902344,-1154.3909912109375 0,-1154.3909912109375z"></path></g><g opacity="1" transform="matrix(1,0,0,1,420.19500732421875,1207.4229736328125)"><path fill="rgb(130,178,11)" fill-opacity="1" d=" M367.15399169921875,1154.387939453125 C-38.433998107910156,1154.387939453125 -367.15399169921875,637.5189819335938 -367.15399169921875,-0.003000000026077032 C-367.15399169921875,-637.5250244140625 -38.433998107910156,-1154.387939453125 367.15399169921875,-1154.387939453125 C187.58799743652344,-1154.387939453125 42.09400177001953,-637.5180053710938 42.09400177001953,0.004000000189989805 C42.09400177001953,637.5250244140625 187.58799743652344,1154.387939453125 367.15399169921875,1154.387939453125z"></path></g><g opacity="1" transform="matrix(1,0,0,1,2252.719970703125,1893.844970703125)"><path fill="rgb(233,234,239)" fill-opacity="1" d=" M964.1259765625,-264.62200927734375 C964.1259765625,-264.62200927734375 964.1259765625,1205.1590576171875 964.1259765625,1205.1590576171875 C964.1259765625,1205.1590576171875 -964.1259765625,1205.1590576171875 -964.1259765625,1205.1590576171875 C-964.1259765625,1205.1590576171875 -964.1259765625,-264.62200927734375 -964.1259765625,-264.62200927734375 C-964.1259765625,-264.62200927734375 5.440000057220459,-1205.1590576171875 5.440000057220459,-1205.1590576171875 C5.440000057220459,-1205.1590576171875 964.1259765625,-264.62200927734375 964.1259765625,-264.62200927734375z"></path></g><g opacity="1" transform="matrix(1,0,0,1,2986.072998046875,1204.083984375)"><path fill="rgb(158,177,183)" fill-opacity="1" d=" M-241.0330047607422,-93.7969970703125 C-241.0330047607422,-93.7969970703125 -241.0330047607422,-365.2919921875 -241.0330047607422,-365.2919921875 C-241.0330047607422,-365.2919921875 241.0330047607422,-365.2919921875 241.0330047607422,-365.2919921875 C241.0330047607422,-365.2919921875 241.0330047607422,365.2919921875 241.0330047607422,365.2919921875"></path></g><g opacity="1" transform="matrix(1,0,0,1,2927.117919921875,2945.02392578125)"><path fill="rgb(133,193,13)" fill-opacity="1" d=" M-582.052001953125,-153.99400329589844 C-582.052001953125,-153.99400329589844 582.052001953125,-153.99400329589844 582.052001953125,-153.99400329589844 C582.052001953125,-153.99400329589844 582.052001953125,153.9949951171875 582.052001953125,153.9949951171875 C582.052001953125,153.9949951171875 -582.052001953125,153.9949951171875 -582.052001953125,153.9949951171875 C-582.052001953125,153.9949951171875 -582.052001953125,-153.99400329589844 -582.052001953125,-153.99400329589844z"></path></g><g opacity="1" transform="matrix(1,0,0,1,712.343994140625,2945.02392578125)"><path fill="rgb(133,193,13)" fill-opacity="1" d=" M-659.302978515625,-153.99400329589844 C-659.302978515625,-153.99400329589844 659.302001953125,-153.99400329589844 659.302001953125,-153.99400329589844 C659.302001953125,-153.99400329589844 659.302001953125,153.9949951171875 659.302001953125,153.9949951171875 C659.302001953125,153.9949951171875 -659.302978515625,153.9949951171875 -659.302978515625,153.9949951171875 C-659.302978515625,153.9949951171875 -659.302978515625,-153.99400329589844 -659.302978515625,-153.99400329589844z"></path></g><g opacity="1" transform="matrix(1,0,0,1,2252.719970703125,1366.06103515625)"><path fill="rgb(210,212,216)" fill-opacity="1" d=" M964.1259765625,320.8590087890625 C964.1259765625,320.8590087890625 964.1259765625,595.5819702148438 964.1259765625,595.5819702148438 C964.1259765625,595.5819702148438 0,-324.9549865722656 0,-324.9549865722656 C0,-324.9549865722656 -964.1259765625,595.5819702148438 -964.1259765625,595.5819702148438 C-964.1259765625,595.5819702148438 -964.1259765625,320.8590087890625 -964.1259765625,320.8590087890625 C-964.1259765625,320.8590087890625 -76.56199645996094,-524.4509887695312 -76.56199645996094,-524.4509887695312 C-76.56199645996094,-524.4509887695312 0,-595.5809936523438 0,-595.5809936523438 C0,-595.5809936523438 76.51399993896484,-524.4509887695312 76.51399993896484,-524.4509887695312 C76.51399993896484,-524.4509887695312 964.1259765625,320.8590087890625 964.1259765625,320.8590087890625z"></path></g><g opacity="1" transform="matrix(1,0,0,1,2252.7060546875,1276.925048828125)"><path fill="rgb(201,117,35)" fill-opacity="1" d=" M0,-388.70098876953125 C0,-388.70098876953125 -1097.7239990234375,659.333984375 -1097.7239990234375,659.333984375 C-1097.7239990234375,659.333984375 -1251.2110595703125,530.47998046875 -1251.2110595703125,530.47998046875 C-1251.2110595703125,530.47998046875 -76.54199981689453,-588.2379760742188 -76.54199981689453,-588.2379760742188 C-76.54199981689453,-588.2379760742188 0,-659.3330078125 0,-659.3330078125 C0,-659.3330078125 76.53500366210938,-588.2379760742188 76.53500366210938,-588.2379760742188 C76.53500366210938,-588.2379760742188 1251.2110595703125,530.47998046875 1251.2110595703125,530.47998046875 C1251.2110595703125,530.47998046875 1097.7239990234375,659.333984375 1097.7239990234375,659.333984375 C1097.7239990234375,659.333984375 0,-388.70098876953125 0,-388.70098876953125z"></path></g><g opacity="1" transform="matrix(1,0,0,1,2707.152099609375,2315.759033203125)"><path fill="rgb(160,217,242)" fill-opacity="1" d=" M-362.0849914550781,-317.95001220703125 C-362.0849914550781,-317.95001220703125 362.0849914550781,-317.95001220703125 362.0849914550781,-317.95001220703125 C362.0849914550781,-317.95001220703125 362.0849914550781,317.95001220703125 362.0849914550781,317.95001220703125 C362.0849914550781,317.95001220703125 -362.0849914550781,317.95001220703125 -362.0849914550781,317.95001220703125 C-362.0849914550781,317.95001220703125 -362.0849914550781,-317.95001220703125 -362.0849914550781,-317.95001220703125z"></path></g><g opacity="1" transform="matrix(1,0,0,1,2707.152099609375,2094.427001953125)"><path fill="rgb(201,117,35)" fill-opacity="1" d=" M-362.0849914550781,-96.61799621582031 C-362.0849914550781,-96.61799621582031 362.0849914550781,-96.61799621582031 362.0849914550781,-96.61799621582031 C362.0849914550781,-96.61799621582031 362.0849914550781,96.61799621582031 362.0849914550781,96.61799621582031 C362.0849914550781,96.61799621582031 -362.0849914550781,96.61799621582031 -362.0849914550781,96.61799621582031 C-362.0849914550781,96.61799621582031 -362.0849914550781,-96.61799621582031 -362.0849914550781,-96.61799621582031z"></path></g><g opacity="1" transform="matrix(1,0,0,1,2252.712890625,1506.4210205078125)"><path fill="rgb(65,55,64)" fill-opacity="1" d=" M0,-176.88800048828125 C97.69300079345703,-176.88800048828125 176.88800048828125,-97.69300079345703 176.88800048828125,0 C176.88800048828125,97.69300079345703 97.69300079345703,176.88800048828125 0,176.88800048828125 C-97.69200134277344,176.88800048828125 -176.88800048828125,97.69300079345703 -176.88800048828125,0 C-176.88800048828125,-97.69300079345703 -97.69200134277344,-176.88800048828125 0,-176.88800048828125z"></path></g><g opacity="1" transform="matrix(1,0,0,1,2707.110107421875,2315.751953125)"><path fill="rgb(0,53,42)" fill-opacity="1" d=" M-362.0780029296875,370.75 C-362.0780029296875,370.75 362.0790100097656,370.75 362.0790100097656,370.75 C391.239990234375,370.75 414.8710021972656,347.11199951171875 414.8710021972656,317.9570007324219 C414.8710021972656,317.9570007324219 414.8710021972656,-317.9570007324219 414.8710021972656,-317.9570007324219 C414.8710021972656,-347.11199951171875 391.239990234375,-370.75 362.0790100097656,-370.75 C362.0790100097656,-370.75 -362.0780029296875,-370.75 -362.0780029296875,-370.75 C-391.239013671875,-370.75 -414.8699951171875,-347.11199951171875 -414.8699951171875,-317.9570007324219 C-414.8699951171875,-317.9570007324219 -414.8699951171875,317.9570007324219 -414.8699951171875,317.9570007324219 C-414.8699951171875,347.1189880371094 -391.23199462890625,370.75 -362.0780029296875,370.75z M-309.2860107421875,265.1650085449219 M-309.2860107421875,-71.93000030517578 C-309.2860107421875,-71.93000030517578 309.2860107421875,-71.93000030517578 309.2860107421875,-71.93000030517578 C309.2860107421875,-71.93000030517578 309.2860107421875,265.1650085449219 309.2860107421875,265.1650085449219 C309.2860107421875,265.1650085449219 -309.2860107421875,265.1650085449219 -309.2860107421875,265.1650085449219 C-309.2860107421875,265.1650085449219 -309.2860107421875,-71.93000030517578 -309.2860107421875,-71.93000030517578z M309.2869873046875,-265.1650085449219 M309.2869873046875,-177.5070037841797 C309.2869873046875,-177.5070037841797 -309.2850036621094,-177.5070037841797 -309.2850036621094,-177.5070037841797 C-309.2850036621094,-177.5070037841797 -309.2850036621094,-265.1650085449219 -309.2850036621094,-265.1650085449219 C-309.2850036621094,-265.1650085449219 309.2869873046875,-265.1650085449219 309.2869873046875,-265.1650085449219 C309.2869873046875,-265.1650085449219 309.2869873046875,-177.5070037841797 309.2869873046875,-177.5070037841797z"></path></g><g opacity="1" transform="matrix(1,0,0,1,1781.092041015625,1576.030029296875)"><path fill="rgb(0,53,42)" fill-opacity="1" d=" M1728.0560302734375,1162.199951171875 C1728.0560302734375,1162.199951171875 1488.553955078125,1162.199951171875 1488.553955078125,1162.199951171875 C1488.553955078125,1162.199951171875 1488.553955078125,710.5679931640625 1488.553955078125,710.5679931640625 C1488.553955078125,681.4140014648438 1464.916015625,657.7760009765625 1435.760986328125,657.7760009765625 C1406.6070556640625,657.7760009765625 1382.968994140625,681.4140014648438 1382.968994140625,710.5679931640625 C1382.968994140625,710.5679931640625 1382.968994140625,1162.199951171875 1382.968994140625,1162.199951171875 C1382.968994140625,1162.199951171875 563.9400024414062,1162.199951171875 563.9400024414062,1162.199951171875 C534.7849731445312,1162.199951171875 511.14801025390625,1185.8380126953125 511.14801025390625,1214.991943359375 C511.14801025390625,1214.991943359375 511.14801025390625,1470.1820068359375 511.14801025390625,1470.1820068359375 C511.14801025390625,1470.1820068359375 432.1090087890625,1470.1820068359375 432.1090087890625,1470.1820068359375 C432.1090087890625,1470.1820068359375 -309.3909912109375,1470.1820068359375 -309.3909912109375,1470.1820068359375 C-309.3909912109375,1470.1820068359375 -356.6390075683594,1470.1820068359375 -356.6390075683594,1470.1820068359375 C-356.6390075683594,1470.1820068359375 -356.6390075683594,1214.9930419921875 -356.6390075683594,1214.9930419921875 C-356.6390075683594,1185.8380126953125 -380.2770080566406,1162.199951171875 -409.4309997558594,1162.199951171875 C-409.4309997558594,1162.199951171875 -439.7130126953125,1162.199951171875 -439.7130126953125,1162.199951171875 C-439.7130126953125,1162.199951171875 -439.7130126953125,255.24200439453125 -439.7130126953125,255.24200439453125 C-439.7130126953125,255.24200439453125 471.6080017089844,-614.81201171875 471.6080017089844,-614.81201171875 C471.6080017089844,-614.81201171875 1382.9620361328125,255.28399658203125 1382.9620361328125,255.28399658203125 C1382.9620361328125,255.28399658203125 1382.9620361328125,464.1919860839844 1382.9620361328125,464.1919860839844 C1382.9620361328125,493.34698486328125 1406.5999755859375,516.9849853515625 1435.7540283203125,516.9849853515625 C1464.9090576171875,516.9849853515625 1488.5460205078125,493.34698486328125 1488.5460205078125,464.1919860839844 C1488.5460205078125,464.1919860839844 1488.5460205078125,356.0899963378906 1488.5460205078125,356.0899963378906 C1488.5460205078125,356.0899963378906 1532.8800048828125,398.4129943847656 1532.8800048828125,398.4129943847656 C1552.343994140625,416.9930114746094 1582.6669921875,417.9599914550781 1603.27197265625,400.6659851074219 C1603.27197265625,400.6659851074219 1755.6099853515625,272.7860107421875 1755.6099853515625,272.7860107421875 C1762.677978515625,266.8529968261719 1768.56298828125,259.47198486328125 1771.916015625,250.87399291992188 C1780.0069580078125,230.14300537109375 1774.4200439453125,207.61199951171875 1759.2349853515625,193.1490020751953 C1759.2349853515625,193.1490020751953 1498.8070068359375,-54.86800003051758 1498.8070068359375,-54.86800003051758 C1498.8070068359375,-54.86800003051758 1498.8070068359375,-737.2310180664062 1498.8070068359375,-737.2310180664062 C1498.8070068359375,-766.385009765625 1475.1689453125,-790.0230102539062 1446.0150146484375,-790.0230102539062 C1446.0150146484375,-790.0230102539062 963.9550170898438,-790.0230102539062 963.9550170898438,-790.0230102539062 C934.801025390625,-790.0230102539062 911.1630249023438,-766.385986328125 911.1630249023438,-737.2310180664062 C911.1630249023438,-737.2310180664062 911.1630249023438,-614.52001953125 911.1630249023438,-614.52001953125 C911.1630249023438,-614.52001953125 584.0859985351562,-926.0150146484375 584.0859985351562,-926.0150146484375 C584.0859985351562,-926.0150146484375 507.5509948730469,-997.1090087890625 507.5509948730469,-997.1090087890625 C487.3009948730469,-1015.926025390625 455.968994140625,-1015.926025390625 435.6910095214844,-997.1090087890625 C435.6910095214844,-997.1090087890625 358.6759948730469,-925.5560302734375 358.6759948730469,-925.5560302734375 C358.6759948730469,-925.5560302734375 -206.83999633789062,-386.98199462890625 -206.83999633789062,-386.98199462890625 C-210.81199645996094,-788.3610229492188 -344.5559997558594,-1160.822021484375 -560.9359741210938,-1378.7740478515625 C-582.3820190429688,-1400.3740234375 -617.7769775390625,-1398.9820556640625 -637.8460083007812,-1376.08203125 C-656.1900024414062,-1355.1639404296875 -655.0349731445312,-1323.720947265625 -635.4249877929688,-1303.97802734375 C-435.052001953125,-1102.39501953125 -312.22198486328125,-749.8709716796875 -312.22198486328125,-368.59600830078125 C-312.22198486328125,-340.4639892578125 -313.0710144042969,-312.3529968261719 -314.39300537109375,-284.5559997558594 C-314.39300537109375,-284.5559997558594 -816,193.156005859375 -816,193.156005859375 C-831.1790161132812,207.61900329589844 -836.7650146484375,230.14300537109375 -828.6740112304688,250.88099670410156 C-825.3209838867188,259.47900390625 -819.4359741210938,266.8590087890625 -812.3759765625,272.7929992675781 C-812.3759765625,272.7929992675781 -660.0440063476562,400.6730041503906 -660.0440063476562,400.6730041503906 C-650.2000122070312,408.93701171875 -638.14501953125,413.0350036621094 -626.1099853515625,413.0350036621094 C-612.948974609375,413.0350036621094 -599.822021484375,408.1369934082031 -589.6519775390625,398.4259948730469 C-589.6519775390625,398.4259948730469 -545.2769775390625,356.0690002441406 -545.2769775390625,356.0690002441406 C-545.2769775390625,356.0690002441406 -545.2769775390625,458.4599914550781 -545.2769775390625,458.4599914550781 C-670.1859741210938,635.6329956054688 -828.9390258789062,733.0159912109375 -993.7369995117188,733.0159912109375 C-1171.1669921875,733.0159912109375 -1339.741943359375,621.6160278320312 -1468.4150390625,419.343994140625 C-1601.791015625,209.65699768066406 -1675.2509765625,-70.16600036621094 -1675.2509765625,-368.5889892578125 C-1675.2509765625,-667.0130004882812 -1601.791015625,-946.8350219726562 -1468.407958984375,-1156.5159912109375 C-1339.7490234375,-1358.7879638671875 -1171.1669921875,-1470.18798828125 -993.72998046875,-1470.18798828125 C-932.10302734375,-1470.18798828125 -871.3099975585938,-1456.7490234375 -812.43798828125,-1430.18896484375 C-787.81298828125,-1419.0799560546875 -758.7689819335938,-1428.97802734375 -745.4199829101562,-1452.469970703125 C-745.4199829101562,-1452.469970703125 -745.4199829101562,-1452.47705078125 -745.4199829101562,-1452.47705078125 C-730.052978515625,-1479.531005859375 -741.2949829101562,-1513.9720458984375 -769.656005859375,-1526.737060546875 C-841.989013671875,-1559.3070068359375 -917.1320190429688,-1575.780029296875 -993.72998046875,-1575.780029296875 C-1208.551025390625,-1575.780029296875 -1408.77099609375,-1447.0169677734375 -1557.491943359375,-1213.197021484375 C-1701.5250244140625,-986.7999877929688 -1780.842041015625,-686.8460083007812 -1780.842041015625,-368.6029968261719 C-1780.842041015625,-50.361000061035156 -1701.5250244140625,249.58700561523438 -1557.5059814453125,475.99700927734375 C-1457.2640380859375,633.594970703125 -1333.60595703125,743.3820190429688 -1197.8719482421875,798.260986328125 C-1197.8719482421875,798.260986328125 -1197.8719482421875,1162.1929931640625 -1197.8719482421875,1162.1929931640625 C-1197.8719482421875,1162.1929931640625 -1358.5030517578125,1162.1929931640625 -1358.5030517578125,1162.1929931640625 C-1358.5030517578125,1162.1929931640625 -1358.5030517578125,1083.6409912109375 -1358.5030517578125,1083.6409912109375 C-1358.5030517578125,1054.72998046875 -1380.7850341796875,1029.5269775390625 -1409.675048828125,1028.657958984375 C-1439.5670166015625,1027.760009765625 -1464.0880126953125,1051.7320556640625 -1464.0880126953125,1081.428955078125 C-1464.0880126953125,1081.428955078125 -1464.0880126953125,1162.199951171875 -1464.0880126953125,1162.199951171875 C-1464.0880126953125,1162.199951171875 -1528.0799560546875,1162.199951171875 -1528.0799560546875,1162.199951171875 C-1528.0799560546875,1162.199951171875 -1528.0799560546875,1083.64794921875 -1528.0799560546875,1083.64794921875 C-1528.0799560546875,1054.737060546875 -1550.3609619140625,1029.5340576171875 -1579.251953125,1028.6650390625 C-1609.1429443359375,1027.7669677734375 -1633.6650390625,1051.739013671875 -1633.6650390625,1081.43603515625 C-1633.6650390625,1081.43603515625 -1633.6650390625,1162.20703125 -1633.6650390625,1162.20703125 C-1633.6650390625,1162.20703125 -1728.050048828125,1162.20703125 -1728.050048828125,1162.20703125 C-1757.2039794921875,1162.20703125 -1780.842041015625,1185.844970703125 -1780.842041015625,1215 C-1780.842041015625,1215 -1780.842041015625,1522.988037109375 -1780.842041015625,1522.988037109375 C-1780.842041015625,1552.1429443359375 -1757.2039794921875,1575.781005859375 -1728.050048828125,1575.781005859375 C-1728.050048828125,1575.781005859375 -409.42401123046875,1575.781005859375 -409.42401123046875,1575.781005859375 C-409.375,1575.781005859375 -409.3340148925781,1575.7740478515625 -409.2919921875,1575.7740478515625 C-409.2919921875,1575.7740478515625 -256.5979919433594,1575.7740478515625 -256.5979919433594,1575.7740478515625 C-256.5979919433594,1575.7740478515625 379.3160095214844,1575.7740478515625 379.3160095214844,1575.7740478515625 C379.3160095214844,1575.7740478515625 563.801025390625,1575.7740478515625 563.801025390625,1575.7740478515625 C563.8489990234375,1575.7740478515625 563.8909912109375,1575.781005859375 563.9329833984375,1575.781005859375 C563.9329833984375,1575.781005859375 1728.0489501953125,1575.781005859375 1728.0489501953125,1575.781005859375 C1757.2039794921875,1575.781005859375 1780.842041015625,1552.1419677734375 1780.842041015625,1522.988037109375 C1780.842041015625,1522.988037109375 1780.842041015625,1215 1780.842041015625,1215 C1780.8489990234375,1185.8310546875 1757.2110595703125,1162.199951171875 1728.0560302734375,1162.199951171875z M1016.7410278320312,-684.4459838867188 C1016.7410278320312,-684.4459838867188 1393.2220458984375,-684.4459838867188 1393.2220458984375,-684.4459838867188 C1393.2220458984375,-684.4459838867188 1393.2220458984375,-155.4239959716797 1393.2220458984375,-155.4239959716797 C1393.2220458984375,-155.4239959716797 1016.7410278320312,-513.9650268554688 1016.7410278320312,-513.9650268554688 C1016.7410278320312,-513.9650268554688 1016.7410278320312,-684.4459838867188 1016.7410278320312,-684.4459838867188z M-628.3709716796875,289.39801025390625 C-628.3709716796875,289.39801025390625 -700.4390258789062,228.8979949951172 -700.4390258789062,228.8979949951172 C-700.4390258789062,228.8979949951172 431.010009765625,-848.6519775390625 431.010009765625,-848.6519775390625 C431.010009765625,-848.6519775390625 471.6210021972656,-886.3770141601562 471.6210021972656,-886.3770141601562 C471.6210021972656,-886.3770141601562 511.75299072265625,-849.10400390625 511.75299072265625,-849.10400390625 C511.75299072265625,-849.10400390625 1643.68896484375,228.8979949951172 1643.68896484375,228.8979949951172 C1643.68896484375,228.8979949951172 1571.614013671875,289.4049987792969 1571.614013671875,289.4049987792969 C1571.614013671875,289.4049987792969 508.072998046875,-725.989990234375 508.072998046875,-725.989990234375 C497.875,-735.72900390625 484.7550048828125,-740.5980224609375 471.6210021972656,-740.5980224609375 C458.50201416015625,-740.5980224609375 445.3680114746094,-735.72900390625 435.1700134277344,-725.989990234375 C435.1700134277344,-725.989990234375 -628.3709716796875,289.39801025390625 -628.3709716796875,289.39801025390625z M-545.2899780273438,625.3870239257812 C-545.2899780273438,625.3870239257812 -545.2899780273438,1162.199951171875 -545.2899780273438,1162.199951171875 C-545.2899780273438,1162.199951171875 -614.6589965820312,1162.199951171875 -614.6589965820312,1162.199951171875 C-614.6589965820312,1162.199951171875 -614.6589965820312,1081.428955078125 -614.6589965820312,1081.428955078125 C-614.6589965820312,1052.2750244140625 -638.291015625,1028.636962890625 -667.4520263671875,1028.636962890625 C-696.6129760742188,1028.636962890625 -720.2440185546875,1052.2750244140625 -720.2440185546875,1081.428955078125 C-720.2440185546875,1081.428955078125 -720.2440185546875,1162.199951171875 -720.2440185546875,1162.199951171875 C-720.2440185546875,1162.199951171875 -789.614013671875,1162.199951171875 -789.614013671875,1162.199951171875 C-789.614013671875,1162.199951171875 -789.614013671875,798.0800170898438 -789.614013671875,798.0800170898438 C-702.2410278320312,762.6300048828125 -619.7100219726562,704.3629760742188 -545.2899780273438,625.3870239257812z M-1092.2879638671875,829.3980102539062 C-1059.8780517578125,835.47802734375 -1026.988037109375,838.572998046875 -993.7429809570312,838.572998046875 C-960.5399780273438,838.572998046875 -927.6500244140625,835.4080200195312 -895.197998046875,829.27197265625 C-895.197998046875,829.27197265625 -895.197998046875,1162.1929931640625 -895.197998046875,1162.1929931640625 C-895.197998046875,1162.1929931640625 -1092.2879638671875,1162.1929931640625 -1092.2879638671875,1162.1929931640625 C-1092.2879638671875,1162.1929931640625 -1092.2879638671875,829.3980102539062 -1092.2879638671875,829.3980102539062z M-1675.2569580078125,1267.7850341796875 C-1675.2569580078125,1267.7850341796875 -1145.6920166015625,1267.7850341796875 -1145.6920166015625,1267.7850341796875 C-1145.490966796875,1267.7850341796875 -1145.281982421875,1267.81298828125 -1145.0799560546875,1267.81298828125 C-1145.0799560546875,1267.81298828125 -842.406005859375,1267.81298828125 -842.406005859375,1267.81298828125 C-842.2039794921875,1267.81298828125 -841.9959716796875,1267.7850341796875 -841.7940063476562,1267.7850341796875 C-841.7940063476562,1267.7850341796875 -462.2099914550781,1267.7850341796875 -462.2099914550781,1267.7850341796875 C-462.2099914550781,1267.7850341796875 -462.2099914550781,1470.1820068359375 -462.2099914550781,1470.1820068359375 C-462.2099914550781,1470.1820068359375 -492.4909973144531,1470.1820068359375 -492.4909973144531,1470.1820068359375 C-492.4909973144531,1470.1820068359375 -492.4909973144531,1470.18896484375 -492.4909973144531,1470.18896484375 C-492.4909973144531,1470.18896484375 -1675.2569580078125,1470.18896484375 -1675.2569580078125,1470.18896484375 C-1675.2569580078125,1470.18896484375 -1675.2569580078125,1267.7850341796875 -1675.2569580078125,1267.7850341796875z M-203.7989959716797,1470.1820068359375 C-203.7989959716797,1470.1820068359375 326.531005859375,1470.1820068359375 326.531005859375,1470.1820068359375 C326.531005859375,1470.1820068359375 -203.7989959716797,1470.1820068359375 -203.7989959716797,1470.1820068359375z M1675.2640380859375,1470.18896484375 C1675.2640380859375,1470.18896484375 1435.760986328125,1470.18896484375 1435.760986328125,1470.18896484375 C1435.760986328125,1470.18896484375 1435.760986328125,1470.1820068359375 1435.760986328125,1470.1820068359375 C1435.760986328125,1470.1820068359375 616.7329711914062,1470.1820068359375 616.7329711914062,1470.1820068359375 C616.7329711914062,1470.1820068359375 616.7329711914062,1267.7850341796875 616.7329711914062,1267.7850341796875 C616.7329711914062,1267.7850341796875 1675.2640380859375,1267.7850341796875 1675.2640380859375,1267.7850341796875 C1675.2640380859375,1267.7850341796875 1675.2640380859375,1470.18896484375 1675.2640380859375,1470.18896484375z"></path></g><g opacity="1" transform="matrix(1,0,0,1,2252.73095703125,1506.43505859375)"><path fill="rgb(0,53,42)" fill-opacity="1" d=" M229.71099853515625,0 C229.71099853515625,-126.65499877929688 126.65899658203125,-229.70799255371094 -0.004000000189989805,-229.70799255371094 C-126.66000366210938,-229.70799255371094 -229.71200561523438,-126.65499877929688 -229.71200561523438,0 C-229.71200561523438,126.66300201416016 -126.66000366210938,229.70799255371094 -0.004000000189989805,229.70799255371094 C126.65899658203125,229.70799255371094 229.71099853515625,126.66300201416016 229.71099853515625,0z M-0.009999999776482582,124.12300109863281 C-68.4540023803711,124.12300109863281 -124.13500213623047,68.43800354003906 -124.13500213623047,0 C-124.13500213623047,-68.43699645996094 -68.4540023803711,-124.1240005493164 -0.009999999776482582,-124.1240005493164 C68.43399810791016,-124.1240005493164 124.11900329589844,-68.43699645996094 124.11900329589844,0 C124.1259994506836,68.44499969482422 68.44100189208984,124.12300109863281 -0.009999999776482582,124.12300109863281z"></path></g><g opacity="1" transform="matrix(1,0,0,1,1841.010986328125,2548.39990234375)"><path stroke-linecap="butt" stroke-linejoin="round" fill-opacity="0" stroke="rgb(0,53,42)" stroke-opacity="1" stroke-width="83" d=" M319.3550109863281,550.5910034179688 C319.3550109863281,550.5910034179688 319.3550109863281,-550.5910034179688 319.3550109863281,-550.5910034179688 C319.3550109863281,-550.5910034179688 -319.3559875488281,-550.5910034179688 -319.3559875488281,-550.5910034179688 C-319.3559875488281,-550.5910034179688 -319.3559875488281,550.583984375 -319.3559875488281,550.583984375 C-319.3559875488281,550.583984375 319.3550109863281,550.5910034179688 319.3550109863281,550.5910034179688z"></path></g></g><g transform="matrix(1,0,0,1,1322.5,1748)" opacity="1" style="display: block;"><path stroke-linecap="butt" stroke-linejoin="round" fill-opacity="0" stroke="rgb(0,53,42)" stroke-opacity="1" stroke-width="132" d=" M390.21099853515625,1308.864013671875 C390.21099853515625,1308.864013671875 386.21099853515625,151 386.21099853515625,151 C386.21099853515625,151 207.5,207.5 207.5,207.5 C207.5,207.5 207.5,1308.675048828125 207.5,1308.675048828125 C207.5,1308.675048828125 390.21099853515625,1308.864013671875 390.21099853515625,1308.864013671875z"></path><path fill="rgb(201,117,35)" fill-opacity="1" d=" M390.21099853515625,1308.864013671875 C390.21099853515625,1308.864013671875 386.21099853515625,151 386.21099853515625,151 C386.21099853515625,151 207.5,207.5 207.5,207.5 C207.5,207.5 207.5,1308.675048828125 207.5,1308.675048828125 C207.5,1308.675048828125 390.21099853515625,1308.864013671875 390.21099853515625,1308.864013671875z"></path></g><g transform="matrix(0.805620014667511,0,0,0.7884799838066101,1076.90087890625,1952.43798828125)" opacity="1" style="display: block;"><g opacity="1" transform="matrix(1,0,0,1,674.801025390625,754.5609741210938)"><path fill="rgb(0,53,42)" fill-opacity="1" d=" M46.15299987792969,-37.573001861572266 C46.15299987792969,-37.573001861572266 -17.60300064086914,-37.808998107910156 -17.60300064086914,-37.808998107910156 C-46.763999938964844,-37.808998107910156 -62.946998596191406,-27.88599967956543 -62.946998596191406,1.2680000066757202 C-62.946998596191406,30.42300033569336 -43.040000915527344,32.58300018310547 -13.878999710083008,32.58300018310547 C-13.878999710083008,32.58300018310547 46.15299987792969,32.5 46.15299987792969,32.5 C75.31400299072266,32.5 98.94499969482422,29.155000686645508 98.94499969482422,0 C98.94499969482422,-29.15399932861328 75.31400299072266,-37.573001861572266 46.15299987792969,-37.573001861572266z"></path></g></g></g></svg>