<svg xmlns="http://www.w3.org/2000/svg" viewBox="0 0 2107 2912" width="2107" height="2912" preserveAspectRatio="xMidYMid meet" style="width: 100%; height: 100%; transform: translate3d(0px, 0px, 0px);"><defs><clipPath id="__lottie_element_15"><rect width="2107" height="2912" x="0" y="0"></rect></clipPath></defs><g clip-path="url(#__lottie_element_15)"><g transform="matrix(1,0,0,1,0,0)" opacity="0.5397567136502706" style="display: block;"><g opacity="1" transform="matrix(1,0,0,1,1053.1610107421875,1455.7449951171875)"><path fill="rgb(0,53,42)" fill-opacity="1" d=" M990.9749755859375,-402.5840148925781 C990.9749755859375,-221.7310028076172 942.6649780273438,-52.645999908447266 858.4320068359375,92.90399932861328 C858.4320068359375,92.90399932861328 0,1393.5589599609375 0,1393.5589599609375 C0,1393.5589599609375 -858.4320068359375,92.90399932861328 -858.4320068359375,92.90399932861328 C-942.6649780273438,-52.645999908447266 -990.9749755859375,-221.7310028076172 -990.9749755859375,-402.5840148925781 C-990.9749755859375,-950.0980224609375 -547.5130004882812,-1393.5589599609375 0,-1393.5589599609375 C547.5139770507812,-1393.5589599609375 990.9749755859375,-950.0980224609375 990.9749755859375,-402.5840148925781z M495.4880065917969,-402.5840148925781 C495.4880065917969,-676.3410034179688 273.7569885253906,-898.072021484375 0,-898.072021484375 C-273.7569885253906,-898.072021484375 -495.48699951171875,-676.3410034179688 -495.48699951171875,-402.5840148925781 C-495.48699951171875,-128.82699584960938 -273.7569885253906,92.90399932861328 0,92.90399932861328 C273.7569885253906,92.90399932861328 495.4880065917969,-128.82699584960938 495.4880065917969,-402.5840148925781z"></path></g></g><g transform="matrix(1,0,0,1,0,0)" opacity="1" style="display: block;"><g opacity="1" transform="matrix(1,0,0,1,1053.1610107421875,1455.7449951171875)"><path fill="rgb(0,53,42)" fill-opacity="1" d=" M-910.1489868164062,127.03099822998047 C-910.1489868164062,127.03099822998047 -51.715999603271484,1427.68603515625 -51.715999603271484,1427.68603515625 C-40.19599914550781,1445.0279541015625 -20.809999465942383,1455.4949951171875 0,1455.4949951171875 C20.809999465942383,1455.4949951171875 40.19599914550781,1445.0279541015625 51.715999603271484,1427.68603515625 C51.715999603271484,1427.68603515625 912.0689697265625,123.93399810791016 912.0689697265625,123.93399810791016 C1004.22900390625,-35.36600112915039 1052.9110107421875,-217.45700073242188 1052.9110107421875,-402.5840148925781 C1052.9110107421875,-983.1710205078125 580.5880126953125,-1455.4949951171875 0,-1455.4949951171875 C-580.5880126953125,-1455.4949951171875 -1052.9110107421875,-983.1710205078125 -1052.9110107421875,-402.5840148925781 C-1052.9110107421875,-217.45700073242188 -1004.22900390625,-35.36600112915039 -912.0689697265625,123.87200164794922 C-911.448974609375,124.98699951171875 -910.8300170898438,126.03900146484375 -910.1489868164062,127.03099822998047z M0,-1331.623046875 C512.27197265625,-1331.623046875 929.0390014648438,-914.8560180664062 929.0390014648438,-402.5840148925781 C929.0390014648438,-239.19700622558594 886.1179809570312,-78.59700012207031 806.7160034179688,58.777000427246094 C806.7160034179688,58.777000427246094 0,1281.14501953125 0,1281.14501953125 C0,1281.14501953125 -805.7249755859375,60.387001037597656 -805.7249755859375,60.387001037597656 C-886.427001953125,-79.71199798583984 -929.0390014648438,-239.75399780273438 -929.0390014648438,-402.5840148925781 C-929.0390014648438,-914.8560180664062 -512.27197265625,-1331.623046875 0,-1331.623046875z"></path></g><g opacity="1" transform="matrix(1,0,0,1,1053.1610107421875,1053.1610107421875)"><path fill="rgb(0,53,42)" fill-opacity="1" d=" M0,557.4229736328125 C307.38800048828125,557.4229736328125 557.4240112304688,307.32598876953125 557.4240112304688,0 C557.4240112304688,-307.3269958496094 307.38800048828125,-557.4229736328125 0,-557.4229736328125 C-307.38800048828125,-557.4229736328125 -557.4240112304688,-307.3269958496094 -557.4240112304688,0 C-557.4240112304688,307.32598876953125 -307.38800048828125,557.4229736328125 0,557.4229736328125z M0,-433.552001953125 C239.01100158691406,-433.552001953125 433.552001953125,-239.072998046875 433.552001953125,0 C433.552001953125,239.07200622558594 239.01100158691406,433.5509948730469 0,433.5509948730469 C-239.01100158691406,433.5509948730469 -433.552001953125,239.07200622558594 -433.552001953125,0 C-433.552001953125,-239.072998046875 -239.01100158691406,-433.552001953125 0,-433.552001953125z"></path></g></g></g></svg>