<?xml version="1.0" encoding="UTF-8"?> <!-- Generator: Adobe Illustrator 25.2.3, SVG Export Plug-In . SVG Version: 6.00 Build 0) --> <svg xmlns="http://www.w3.org/2000/svg" xmlns:xlink="http://www.w3.org/1999/xlink" id="Capa_1" x="0px" y="0px" viewBox="0 0 512 512" style="enable-background:new 0 0 512 512;" xml:space="preserve"> <style type="text/css"> .st0{fill:#FFFFFF;} </style> <path class="st0" d="M415.4,293.8C433,255.8,442,221.5,442,192C442,89.4,358.6,6,256,6S70,89.4,70,192c0,29.5,9,63.8,26.6,101.8 c14.4,30.9,34.5,64.4,59.8,99.4c43.2,59.9,87.6,104.9,92.5,109.8c1.9,1.9,4.4,2.9,7.1,2.9c2.7,0,5.2-1,7.1-2.9 c4.9-4.9,49.2-49.9,92.5-109.8C380.9,358.2,401,324.8,415.4,293.8z M260.4,477l-4.4,4.7l-4.4-4.7c-20.4-21.9-59.9-66.3-94.9-118.4 C112.4,292.7,90,236.7,90,192c0-91.5,74.5-166,166-166s166,74.5,166,166c0,44.7-22.4,100.7-66.7,166.5 C320.2,410.7,280.8,455.1,260.4,477z"></path> <path class="st0" d="M256,102c-49.6,0-90,40.4-90,90s40.4,90,90,90s90-40.4,90-90S305.6,102,256,102z M256,262 c-38.6,0-70-31.4-70-70c0-38.6,31.4-70,70-70c38.6,0,70,31.4,70,70C326,230.6,294.6,262,256,262z"></path> </svg> 