<?xml version="1.0" encoding="UTF-8"?> <!-- Generator: Adobe Illustrator 25.3.1, SVG Export Plug-In . SVG Version: 6.00 Build 0) --> <svg xmlns="http://www.w3.org/2000/svg" xmlns:xlink="http://www.w3.org/1999/xlink" id="Capa_1" x="0px" y="0px" viewBox="0 0 512 512" style="enable-background:new 0 0 512 512;" xml:space="preserve"> <style type="text/css"> .st0{fill:#FFFFFF;} </style> <g> <g> <path class="st0" d="M96,277.3c-29.4,0-53.3,23.9-53.3,53.3S66.6,384,96,384s53.3-23.9,53.3-53.3S125.4,277.3,96,277.3z M96,362.7 c-17.6,0-32-14.4-32-32s14.4-32,32-32s32,14.4,32,32C128,348.3,113.6,362.7,96,362.7z"></path> </g> </g> <g> <g> <path class="st0" d="M416,277.3c-29.4,0-53.3,23.9-53.3,53.3S386.6,384,416,384s53.3-23.9,53.3-53.3S445.4,277.3,416,277.3z M416,362.7c-17.6,0-32-14.4-32-32s14.4-32,32-32s32,14.4,32,32C448,348.3,433.6,362.7,416,362.7z"></path> </g> </g> <g> <g> <path class="st0" d="M448,213.3h-18c-6.6,0-13.1-2.3-18.2-6.4l-84.1-67.2c-9.4-7.5-21.3-11.7-33.3-11.7H140.2 c-17.9,0-34.5,8.9-44.4,23.7L77.6,179c-5.4,8.1-14.5,13-24.3,13C23.9,192,0,215.9,0,245.3V288c0,29.4,23.9,53.3,53.3,53.3 c5.9,0,10.7-4.8,10.7-10.7S59.2,320,53.3,320c-17.6,0-32-14.4-32-32v-42.7c0-17.6,14.4-32,32-32c16.9,0,32.6-8.4,42-22.5 l18.2-27.2c6-8.9,15.9-14.3,26.6-14.3h154.2c7.3,0,14.3,2.5,20,7l84.1,67.2c8.9,7.1,20.1,11.1,31.6,11.1h18 c31.3,0,42.7,31.9,42.7,53.3c0,21-16.1,32-32,32c-5.9,0-10.7,4.8-10.7,10.7s4.8,10.7,10.7,10.7c30.4,0,53.3-22.9,53.3-53.3 C512,251.8,489.6,213.3,448,213.3z"></path> </g> </g> <g> <g> <path class="st0" d="M373.3,320H138.7c-5.9,0-10.7,4.8-10.7,10.7s4.8,10.7,10.7,10.7h234.7c5.9,0,10.7-4.8,10.7-10.7 S379.2,320,373.3,320z"></path> </g> </g> <g> <g> <path class="st0" d="M352,213.3h-96v-32c0-5.9-4.8-10.7-10.7-10.7s-10.7,4.8-10.7,10.7V224c0,5.9,4.8,10.7,10.7,10.7H352 c5.9,0,10.7-4.8,10.7-10.7S357.9,213.3,352,213.3z"></path> </g> </g> <g> <g> <path class="st0" d="M202.7,213.3h-68.1l13.6-27.2c2.6-5.3,0.5-11.7-4.8-14.3c-5.3-2.6-11.7-0.5-14.3,4.8l-21.3,42.7 c-1.7,3.3-1.5,7.2,0.5,10.4s5.4,5.1,9.1,5.1h85.3c5.9,0,10.7-4.8,10.7-10.7S208.6,213.3,202.7,213.3z"></path> </g> </g> <g> <g> <path class="st0" d="M288,256h-21.3c-5.9,0-10.7,4.8-10.7,10.7s4.8,10.7,10.7,10.7H288c5.9,0,10.7-4.8,10.7-10.7 S293.9,256,288,256z"></path> </g> </g> </svg> 